<svg width="204" height="204" viewBox="0 0 204 204" fill="none" xmlns="http://www.w3.org/2000/svg">
<g clip-path="url(#clip0_1138_2174)">
<path d="M204 101.873C204 103.51 203.981 105.109 203.886 106.727C203.277 119.461 200.326 131.606 195.453 142.703C179.825 178.356 144.363 203.406 103.133 203.844H102.01C58.0573 203.844 20.4819 175.901 6.18643 136.802C3.80704 130.33 2.0558 123.516 1.04693 116.473C0.342633 111.714 0 106.803 0 101.854C0 84.7982 4.20677 68.7135 11.6115 54.5704C15.1139 47.87 19.3397 41.6455 24.2127 35.9349C42.9624 13.8732 70.8489 -0.136719 101.99 -0.136719C148.227 -0.136719 187.363 30.7954 199.812 73.0345C202.553 82.2285 204 91.8793 204 101.873Z" fill="#552A80"/>
<path fill-rule="evenodd" clip-rule="evenodd" d="M194.219 58.8884C192.496 59.1812 190.596 59.3359 188.502 59.3359C143.181 59.3359 129.448 55.9185 84.8072 42.7112C56.6663 34.3856 41.0404 37.2178 21.3738 40.7825C20.9427 40.8606 20.5097 40.9391 20.0745 41.0178C35.9477 19.7597 59.9824 4.66292 88.2901 0.882659C133.519 -5.15732 175.882 19.5799 194.219 58.8884Z" fill="url(#paint0_linear_1138_2174)"/>
<path fill-rule="evenodd" clip-rule="evenodd" d="M16.0042 155.917C17.6763 155.404 19.542 155.005 21.6209 154.736C66.5649 148.903 80.6233 150.525 126.593 157.878C155.571 162.513 170.702 157.694 189.747 151.628C190.163 151.495 190.581 151.362 191.001 151.228C177.996 174.353 156.103 192.417 128.517 199.809C84.4411 211.619 39.2473 192.539 16.0042 155.917Z" fill="url(#paint1_linear_1138_2174)"/>
<path fill-rule="evenodd" clip-rule="evenodd" d="M165.695 92.418C165.695 86.1357 160.603 81.043 154.32 81.043L107.195 81.043C100.913 81.043 95.8203 86.1357 95.8203 92.418L95.8203 109.48C95.8203 115.763 100.913 120.855 107.195 120.855L154.32 120.855C160.603 120.855 165.695 115.763 165.695 109.48L165.695 92.418ZM118.57 97.6992C118.57 93.885 115.478 90.793 111.664 90.793C107.85 90.793 104.758 93.885 104.758 97.6992L104.758 104.199C104.758 108.013 107.85 111.105 111.664 111.105C115.478 111.105 118.57 108.013 118.57 104.199L118.57 97.6992Z" fill="#D9D9D9"/>
<path fill-rule="evenodd" clip-rule="evenodd" d="M203.956 106.719C204.051 105.101 204.07 103.502 204.07 101.865C204.07 95.0223 203.392 88.3402 202.084 81.8555L139.07 81.8555L139.07 121.668L202.132 121.668C203.096 116.799 203.713 111.806 203.956 106.719Z" fill="#6E7377"/>
<path fill-rule="evenodd" clip-rule="evenodd" d="M0.114207 96.8123C0.0190297 98.4303 9.5218e-06 100.029 9.37868e-06 101.666C8.78048e-06 108.509 0.678261 115.191 1.98588 121.676L65 121.676L65 81.8633L1.93824 81.8633C0.974437 86.7327 0.357524 91.7254 0.114207 96.8123Z" fill="#6E7377"/>
<rect x="88.5078" y="68.8555" width="65" height="60.9375" rx="8.9375" transform="rotate(90 88.5078 68.8555)" fill="#FF8C01"/>
<rect x="75.5078" y="82.7246" width="37.2667" height="34.9375" rx="4" transform="rotate(90 75.5078 82.7246)" fill="#D77908"/>
<rect x="175.445" y="74.543" width="52.8125" height="30.0625" rx="8.9375" transform="rotate(90 175.445 74.543)" fill="#2C3E50"/>
<rect x="161.633" y="71.293" width="60.125" height="33.3125" rx="5.6875" transform="rotate(90 161.633 71.293)" fill="#FF8C01"/>
<rect x="148.633" y="85.918" width="30.875" height="8.9375" rx="4" transform="rotate(90 148.633 85.918)" fill="#D77908"/>
<path d="M102 32.3116C102 32.3116 111 32.3116 111 18.8359C111 18.8359 111 32.3116 120 32.3116C120 32.3116 111 32.3116 111 45.7873C110.951 45.7873 110.951 32.3116 102 32.3116Z" fill="white"/>
<path d="M54 155.336C54 155.336 59.6769 155.336 59.6769 146.836C59.6769 146.836 59.6769 155.336 65.3538 155.336C65.3538 155.336 59.6769 155.336 59.6769 163.836C59.6462 163.836 59.6462 155.336 54 155.336Z" fill="white"/>
<rect x="86" y="70.8359" width="22" height="35" rx="6" transform="rotate(90 86 70.8359)" fill="white" fill-opacity="0.2"/>
<rect x="159" y="73.8359" width="22" height="24" rx="6" transform="rotate(90 159 73.8359)" fill="white" fill-opacity="0.2"/>
<path d="M169 77.8359C171.209 77.8359 173 79.6268 173 81.8359L173 95.8359C173 98.0451 171.209 99.8359 169 99.8359C166.791 99.8359 165 98.0451 165 95.8359L165 81.8359C165 79.6268 166.791 77.8359 169 77.8359Z" fill="white" fill-opacity="0.2"/>
</g>
<circle cx="112" cy="173.836" r="10" fill="white"/>
<defs>
<linearGradient id="paint0_linear_1138_2174" x1="26.3226" y1="25.9052" x2="194.407" y2="36.2684" gradientUnits="userSpaceOnUse">
<stop stop-color="#773690"/>
<stop offset="1" stop-color="#663898"/>
</linearGradient>
<linearGradient id="paint1_linear_1138_2174" x1="186.75" y1="167.02" x2="18.729" y2="178.373" gradientUnits="userSpaceOnUse">
<stop stop-color="#773690"/>
<stop offset="1" stop-color="#663898"/>
</linearGradient>
<clipPath id="clip0_1138_2174">
<rect width="204" height="204" fill="white"/>
</clipPath>
</defs>
</svg>
