<svg width="204" height="206" viewBox="0 0 204 206" fill="none" xmlns="http://www.w3.org/2000/svg">
<g clip-path="url(#clip0_1138_2204)">
<path d="M204 103.58C204 105.217 203.981 106.816 203.886 108.434C203.277 121.168 200.326 133.313 195.453 144.41C179.825 180.063 144.363 205.113 103.133 205.551H102.01C58.0573 205.551 20.4819 177.608 6.18643 138.509C3.80704 132.037 2.0558 125.223 1.04693 118.18C0.342633 113.421 0 108.51 0 103.561C0 86.5053 4.20677 70.4206 11.6115 56.2774C15.1139 49.577 19.3397 43.3525 24.2127 37.642C42.9624 15.5802 70.8489 1.57031 101.99 1.57031C148.227 1.57031 187.363 32.5025 199.812 74.7415C202.553 83.9355 204 93.5864 204 103.58Z" fill="#555555"/>
<path fill-rule="evenodd" clip-rule="evenodd" d="M194.219 60.5954C192.496 60.8882 190.596 61.043 188.502 61.043C143.181 61.0429 129.448 57.6255 84.8072 44.4183C56.6663 36.0926 41.0404 38.9249 21.3738 42.4895C20.9427 42.5676 20.5097 42.6461 20.0745 42.7249C35.9477 21.4668 59.9824 6.36995 88.2901 2.58969C133.519 -3.45029 175.882 21.2869 194.219 60.5954Z" fill="url(#paint0_linear_1138_2204)"/>
<path fill-rule="evenodd" clip-rule="evenodd" d="M16.0042 157.624C17.6763 157.111 19.542 156.712 21.6209 156.443C66.5649 150.61 80.6233 152.232 126.593 159.585C155.571 164.22 170.702 159.401 189.747 153.335C190.163 153.202 190.581 153.069 191.001 152.935C177.996 176.06 156.103 194.124 128.517 201.516C84.4411 213.326 39.2473 194.246 16.0042 157.624Z" fill="url(#paint1_linear_1138_2204)"/>
<path fill-rule="evenodd" clip-rule="evenodd" d="M165.695 94.125C165.695 87.8428 160.603 82.75 154.32 82.75L107.195 82.75C100.913 82.75 95.8203 87.8428 95.8203 94.125L95.8203 111.187C95.8203 117.47 100.913 122.562 107.195 122.562L154.32 122.562C160.603 122.562 165.695 117.47 165.695 111.187L165.695 94.125ZM118.57 99.4062C118.57 95.592 115.478 92.5 111.664 92.5C107.85 92.5 104.758 95.592 104.758 99.4062L104.758 105.906C104.758 109.72 107.85 112.812 111.664 112.812C115.478 112.812 118.57 109.72 118.57 105.906L118.57 99.4062Z" fill="#D9D9D9"/>
<path fill-rule="evenodd" clip-rule="evenodd" d="M203.956 108.426C204.051 106.808 204.07 105.209 204.07 103.572C204.07 96.7293 203.392 90.0473 202.084 83.5625L139.07 83.5625L139.07 123.375L202.132 123.375C203.096 118.506 203.713 113.513 203.956 108.426Z" fill="#737373"/>
<path fill-rule="evenodd" clip-rule="evenodd" d="M0.114207 98.5193C0.0190297 100.137 9.5218e-06 101.736 9.37868e-06 103.373C8.78048e-06 110.216 0.678261 116.898 1.98588 123.383L65 123.383L65 83.5703L1.93824 83.5703C0.974437 88.4397 0.357524 93.4325 0.114207 98.5193Z" fill="#737373"/>
<rect x="88.5078" y="70.5625" width="65" height="60.9375" rx="8.9375" transform="rotate(90 88.5078 70.5625)" fill="#808080"/>
<rect x="75.5078" y="84.4316" width="37.2667" height="34.9375" rx="4" transform="rotate(90 75.5078 84.4316)" fill="#707070"/>
<rect x="175.445" y="76.25" width="52.8125" height="30.0625" rx="8.9375" transform="rotate(90 175.445 76.25)" fill="#3E3E3E"/>
<rect x="161.633" y="73" width="60.125" height="33.3125" rx="5.6875" transform="rotate(90 161.633 73)" fill="#808080"/>
<rect x="148.633" y="87.625" width="30.875" height="8.9375" rx="4" transform="rotate(90 148.633 87.625)" fill="#707070"/>
<path d="M102 34.0186C102 34.0186 111 34.0186 111 20.543C111 20.543 111 34.0186 120 34.0186C120 34.0186 111 34.0186 111 47.4943C110.951 47.4943 110.951 34.0186 102 34.0186Z" fill="white"/>
<path d="M54 157.043C54 157.043 59.6769 157.043 59.6769 148.543C59.6769 148.543 59.6769 157.043 65.3538 157.043C65.3538 157.043 59.6769 157.043 59.6769 165.543C59.6462 165.543 59.6462 157.043 54 157.043Z" fill="white"/>
<rect x="86" y="72.543" width="22" height="35" rx="6" transform="rotate(90 86 72.543)" fill="white" fill-opacity="0.2"/>
<rect x="159" y="75.543" width="22" height="24" rx="6" transform="rotate(90 159 75.543)" fill="white" fill-opacity="0.2"/>
<path d="M169 79.543C171.209 79.543 173 81.3338 173 83.543L173 97.543C173 99.7521 171.209 101.543 169 101.543C166.791 101.543 165 99.7521 165 97.543L165 83.543C165 81.3338 166.791 79.543 169 79.543Z" fill="white" fill-opacity="0.2"/>
</g>
<circle cx="112" cy="175.543" r="10" fill="white"/>
<defs>
<linearGradient id="paint0_linear_1138_2204" x1="26.3226" y1="27.6123" x2="194.407" y2="37.9754" gradientUnits="userSpaceOnUse">
<stop stop-color="#636363"/>
<stop offset="1" stop-color="#686868"/>
</linearGradient>
<linearGradient id="paint1_linear_1138_2204" x1="186.75" y1="168.727" x2="18.729" y2="180.08" gradientUnits="userSpaceOnUse">
<stop stop-color="#636363"/>
<stop offset="1" stop-color="#686868"/>
</linearGradient>
<clipPath id="clip0_1138_2204">
<rect width="204" height="205" fill="white" transform="translate(0 0.707031)"/>
</clipPath>
</defs>
</svg>
