<svg width="204" height="204" viewBox="0 0 204 204" fill="none" xmlns="http://www.w3.org/2000/svg">
<path d="M204 102.01C204 103.647 203.981 105.245 203.886 106.863C203.277 119.598 200.326 131.742 195.453 142.84C179.825 178.493 144.363 203.543 103.133 203.981H102.01C58.0573 203.981 20.4819 176.037 6.18643 136.939C3.80704 130.467 2.0558 123.653 1.04693 116.61C0.342633 111.851 0 106.94 0 101.99C0 84.935 4.20677 68.8502 11.6115 54.7071C15.1139 48.0067 19.3397 41.7822 24.2127 36.0717C42.9624 14.0099 70.8489 0 101.99 0C148.227 0 187.363 30.9322 199.812 73.1712C202.553 82.3652 204 92.0161 204 102.01Z" fill="#552A80"/>
<path d="M172.669 28.3204C167.605 33.7498 161.439 38.1452 154.859 40.9109C137.43 47.3468 118.301 37.2464 101.983 42.4473C86.3673 47.8363 83.2774 66.5448 66.4103 70.832C57.3984 73.0018 50.6449 73.8677 41.7287 69.9597C34.5421 66.8775 30.1593 60.3522 22.8441 63.3668C16.6924 66.303 11.8683 75.7261 6.50662 80.0306C5.11 81.3425 3.61192 82.669 2.03583 83.9746C7.24262 55.4937 24.3881 29.4175 51.3575 13.8467C91.4185 -9.23855 140.768 -2.03516 172.669 28.3204Z" fill="url(#paint0_linear_1138_2126)" fill-opacity="0.25"/>
<path d="M151.406 80.5261C151.406 80.5261 153.458 80.5261 153.458 77.4297C153.458 77.4297 153.458 80.5261 155.51 80.5261C155.51 80.5261 153.458 80.5261 153.458 83.6224C153.477 83.6041 153.477 80.5261 151.406 80.5261Z" fill="white"/>
<path d="M118 26.5C118 26.5 123 26.5 123 19C123 19 123 26.5 128 26.5C128 26.5 123 26.5 123 34C123.045 33.9556 123.045 26.5 118 26.5Z" fill="white"/>
<path d="M14 88.5C14 88.5 19 88.5 19 81C19 81 19 88.5 24 88.5C24 88.5 19 88.5 19 96C19.0447 95.9556 19.0446 88.5 14 88.5Z" fill="white"/>
<path d="M40 102.501C40 102.501 43.5 102.501 43.5 97.0005C43.5 97.0005 43.5 102.501 47 102.501C47 102.501 43.5 102.501 43.5 108.001C43.5313 107.968 43.5313 102.501 40 102.501Z" fill="white"/>
<path d="M109.246 46.9358H60V134.936H159.85C159.963 130.758 160.122 121.804 159.85 119.406C159.51 116.41 155.095 112.595 151.359 110.688C148.371 109.162 141.057 107.873 137.774 107.419L109.246 103.605V46.9358Z" fill="#EAEAEA"/>
<path d="M109.996 103.705L109 104.436C122.833 106.936 150.6 113.736 151 120.936C151.256 125.551 151.253 130.824 151.173 134.936L159.85 134.936C159.963 130.758 160.122 121.804 159.85 119.406C159.51 116.41 155.095 112.595 151.359 110.688C148.371 109.162 141.057 107.873 137.774 107.419L109.996 103.705Z" fill="#A4A4A4"/>
<path d="M76.8359 135.319C77.5859 133.334 78 131.184 78 128.936C78 118.994 69.9375 110.936 60 110.936C59.8984 110.936 59.7969 110.938 59.6953 110.938V135.319H76.8359Z" fill="#A4A4A4"/>
<path d="M109 46.9358H60V42.9358L109 43.4358V46.9358Z" fill="#456197"/>
<path d="M57.5952 134.18V153.644H83.6964V146.936H87.1964L94.5015 153.644H164V134.18H57.5952Z" fill="#F6CE6E"/>
<path d="M108.97 85.9593H59.0297C58.461 85.9593 58 86.4203 58 86.9889V100.93C58 101.498 58.461 101.959 59.0297 101.959H108.97C109.539 101.959 110 101.498 110 100.93V86.9889C110 86.4203 109.539 85.9593 108.97 85.9593Z" fill="#A4A4A4"/>
<path d="M109.08 84.9593H59.0297C58.461 84.9593 58 85.4203 58 85.9889V99.2952C58 99.8638 58.461 100.325 59.0297 100.325H109.08C109.648 100.325 110.109 99.8638 110.109 99.2952V85.9889C110.109 85.4203 109.648 84.9593 109.08 84.9593Z" fill="#D9D9D9"/>
<path d="M108.97 56.9593H59.0297C58.461 56.9593 58 57.4203 58 57.9889V71.9296C58 72.4982 58.461 72.9593 59.0297 72.9593H108.97C109.539 72.9593 110 72.4982 110 71.9296V57.9889C110 57.4203 109.539 56.9593 108.97 56.9593Z" fill="#A4A4A4"/>
<path d="M109.08 55.9593H59.0297C58.461 55.9593 58 56.4203 58 56.9889V70.2952C58 70.8638 58.461 71.3248 59.0297 71.3248H109.08C109.648 71.3248 110.109 70.8638 110.109 70.2952V56.9889C110.109 56.4203 109.648 55.9593 109.08 55.9593Z" fill="#D9D9D9"/>
<path d="M84.1961 70.6441V57.9358C84.1961 55.1744 81.9575 52.9358 79.1961 52.9358H74.2734C71.512 52.9358 69.2734 55.1744 69.2734 57.9358V70.6441C69.2734 73.4056 71.512 75.6441 74.2734 75.6441H79.1961C81.9575 75.6441 84.1961 73.4056 84.1961 70.6441Z" fill="#F6CE6E"/>
<path d="M82.921 55.9584V68.6667C82.921 71.4282 80.6824 73.6667 77.921 73.6667H72.9984C71.6603 73.6667 70.445 73.1411 69.5476 72.2851C70.2269 74.2401 72.0855 75.6433 74.2718 75.6433H79.1945C81.9559 75.6433 84.1945 73.4047 84.1945 70.6433V57.935C84.1945 56.5117 83.5997 55.2272 82.6452 54.3167C82.8239 54.8309 82.921 55.3833 82.921 55.9584Z" fill="#A4A4A4"/>
<path d="M84.1961 99.6676V86.9593C84.1961 84.1978 81.9575 81.9593 79.1961 81.9593H74.2734C71.512 81.9593 69.2734 84.1978 69.2734 86.9593V99.6676C69.2734 102.429 71.512 104.668 74.2734 104.668H79.1961C81.9575 104.668 84.1961 102.429 84.1961 99.6676Z" fill="#F6CE6E"/>
<path d="M82.921 84.9818V97.6902C82.921 100.452 80.6824 102.69 77.921 102.69H72.9984C71.6603 102.69 70.445 102.165 69.5476 101.308C70.2269 103.263 72.0855 104.667 74.2718 104.667H79.1945C81.9559 104.667 84.1945 102.428 84.1945 99.6667V86.9584C84.1945 85.5351 83.5997 84.2507 82.6452 83.3401C82.8239 83.8543 82.921 84.4068 82.921 84.9818Z" fill="#A4A4A4"/>
<path d="M55 42.9358C55 42.3835 55.4477 41.9358 56 41.9358H112.393C112.945 41.9358 113.393 42.3835 113.393 42.9358V47.4239C113.393 47.9762 112.945 48.4239 112.393 48.4239H56C55.4477 48.4239 55 47.9762 55 47.4239V42.9358Z" fill="#F6CE6E"/>
<path d="M189.719 153.936C172.102 183.551 139.906 203.526 103.133 203.916H102.008C64.7656 203.916 32.1016 183.85 14.2969 153.936H189.719Z" fill="#461976"/>
<path d="M68 169.436C68 174.683 63.7467 178.936 58.5 178.936C53.2533 178.936 49 174.683 49 169.436C49 164.189 53.2533 159.936 58.5 159.936C63.7467 159.936 68 164.189 68 169.436Z" fill="#461976"/>
<path d="M112 173.936C112 181.668 105.732 187.936 98 187.936C90.268 187.936 84 181.668 84 173.936C84 166.204 90.268 159.936 98 159.936C105.732 159.936 112 166.204 112 173.936Z" fill="#461976"/>
<path d="M136 185.936C136 189.802 132.866 192.936 129 192.936C125.134 192.936 122 189.802 122 185.936C122 182.07 125.134 178.936 129 178.936C132.866 178.936 136 182.07 136 185.936Z" fill="#461976"/>
<path d="M139 165.936C139 169.802 135.866 172.936 132 172.936C128.134 172.936 125 169.802 125 165.936C125 162.07 128.134 158.936 132 158.936C135.866 158.936 139 162.07 139 165.936Z" fill="#461976"/>
<path d="M171 165.936C171 171.459 166.523 175.936 161 175.936C155.477 175.936 151 171.459 151 165.936C151 160.413 155.477 155.936 161 155.936C166.523 155.936 171 160.413 171 165.936Z" fill="#461976"/>
<defs>
<linearGradient id="paint0_linear_1138_2126" x1="0.00309593" y1="102.046" x2="204.008" y2="102.046" gradientUnits="userSpaceOnUse">
<stop stop-color="#E559BD"/>
<stop offset="1" stop-color="#9765E5"/>
</linearGradient>
</defs>
</svg>
