<svg width="204" height="205" viewBox="0 0 204 205" fill="none" xmlns="http://www.w3.org/2000/svg">
<path d="M204 102.717C204 104.354 203.981 105.953 203.886 107.571C203.277 120.305 200.326 132.45 195.453 143.547C179.825 179.2 144.363 204.25 103.133 204.688H102.01C58.0573 204.688 20.4819 176.744 6.18643 137.646C3.80704 131.174 2.0558 124.36 1.04693 117.317C0.342633 112.558 0 107.647 0 102.698C0 85.642 4.20677 69.5573 11.6115 55.4141C15.1139 48.7137 19.3397 42.4893 24.2127 36.7787C42.9624 14.7169 70.8489 0.707031 101.99 0.707031C148.227 0.707031 187.363 31.6392 199.812 73.8783C202.553 83.0723 204 92.7231 204 102.717Z" fill="#555555"/>
<path d="M172.669 29.0275C167.605 34.4568 161.439 38.8522 154.859 41.618C137.43 48.0539 118.301 37.9535 101.983 43.1543C86.3673 48.5433 83.2774 67.2518 66.4103 71.539C57.3984 73.7088 50.6449 74.5747 41.7287 70.6667C34.5421 67.5845 30.1593 61.0592 22.8441 64.0738C16.6924 67.01 11.8683 76.4332 6.50662 80.7376C5.11 82.0495 3.61192 83.376 2.03583 84.6816C7.24262 56.2007 24.3881 30.1245 51.3575 14.5537C91.4185 -8.53152 140.768 -1.32813 172.669 29.0275Z" fill="url(#paint0_linear_1138_2127)" fill-opacity="0.25"/>
<path d="M151.406 81.2331C151.406 81.2331 153.458 81.2331 153.458 78.1367C153.458 78.1367 153.458 81.2331 155.51 81.2331C155.51 81.2331 153.458 81.2331 153.458 84.3295C153.477 84.3112 153.477 81.2331 151.406 81.2331Z" fill="white"/>
<path d="M118 27.207C118 27.207 123 27.207 123 19.707C123 19.707 123 27.207 128 27.207C128 27.207 123 27.207 123 34.707C123.045 34.6626 123.045 27.207 118 27.207Z" fill="white"/>
<path d="M14 89.2071C14 89.2071 19 89.207 19 81.7071C19 81.7071 19 89.2071 24 89.2071C24 89.2071 19 89.2071 19 96.7071C19.0447 96.6627 19.0446 89.2071 14 89.2071Z" fill="white"/>
<path d="M40 103.208C40 103.208 43.5 103.208 43.5 97.7076C43.5 97.7076 43.5 103.208 47 103.208C47 103.208 43.5 103.208 43.5 108.708C43.5313 108.675 43.5313 103.208 40 103.208Z" fill="white"/>
<path d="M109.246 47.6428H60V135.643H159.85C159.963 131.465 160.122 122.511 159.85 120.113C159.51 117.117 155.095 113.302 151.359 111.395C148.371 109.869 141.057 108.58 137.774 108.126L109.246 104.312V47.6428Z" fill="#EAEAEA"/>
<path d="M109.996 104.412L109 105.143C122.833 107.643 150.6 114.443 151 121.643C151.256 126.258 151.253 131.531 151.173 135.643L159.85 135.643C159.963 131.465 160.122 122.511 159.85 120.113C159.51 117.117 155.095 113.302 151.359 111.395C148.371 109.869 141.057 108.58 137.774 108.126L109.996 104.412Z" fill="#A4A4A4"/>
<path d="M76.8359 136.026C77.5859 134.041 78 131.891 78 129.643C78 119.701 69.9375 111.643 60 111.643C59.8984 111.643 59.7969 111.645 59.6953 111.645V136.026H76.8359Z" fill="#A4A4A4"/>
<path d="M109 47.6428H60V43.6428L109 44.1428V47.6428Z" fill="#6E6E6E"/>
<path d="M57.5952 134.887V154.351H83.6964V147.643H87.1964L94.5015 154.351H164V134.887H57.5952Z" fill="#B2B2B2"/>
<path d="M108.97 86.6663H59.0297C58.461 86.6663 58 87.1273 58 87.696V101.637C58 102.205 58.461 102.666 59.0297 102.666H108.97C109.539 102.666 110 102.205 110 101.637V87.696C110 87.1273 109.539 86.6663 108.97 86.6663Z" fill="#A4A4A4"/>
<path d="M109.08 85.6663H59.0297C58.461 85.6663 58 86.1273 58 86.696V100.002C58 100.571 58.461 101.032 59.0297 101.032H109.08C109.648 101.032 110.109 100.571 110.109 100.002V86.696C110.109 86.1273 109.648 85.6663 109.08 85.6663Z" fill="#D9D9D9"/>
<path d="M108.97 57.6663H59.0297C58.461 57.6663 58 58.1273 58 58.696V72.6366C58 73.2053 58.461 73.6663 59.0297 73.6663H108.97C109.539 73.6663 110 73.2053 110 72.6366V58.696C110 58.1273 109.539 57.6663 108.97 57.6663Z" fill="#A4A4A4"/>
<path d="M109.08 56.6663H59.0297C58.461 56.6663 58 57.1273 58 57.696V71.0022C58 71.5709 58.461 72.0319 59.0297 72.0319H109.08C109.648 72.0319 110.109 71.5709 110.109 71.0022V57.696C110.109 57.1273 109.648 56.6663 109.08 56.6663Z" fill="#D9D9D9"/>
<path d="M84.1961 71.3512V58.6428C84.1961 55.8814 81.9575 53.6428 79.1961 53.6428H74.2734C71.512 53.6428 69.2734 55.8814 69.2734 58.6428V71.3512C69.2734 74.1126 71.512 76.3512 74.2734 76.3512H79.1961C81.9575 76.3512 84.1961 74.1126 84.1961 71.3512Z" fill="#B2B2B2"/>
<path d="M82.921 56.6654V69.3738C82.921 72.1352 80.6824 74.3738 77.921 74.3738H72.9984C71.6603 74.3738 70.445 73.8481 69.5476 72.9921C70.2269 74.9471 72.0855 76.3503 74.2718 76.3503H79.1945C81.9559 76.3503 84.1945 74.1118 84.1945 71.3503V58.642C84.1945 57.2187 83.5997 55.9343 82.6452 55.0237C82.8239 55.5379 82.921 56.0904 82.921 56.6654Z" fill="#A4A4A4"/>
<path d="M84.1961 100.375V87.6663C84.1961 84.9049 81.9575 82.6663 79.1961 82.6663H74.2734C71.512 82.6663 69.2734 84.9049 69.2734 87.6663V100.375C69.2734 103.136 71.512 105.375 74.2734 105.375H79.1961C81.9575 105.375 84.1961 103.136 84.1961 100.375Z" fill="#B2B2B2"/>
<path d="M82.921 85.6889V98.3972C82.921 101.159 80.6824 103.397 77.921 103.397H72.9984C71.6603 103.397 70.445 102.872 69.5476 102.016C70.2269 103.971 72.0855 105.374 74.2718 105.374H79.1945C81.9559 105.374 84.1945 103.135 84.1945 100.374V87.6654C84.1945 86.2421 83.5997 84.9577 82.6452 84.0471C82.8239 84.5614 82.921 85.1138 82.921 85.6889Z" fill="#A4A4A4"/>
<path d="M55 43.6428C55 43.0906 55.4477 42.6428 56 42.6428H112.393C112.945 42.6428 113.393 43.0906 113.393 43.6428V48.1309C113.393 48.6832 112.945 49.1309 112.393 49.1309H56C55.4477 49.1309 55 48.6832 55 48.1309V43.6428Z" fill="#B2B2B2"/>
<path d="M189.719 154.643C172.102 184.258 139.906 204.233 103.133 204.623H102.008C64.7656 204.623 32.1016 184.557 14.2969 154.643H189.719Z" fill="#484848"/>
<path d="M68 170.143C68 175.39 63.7467 179.643 58.5 179.643C53.2533 179.643 49 175.39 49 170.143C49 164.896 53.2533 160.643 58.5 160.643C63.7467 160.643 68 164.896 68 170.143Z" fill="#484848"/>
<path d="M112 174.643C112 182.375 105.732 188.643 98 188.643C90.268 188.643 84 182.375 84 174.643C84 166.911 90.268 160.643 98 160.643C105.732 160.643 112 166.911 112 174.643Z" fill="#484848"/>
<path d="M136 186.643C136 190.509 132.866 193.643 129 193.643C125.134 193.643 122 190.509 122 186.643C122 182.777 125.134 179.643 129 179.643C132.866 179.643 136 182.777 136 186.643Z" fill="#484848"/>
<path d="M139 166.643C139 170.509 135.866 173.643 132 173.643C128.134 173.643 125 170.509 125 166.643C125 162.777 128.134 159.643 132 159.643C135.866 159.643 139 162.777 139 166.643Z" fill="#484848"/>
<path d="M171 166.643C171 172.166 166.523 176.643 161 176.643C155.477 176.643 151 172.166 151 166.643C151 161.12 155.477 156.643 161 156.643C166.523 156.643 171 161.12 171 166.643Z" fill="#484848"/>
<defs>
<linearGradient id="paint0_linear_1138_2127" x1="0.00309593" y1="102.753" x2="204.008" y2="102.753" gradientUnits="userSpaceOnUse">
<stop stop-color="#9F9F9F"/>
<stop offset="1" stop-color="#A5A5A5"/>
</linearGradient>
</defs>
</svg>
