<svg width="204" height="205" viewBox="0 0 204 205" fill="none" xmlns="http://www.w3.org/2000/svg">
<path d="M204 102.717C204 104.354 203.981 105.953 203.886 107.571C203.277 120.305 200.326 132.45 195.453 143.547C179.825 179.2 144.363 204.25 103.133 204.688H102.01C58.0573 204.688 20.4819 176.744 6.18643 137.646C3.80704 131.174 2.0558 124.36 1.04693 117.317C0.342633 112.558 0 107.647 0 102.698C0 85.642 4.20677 69.5573 11.6115 55.4141C15.1139 48.7137 19.3397 42.4893 24.2127 36.7787C42.9624 14.7169 70.8489 0.707031 101.99 0.707031C148.227 0.707031 187.363 31.6392 199.812 73.8783C202.553 83.0723 204 92.7231 204 102.717Z" fill="#555555"/>
<g opacity="0.2">
<path fill-rule="evenodd" clip-rule="evenodd" d="M203.886 107.569C203.981 105.951 204 104.352 204 102.715C204 95.5213 203.25 88.5056 201.808 81.71C197.589 84.2176 193.804 87.5731 190.721 91.3961C188 94.6025 186.42 98.234 184.832 101.885C183.661 104.576 182.486 107.278 180.846 109.828C178.039 114.211 176.597 114.023 173.363 113.6C172.163 113.443 170.717 113.254 168.863 113.254C161.168 113.254 155.598 115.819 151.293 122.653C150.106 124.513 149.319 126.907 148.539 129.283C147.343 132.922 146.162 136.517 143.579 138.08C141.284 139.453 137.759 139.965 134.26 140.473C131.224 140.914 128.206 141.353 126.027 142.349C117.874 144.932 115.309 149.641 112.726 157.757C112.32 159.389 112.084 160.827 111.874 162.111C111.202 166.219 110.786 168.756 105.873 171.059C103.513 171.959 101 172.399 98.4987 172.838C95.098 173.433 91.7166 174.026 88.7609 175.767C83.6125 178.772 80.791 182.675 78.8672 187.255H158.992C174.919 176.485 187.655 161.335 195.453 143.545C200.326 132.448 203.277 120.303 203.886 107.569Z" fill="url(#paint0_linear_1138_1935)"/>
</g>
<g opacity="0.2">
<path fill-rule="evenodd" clip-rule="evenodd" d="M150.783 24.5962C155.015 24.358 158.441 22.6541 161.3 20.1623C160.89 19.7371 160.477 19.3157 160.059 18.8984C143.571 7.43431 123.553 0.707031 101.99 0.707031C70.8489 0.707031 42.9624 14.7169 24.2127 36.7787C19.3397 42.4893 15.1139 48.7137 11.6115 55.4141C4.20677 69.5573 0 85.642 0 102.698C0 107.647 0.342633 112.558 1.04693 117.317C2.0558 124.36 3.80704 131.174 6.18643 137.646C6.98539 139.831 7.85706 141.982 8.7985 144.094C12.8272 138.151 15.9793 131.6 18.0609 125.732C21.597 127.033 24.8949 127.619 27.9546 127.619C47.7969 127.619 57.5624 102.83 54.7775 83.8668C58.1304 85.131 61.2451 85.6989 64.1032 85.6989C83.4326 85.6989 92.6301 60.1036 96.0013 43.2843C99.6615 43.004 102.709 43.9561 105.733 44.9009C109.627 46.1174 113.482 47.3217 118.555 45.8676C126.947 43.9255 132.095 38.7772 136.602 31.6867C139.684 26.451 140.41 24.7465 141.594 24.324C142.888 23.8623 144.728 24.931 150.783 24.5962Z" fill="url(#paint1_linear_1138_1935)"/>
</g>
<path d="M105.359 156.143L82.8413 173.769L59.0781 160.998L70.6757 141.449L105.359 156.143Z" fill="#343434"/>
<path fill-rule="evenodd" clip-rule="evenodd" d="M164.598 183.183C147.581 196.449 126.264 204.442 103.132 204.688H102.009C74.4163 204.688 49.3371 193.675 30.9531 175.803L50.5703 156.434L59.0715 160.996L82.8347 173.767L105.352 156.141L123.417 141.979L164.598 183.183Z" fill="#484848"/>
<path d="M146.602 104.567C118.075 91.3385 95.2096 127.029 66.6828 113.801C64.5941 95.6807 62.4871 77.5606 60.3984 59.4405C88.9253 72.6687 111.791 36.9781 140.318 50.2064C142.425 68.3265 144.513 86.4466 146.602 104.567Z" fill="#8D8D8D"/>
<path opacity="0.1" d="M90.7783 86.2387C98.7321 81.8657 102.773 73.943 99.804 68.5429C96.835 63.1429 87.9804 62.3103 80.0266 66.6834C72.0728 71.0565 68.0319 78.9792 71.0009 84.3792C73.9699 89.7793 82.8246 90.6118 90.7783 86.2387Z" fill="white"/>
<path opacity="0.1" d="M77.9931 75.1379C81.673 73.1147 83.5416 69.4475 82.1668 66.947C80.7919 64.4464 76.6943 64.0595 73.0145 66.0827C69.3347 68.106 67.4661 71.7732 68.8409 74.2737C70.2157 76.7742 74.3133 77.1611 77.9931 75.1379Z" fill="white"/>
<g opacity="0.15">
<path d="M146.603 104.569C118.077 91.322 95.1928 127.013 66.666 113.803C66.5378 112.722 66.4095 111.659 66.2812 110.578C94.5516 121.479 117.838 89.3616 145.98 99.2736C146.2 101.051 146.402 102.791 146.603 104.569Z" fill="black"/>
</g>
<path d="M71.9451 152.277C71.3039 152.277 70.7542 151.801 70.6626 151.141L59.12 55.5203C59.0284 54.8057 59.5414 54.1645 60.2376 54.0912C60.9521 54.0179 61.5934 54.5126 61.6667 55.2088L73.2093 150.83C73.3009 151.544 72.7879 152.185 72.0917 152.259C72.0367 152.277 71.9818 152.277 71.9451 152.277Z" fill="white"/>
<path opacity="0.4" fill-rule="evenodd" clip-rule="evenodd" d="M153.833 190.524C138.936 199.35 121.613 204.492 103.132 204.688H102.008C96.4645 204.688 91.022 204.243 85.7148 203.388L125.017 168.527L116.699 197.842L139.674 180.894L153.833 190.524Z" fill="#343434"/>
<path opacity="0.4" fill-rule="evenodd" clip-rule="evenodd" d="M36.7068 180.99C34.7239 179.334 32.8045 177.604 30.9531 175.804L50.5696 156.436L51.2068 191.116C50.7432 190.849 50.2819 190.578 49.8229 190.304L37.0299 180.767L36.7068 180.99Z" fill="#343434"/>
<path d="M47.0078 90.9811C47.0078 90.9811 49.0598 90.9811 49.0598 87.8848C49.0598 87.8848 49.0598 90.9811 51.1119 90.9811C51.1119 90.9811 49.0598 90.9811 49.0598 94.0775C49.0782 94.0775 49.0782 90.9811 47.0078 90.9811Z" fill="white"/>
<path d="M108.609 117.307C108.609 117.307 110.661 117.307 110.661 114.211C110.661 114.211 110.661 117.307 112.713 117.307C112.713 117.307 110.661 117.307 110.661 120.404C110.68 120.404 110.68 117.307 108.609 117.307Z" fill="white"/>
<path d="M157.219 148.143C157.219 148.143 159.271 148.143 159.271 145.047C159.271 145.047 159.271 148.143 161.323 148.143C161.323 148.143 159.271 148.143 159.271 151.24C159.289 151.221 159.289 148.143 157.219 148.143Z" fill="white"/>
<path d="M25.5469 58.9538C25.5469 58.9538 27.5989 58.9538 27.5989 55.8574C27.5989 55.8574 27.5989 58.9538 29.6509 58.9538C29.6509 58.9538 27.5989 58.9538 27.5989 62.0501C27.5989 62.0501 27.5989 58.9538 25.5469 58.9538Z" fill="white"/>
<path d="M91.6484 28.1181C91.6484 28.1181 95.038 28.1181 95.038 23.043C95.038 23.043 95.0379 28.1181 98.4275 28.1181C98.4275 28.1181 95.038 28.1181 95.038 33.1932C95.0196 33.1932 95.0196 28.1181 91.6484 28.1181Z" fill="white"/>
<path d="M22.1562 144.661C22.1562 144.661 25.5458 144.661 25.5458 139.586C25.5458 139.586 25.5458 144.661 28.9353 144.661C28.9353 144.661 25.5458 144.661 25.5458 149.736C25.5458 149.736 25.5458 144.661 22.1562 144.661Z" fill="white"/>
<path d="M163.102 62.0497C163.102 62.0497 166.491 62.0497 166.491 56.9746C166.491 56.9746 166.491 62.0497 169.881 62.0497C169.881 62.0497 166.491 62.0497 166.491 67.1248C166.473 67.1248 166.473 62.0497 163.102 62.0497Z" fill="white"/>
<defs>
<linearGradient id="paint0_linear_1138_1935" x1="78.8608" y1="133.439" x2="205.955" y2="133.439" gradientUnits="userSpaceOnUse">
<stop stop-color="#9F9F9F"/>
<stop offset="1" stop-color="#A5A5A5"/>
</linearGradient>
<linearGradient id="paint1_linear_1138_1935" x1="-0.168079" y1="73.1263" x2="161.303" y2="73.1263" gradientUnits="userSpaceOnUse">
<stop stop-color="#9F9F9F"/>
<stop offset="1" stop-color="#A5A5A5"/>
</linearGradient>
</defs>
</svg>
