<svg width="205" height="206" viewBox="0 0 205 206" fill="none" xmlns="http://www.w3.org/2000/svg">
<path d="M204.011 103.327C204.011 104.964 203.992 106.563 203.897 108.181C203.288 120.916 200.338 133.06 195.465 144.158C179.837 179.811 144.374 204.861 103.144 205.299H102.021C58.0688 205.299 20.4933 177.355 6.1979 138.257C3.8185 131.785 2.06727 124.97 1.0584 117.927C0.354099 113.169 0.0114663 108.258 0.0114663 103.308C0.0114663 86.2528 4.21824 70.1681 11.6229 56.025C15.1254 49.3246 19.3512 43.1001 24.2242 37.3895C42.9739 15.3278 70.8604 1.31788 102.002 1.31788C148.238 1.31788 187.375 32.25 199.824 74.4891C202.565 83.6831 204.011 93.3339 204.011 103.327Z" fill="#555555"/>
<path d="M151.932 13.0896C148.446 19.6446 143.628 25.4862 137.988 29.8606C122.819 40.5882 101.727 35.783 87.3114 45.0299C73.6227 54.2769 75.4802 73.1477 60.2974 81.6544C52.1541 86.0827 45.8549 88.667 36.2311 87.1998C28.4916 86.0827 22.5693 80.9141 16.2835 85.7192C11.1014 90.1476 8.88055 100.498 4.81566 106.044C3.80617 107.672 2.70246 109.341 1.51798 111.01C-0.824038 82.1524 8.98823 52.5271 31.0086 30.5067C63.7297 -2.16047 113.262 -7.97515 151.932 13.0896Z" fill="url(#paint0_linear_1138_2152)" fill-opacity="0.25"/>
<path d="M78.0614 202.584C79.7322 195.35 82.8747 188.461 87.1901 182.776C99.066 168.488 120.683 167.67 132.214 155.007C143.043 142.532 136.364 124.785 148.828 112.639C155.548 106.254 160.964 102.127 170.639 101.054C178.404 100.13 185.462 103.589 190.29 97.3209C194.15 91.7023 193.616 81.1295 196.107 74.7209C196.661 72.8865 197.295 70.9887 198.007 69.07C207.738 96.3385 205.928 127.494 190.357 154.463C167.206 194.486 120.866 212.923 78.0614 202.584Z" fill="url(#paint1_linear_1138_2152)" fill-opacity="0.25"/>
<path fill-rule="evenodd" clip-rule="evenodd" d="M181.049 71.8749C183.506 73.7614 183.967 77.2819 182.081 79.7382L127.928 150.248C126.042 152.704 122.521 153.166 120.065 151.279C117.609 149.393 117.147 145.872 119.033 143.416L173.186 72.9067C175.072 70.4504 178.593 69.9885 181.049 71.8749Z" fill="white" fill-opacity="0.2"/>
<path fill-rule="evenodd" clip-rule="evenodd" d="M123.373 14.0389C125.74 16.0362 126.04 19.5742 124.043 21.9413L96.1066 55.0478C94.1093 57.4148 90.5713 57.7145 88.2043 55.7171C85.8372 53.7198 85.5375 50.1818 87.5349 47.8148L115.471 14.7083C117.468 12.3412 121.006 12.0415 123.373 14.0389Z" fill="white" fill-opacity="0.6"/>
<path fill-rule="evenodd" clip-rule="evenodd" d="M55.5282 113.038C57.8952 115.036 58.1949 118.574 56.1975 120.941L28.2617 154.047C26.2643 156.414 22.7263 156.714 20.3593 154.717C17.9922 152.719 17.6926 149.181 19.6899 146.814L47.6258 113.708C49.6231 111.341 53.1611 111.041 55.5282 113.038Z" fill="white" fill-opacity="0.15"/>
<path fill-rule="evenodd" clip-rule="evenodd" d="M0.62478 114.687C0.205316 110.955 -1.52719e-07 107.146 0 103.315C6.85157e-08 101.487 0.0483228 99.6705 0.143726 97.866L14.6221 80.7078C16.6195 78.3408 20.1575 78.0411 22.5245 80.0385C24.8915 82.0358 25.1912 85.5738 23.1939 87.9408L0.62478 114.687Z" fill="white" fill-opacity="0.6"/>
<path fill-rule="evenodd" clip-rule="evenodd" d="M83.0816 63.0485C85.4765 65.0123 85.826 68.5457 83.8622 70.9407L81.5413 73.7711C79.5775 76.166 76.0441 76.5155 73.6491 74.5517C71.2542 72.5879 70.9047 69.0544 72.8685 66.6595L75.1895 63.8291C77.1533 61.4342 80.6867 61.0847 83.0816 63.0485Z" fill="white" fill-opacity="0.8"/>
<path fill-rule="evenodd" clip-rule="evenodd" d="M186.316 111.985C188.711 113.948 189.061 117.482 187.097 119.877L177.04 132.142C175.076 134.537 171.543 134.886 169.148 132.923C166.753 130.959 166.403 127.425 168.367 125.03L178.424 112.765C180.388 110.37 183.922 110.021 186.316 111.985Z" fill="white" fill-opacity="0.6"/>
<path fill-rule="evenodd" clip-rule="evenodd" d="M165.512 138.316C167.907 140.28 168.257 143.814 166.293 146.208L163.972 149.039C162.008 151.434 158.475 151.783 156.08 149.819C153.685 147.856 153.335 144.322 155.299 141.927L157.62 139.097C159.584 136.702 163.117 136.352 165.512 138.316Z" fill="white" fill-opacity="0.4"/>
<path fill-rule="evenodd" clip-rule="evenodd" d="M153.137 153.412C155.532 155.376 155.882 158.909 153.918 161.304L151.597 164.135C149.633 166.529 146.1 166.879 143.705 164.915C141.31 162.951 140.96 159.418 142.924 157.023L145.245 154.193C147.209 151.798 150.742 151.448 153.137 153.412Z" fill="white" fill-opacity="0.15"/>
<path fill-rule="evenodd" clip-rule="evenodd" d="M114.66 157.592C117.055 159.555 117.405 163.089 115.441 165.484L113.12 168.314C111.156 170.709 107.623 171.059 105.228 169.095C102.833 167.131 102.483 163.598 104.447 161.203L106.768 158.372C108.732 155.977 112.265 155.628 114.66 157.592Z" fill="white" fill-opacity="0.6"/>
<path fill-rule="evenodd" clip-rule="evenodd" d="M103.137 172.601C105.532 174.565 105.881 178.099 103.917 180.494L101.597 183.324C99.6328 185.719 96.0993 186.068 93.7044 184.105C91.3095 182.141 90.96 178.607 92.9238 176.212L95.2447 173.382C97.2085 170.987 100.742 170.638 103.137 172.601Z" fill="white" fill-opacity="0.4"/>
<path fill-rule="evenodd" clip-rule="evenodd" d="M65.0767 155.467C67.4717 157.431 67.8212 160.964 65.8573 163.359L63.5364 166.19C61.5726 168.585 58.0392 168.934 55.6442 166.97C53.2493 165.006 52.8998 161.473 54.8637 159.078L57.1846 156.248C59.1484 153.853 62.6818 153.503 65.0767 155.467Z" fill="white"/>
<path fill-rule="evenodd" clip-rule="evenodd" d="M47.1088 52.082C49.5037 54.0458 49.8532 57.5793 47.8894 59.9742L45.5685 62.8046C43.6046 65.1995 40.0712 65.549 37.6763 63.5852C35.2814 61.6214 34.9319 58.088 36.8957 55.693L39.2166 52.8626C41.1804 50.4677 44.7139 50.1182 47.1088 52.082Z" fill="white" fill-opacity="0.8"/>
<path fill-rule="evenodd" clip-rule="evenodd" d="M59.4916 36.9883C61.8865 38.9521 62.236 42.4855 60.2722 44.8804L57.9513 47.7109C55.9875 50.1058 52.454 50.4553 50.0591 48.4915C47.6642 46.5276 47.3147 42.9942 49.2785 40.5993L51.5994 37.7689C53.5632 35.3739 57.0967 35.0245 59.4916 36.9883Z" fill="white" fill-opacity="0.4"/>
<path fill-rule="evenodd" clip-rule="evenodd" d="M44.1356 85.9858C46.5305 87.9496 46.88 91.483 44.9162 93.8779L42.5953 96.7084C40.6315 99.1033 37.098 99.4528 34.7031 97.489C32.3082 95.5252 31.9587 91.9917 33.9225 89.5968L36.2434 86.7664C38.2072 84.3714 41.7407 84.022 44.1356 85.9858Z" fill="white" fill-opacity="0.7"/>
<path d="M125.655 73.7252C127.433 73.2261 129.18 74.609 129.103 76.4542L126.048 149.106C125.955 151.323 123.388 152.498 121.649 151.122L54.6929 98.1213C52.9536 96.7445 53.5089 93.9763 55.6446 93.3768L125.655 73.7252Z" fill="#A5A5A5"/>
<path d="M134.108 104.114C132.035 106.732 130.013 109.137 128.064 111.315L98.0483 147.309L80.7908 133.937L63.8418 120.232L91.9391 82.7349C93.6195 80.3288 95.4951 77.8083 97.5679 75.1897C101.452 70.2834 105.411 66.1691 109.321 62.7779C113.09 59.4698 116.813 56.8428 120.367 54.6942C120.889 54.3749 121.396 54.074 121.922 53.7876C122.429 53.4867 122.947 53.2095 123.458 52.9415C123.962 52.6827 124.457 52.4167 124.96 52.1578C125.466 51.9155 125.955 51.6751 126.446 51.4511C126.682 51.3236 126.928 51.2198 127.173 51.0996C127.37 51.0016 127.562 50.9292 127.768 50.8385C128.3 50.6015 128.824 50.3737 129.331 50.1478C130.279 49.7623 131.214 49.4116 132.109 49.0739C132.767 48.8472 133.399 48.6152 134.011 48.4272C134.252 48.3491 134.493 48.271 134.742 48.1837L134.76 48.1982C135.186 48.057 135.606 47.9413 136.025 47.8092C137.267 47.4478 138.452 47.1598 139.567 46.9217C139.94 46.8282 140.307 46.7605 140.665 46.6854L140.684 46.6999C140.766 46.6904 140.846 46.6643 140.936 46.6456C141.669 46.4936 142.366 46.3875 143.03 46.2852C143.15 46.2462 143.291 46.2381 143.439 46.2209C143.503 46.1968 143.578 46.1964 143.651 46.1795L143.67 46.1941C143.98 46.1412 144.277 46.1068 144.582 46.0796C145.166 46.0033 145.692 45.9421 146.197 45.9083C146.933 45.8478 147.571 45.8152 148.12 45.8014C149.679 45.7202 150.556 45.8017 150.556 45.8017C150.556 45.8017 150.716 46.3169 150.939 47.3004C150.958 47.3899 150.984 47.4703 151.014 47.5836C151.029 47.7153 151.05 47.8214 151.072 47.9439C151.147 48.3022 151.224 48.6769 151.298 49.0938C151.358 49.3955 151.413 49.7228 151.478 50.0738C151.666 51.3282 151.826 52.8446 151.91 54.5699C151.943 55.0748 151.97 55.5889 151.982 56.1214C152.097 60.3373 151.749 65.6664 150.328 71.8045C150.229 72.2497 150.122 72.6877 150.014 73.1256C149.916 73.5708 149.792 74.0107 149.661 74.4597C149.575 74.7951 149.481 75.1396 149.379 75.4769C149.221 76.0542 149.044 76.6169 148.853 77.198C147.6 81.1977 145.856 85.4214 143.513 89.8732C141.058 94.4464 137.985 99.2168 134.108 104.114Z" fill="white"/>
<path opacity="0.15" d="M125.942 94.3266C122.225 99.0233 115.395 99.8179 110.711 96.1104C110.516 95.9559 110.338 95.7935 110.163 95.613C109.078 94.6585 108.235 93.5045 107.658 92.2545C107.236 91.4235 106.956 90.5348 106.792 89.6325C106.227 86.7097 106.877 83.5629 108.826 81.021C108.854 80.9586 108.89 80.9131 108.931 80.861C111.676 77.3938 116.128 76.0608 120.16 77.1155C121.578 77.4761 122.949 78.1376 124.165 79.1006C125.421 80.0944 126.395 81.3099 127.072 82.6605C127.503 83.4785 127.818 84.3515 128.01 85.2445C128.323 86.6138 128.359 88.0389 128.132 89.4356C127.82 91.1786 127.106 92.8564 125.942 94.3266Z" fill="black"/>
<path d="M148.871 77.1196C146.267 77.973 138.333 79.6134 129.384 72.5296C120.444 65.4531 120.212 57.3636 120.418 54.6119C137.091 44.6307 150.599 45.7286 150.599 45.7286C150.599 45.7286 154.76 58.6164 148.871 77.1196Z" fill="#888888"/>
<path opacity="0.1" d="M151.404 49.4889C148.12 49.4454 134.482 51.4575 120.774 59.3921C120.315 57.31 120.342 55.6134 120.418 54.6119C137.075 44.6326 150.608 45.7358 150.608 45.7358C150.608 45.7358 151.031 47.0714 151.404 49.4889Z" fill="white"/>
<path d="M124.262 93.0054C121.275 96.7785 115.791 97.4106 112.031 94.4342C111.875 94.3107 111.736 94.1792 111.595 94.0361C110.726 93.2632 110.046 92.3441 109.586 91.3345C109.248 90.6651 109.024 89.9588 108.892 89.23C108.435 86.8793 108.963 84.3551 110.526 82.3127C110.544 82.2634 110.575 82.2243 110.606 82.1853C112.81 79.4011 116.389 78.3292 119.623 79.1754C120.761 79.4624 121.863 79.9957 122.838 80.7681C123.847 81.5663 124.633 82.5379 125.167 83.6275C125.515 84.2839 125.768 84.981 125.916 85.7019C126.168 86.8007 126.195 87.9434 126.013 89.069C125.769 90.4736 125.199 91.8215 124.262 93.0054Z" fill="#555555"/>
<path opacity="0.2" d="M125.169 83.6399L108.887 89.2372C108.43 86.8865 108.958 84.3623 110.521 82.32L119.618 79.1827C120.756 79.4697 121.857 80.003 122.833 80.7754C123.848 81.5787 124.634 82.5503 125.169 83.6399Z" fill="white"/>
<path opacity="0.2" d="M126.02 89.0736L111.589 94.0304C110.72 93.2574 110.04 92.3384 109.58 91.3288L125.923 85.6948C126.182 86.8104 126.209 87.9531 126.02 89.0736Z" fill="white"/>
<rect x="64.8672" y="124.23" width="37.1187" height="7.24266" rx="2.716" transform="rotate(38.3641 64.8672 124.23)" fill="#B8B8B8"/>
<rect x="64.8672" y="124.23" width="17.2013" height="7.24266" rx="2.716" transform="rotate(38.3641 64.8672 124.23)" fill="#898989"/>
<rect x="64.4844" y="118.154" width="45.7193" height="7.24266" rx="2.716" transform="rotate(38.3641 64.4844 118.154)" fill="#888888"/>
<rect x="64.4844" y="118.154" width="37.1187" height="6.33733" rx="2.50087" transform="rotate(38.3641 64.4844 118.154)" fill="#A5A5A5"/>
<path d="M53.4737 168.899C48.6711 165.098 55.5405 148.419 58.7084 144.417C61.8763 140.415 68.3377 140.253 73.1402 144.054C77.9427 147.856 79.2678 154.182 76.0999 158.184C72.9319 162.186 58.2762 172.701 53.4737 168.899Z" fill="#A0A0A0"/>
<path d="M58.5326 162.51C55.6903 160.261 61.0736 148.725 63.3365 145.866C65.5993 143.008 69.7378 142.514 72.5801 144.764C75.4224 147.014 75.8922 151.155 73.6294 154.014C71.3665 156.873 61.3749 164.76 58.5326 162.51Z" fill="#B9B9B9"/>
<defs>
<linearGradient id="paint0_linear_1138_2152" x1="0.00309611" y1="103.116" x2="204.02" y2="103.116" gradientUnits="userSpaceOnUse">
<stop stop-color="#9F9F9F"/>
<stop offset="1" stop-color="#A5A5A5"/>
</linearGradient>
<linearGradient id="paint1_linear_1138_2152" x1="0.00309611" y1="103.116" x2="204.02" y2="103.116" gradientUnits="userSpaceOnUse">
<stop stop-color="#9F9F9F"/>
<stop offset="1" stop-color="#A5A5A5"/>
</linearGradient>
</defs>
</svg>
