<svg width="204" height="204" viewBox="0 0 204 204" fill="none" xmlns="http://www.w3.org/2000/svg">
<path d="M204 102.01C204 103.647 203.981 105.245 203.886 106.863C203.277 119.598 200.326 131.742 195.453 142.84C179.825 178.493 144.363 203.543 103.133 203.981H102.01C58.0573 203.981 20.4819 176.037 6.18643 136.939C3.80704 130.467 2.0558 123.653 1.04693 116.61C0.342633 111.851 0 106.94 0 101.99C0 84.935 4.20677 68.8502 11.6115 54.7071C15.1139 48.0067 19.3397 41.7822 24.2127 36.0717C42.9624 14.0099 70.8489 0 101.99 0C148.227 0 187.363 30.9322 199.812 73.1712C202.553 82.3652 204 92.0161 204 102.01Z" fill="#552A80"/>
<g opacity="0.2">
<path d="M203.902 106.846C203.293 119.58 200.343 131.725 195.47 142.822C179.842 178.475 144.379 203.525 103.149 203.963H102.026C58.074 203.963 20.4985 176.02 6.20312 136.921C10.3528 137.645 14.6928 139.167 19.2993 141.68C43.3979 155.062 50.5361 160.43 71.9697 139.91C81.7918 130.963 90.7193 125.614 104.101 124.739C116.607 123.863 130.864 133.647 142.476 130.982C153.193 129.212 166.574 116.706 177.272 113.146C185.952 110.462 194.956 107.417 203.902 106.846Z" fill="url(#paint0_linear_1138_1832)"/>
</g>
<g opacity="0.2">
<path d="M199.85 73.1903C192.749 75.3603 185.211 76.0836 178.13 75.189C159.819 72.0481 148.302 53.7363 131.57 50.0816C115.352 46.9407 103.322 61.5978 86.5712 56.8771C77.6817 54.2503 71.4001 51.6234 65.6325 43.7809C60.9498 37.5183 60.4168 29.6758 52.5743 28.6289C45.7788 28.0959 36.8894 33.8446 30.0938 34.8915C28.2284 35.3293 26.2677 35.729 24.25 36.0717C42.9997 14.0099 70.8862 0 102.028 0C148.264 0.0380704 187.401 30.9512 199.85 73.1903Z" fill="url(#paint1_linear_1138_1832)"/>
</g>
<path opacity="0.4" d="M90.3654 72.5053L113.093 49.7773C113.093 49.7773 116.881 45.9893 120.669 49.7773C124.457 53.5653 120.669 57.3533 120.669 57.3533L105.517 72.5053C105.517 72.5053 101.729 76.2933 105.517 80.0813C109.305 83.8693 113.093 80.0813 113.093 80.0813L143.378 49.7773C143.378 49.7773 147.166 45.9893 150.954 49.7773C154.742 53.5653 150.954 57.3533 150.954 57.3533L128.226 80.0623C128.226 80.0623 124.438 83.8503 128.226 87.6383C132.014 91.4263 135.802 87.6383 135.802 87.6383L150.954 72.4863C150.954 72.4863 154.742 68.6983 158.53 72.4863C162.318 76.2743 158.53 80.0623 158.53 80.0623L128.226 110.366C128.226 110.366 124.438 114.154 128.226 117.942C132.014 121.73 135.802 117.942 135.802 117.942L181.239 72.5053C181.239 72.5053 185.027 68.7173 188.815 72.5053C188.815 72.5053 192.603 76.2933 188.815 80.0813C185.027 83.8503 109.286 159.591 109.286 159.591L56.2734 106.578L90.3654 72.5053Z" fill="#D23369"/>
<path opacity="0.4" d="M65.7344 112.271L96.0193 81.9863C96.0193 81.9863 99.8073 78.1983 103.595 81.9863C107.383 85.7743 103.595 89.5623 103.595 89.5623L72.3205 120.818L65.7344 112.271Z" fill="#F06292"/>
<path opacity="0.4" d="M83.2812 125.023L113.566 94.7382C113.566 94.7382 117.354 90.9502 121.142 94.7382C124.93 98.5262 121.142 102.314 121.142 102.314L89.8674 133.57L83.2812 125.023Z" fill="#F06292"/>
<path opacity="0.4" d="M86.5781 152.015L116.863 121.73C116.863 121.73 120.651 117.942 124.439 121.73C128.227 125.518 124.439 129.306 124.439 129.306L93.1833 160.562L86.5781 152.015Z" fill="#F06292"/>
<path d="M97.8383 167.418C116.793 159.101 125.417 136.992 117.099 118.037C108.782 99.0827 86.6739 90.4592 67.7191 98.7764C48.7643 107.094 40.1408 129.202 48.458 148.157C56.7752 167.111 78.8835 175.735 97.8383 167.418Z" fill="#F06292"/>
<g opacity="0.15">
<path d="M109.308 106.577C123.946 121.215 123.946 144.952 109.308 159.59C100.571 168.327 88.5598 171.848 77.1767 170.135C84.7717 168.974 92.0813 165.453 97.9441 159.59C112.582 144.952 112.582 121.215 97.9441 106.577C92.0813 100.714 84.7337 97.1925 77.0625 96.0314C88.4646 94.2801 100.514 97.7826 109.308 106.577Z" fill="black"/>
</g>
<path opacity="0.4" d="M71.3214 46.3696C68.371 49.32 21.4112 96.2798 1.06256 116.628C0.358258 111.87 0.015625 106.959 0.015625 102.009C0.015625 84.9539 4.2224 68.8692 11.6271 54.726C15.1105 57.1435 18.2894 53.9456 18.2894 53.9456L33.4414 38.7936C33.4414 38.7936 37.2104 34.9865 41.0174 38.7936C44.7864 42.5625 41.0174 46.3696 41.0174 46.3696L10.7324 76.6546C10.7324 76.6546 6.96346 80.4235 10.7324 84.2306C14.5395 87.9995 18.3084 84.2306 18.3084 84.2306L63.7454 38.7936C63.7454 38.7936 67.5524 34.9865 71.3214 38.7936C71.3214 38.7936 75.1094 42.5625 71.3214 46.3696Z" fill="#F06292"/>
<path opacity="0.4" d="M195.461 142.839C179.833 178.491 144.371 203.542 103.141 203.98L160.189 147.788L182.917 125.079C182.917 125.079 186.686 121.272 190.474 125.079C194.281 128.848 190.474 132.655 190.474 132.655L175.341 147.788C175.341 147.788 171.534 151.595 175.341 155.364C179.11 159.133 182.917 155.364 182.917 155.364L195.461 142.839Z" fill="#F06292"/>
<path d="M69.2131 38.7973C72.2303 38.7973 74.6762 36.3514 74.6762 33.3342C74.6762 30.317 72.2303 27.8711 69.2131 27.8711C66.1959 27.8711 63.75 30.317 63.75 33.3342C63.75 36.3514 66.1959 38.7973 69.2131 38.7973Z" fill="white"/>
<path d="M74.6479 27.3759C76.6454 27.3759 78.2646 25.7567 78.2646 23.7593C78.2646 21.7618 76.6454 20.1426 74.6479 20.1426C72.6505 20.1426 71.0312 21.7618 71.0312 23.7593C71.0312 25.7567 72.6505 27.3759 74.6479 27.3759Z" fill="white"/>
<path d="M186.882 110.466C188.88 110.466 190.499 108.847 190.499 106.849C190.499 104.852 188.88 103.232 186.882 103.232C184.885 103.232 183.266 104.852 183.266 106.849C183.266 108.847 184.885 110.466 186.882 110.466Z" fill="white"/>
<path d="M28.0854 127.024C30.0829 127.024 31.7021 125.405 31.7021 123.408C31.7021 121.41 30.0829 119.791 28.0854 119.791C26.088 119.791 24.4688 121.41 24.4688 123.408C24.4688 125.405 26.088 127.024 28.0854 127.024Z" fill="white"/>
<path d="M20.6557 136.696C22.6532 136.696 24.2724 135.077 24.2724 133.08C24.2724 131.082 22.6532 129.463 20.6557 129.463C18.6583 129.463 17.0391 131.082 17.0391 133.08C17.0391 135.077 18.6583 136.696 20.6557 136.696Z" fill="white"/>
<path d="M59.4688 85.6056C59.4688 85.6056 61.6007 85.6056 61.6007 82.3887C61.6007 82.3887 61.6007 85.6056 63.7326 85.6056C63.7326 85.6056 61.6007 85.6056 61.6007 88.8226C61.6007 88.8226 61.6007 85.6056 59.4688 85.6056Z" fill="white"/>
<path d="M123.984 177.449C123.984 177.449 126.116 177.449 126.116 174.232C126.116 174.232 126.116 177.449 128.248 177.449C128.248 177.449 126.116 177.449 126.116 180.666C126.135 180.647 126.135 177.449 123.984 177.449Z" fill="white"/>
<path d="M118.289 38.797C118.289 38.797 120.421 38.797 120.421 35.5801C120.421 35.5801 120.421 38.797 122.553 38.797C122.553 38.797 120.421 38.797 120.421 42.014C120.421 42.014 120.421 38.797 118.289 38.797Z" fill="white"/>
<path d="M166.633 141.777C166.633 141.777 168.765 141.777 168.765 138.561C168.765 138.561 168.765 141.777 170.897 141.777C170.897 141.777 168.765 141.778 168.765 144.994C168.784 144.994 168.784 141.777 166.633 141.777Z" fill="white"/>
<path d="M29.8359 49.1349C29.8359 49.1349 31.9679 49.1349 31.9679 45.918C31.9679 45.918 31.9679 49.1349 34.0998 49.1349C34.0998 49.1349 31.9679 49.1349 31.9679 52.3519C31.9869 52.3519 31.9869 49.1349 29.8359 49.1349Z" fill="white"/>
<path d="M98.5156 17.097C98.5156 17.097 102.037 17.097 102.037 11.8242C102.037 11.8242 102.037 17.097 105.559 17.097C105.559 17.097 102.037 17.097 102.037 22.3697C102.037 22.3697 102.037 17.097 98.5156 17.097Z" fill="white"/>
<path d="M29.8359 155.425C29.8359 155.425 33.3574 155.425 33.3574 150.152C33.3574 150.152 33.3574 155.425 36.879 155.425C36.879 155.425 33.3574 155.425 33.3574 160.698C33.3574 160.698 33.3574 155.425 29.8359 155.425Z" fill="white"/>
<path d="M172.742 52.3489C172.742 52.3489 176.264 52.3489 176.264 47.0762C176.264 47.0762 176.264 52.3489 179.785 52.3489C179.785 52.3489 176.264 52.3489 176.264 57.6217C176.264 57.6217 176.264 52.3489 172.742 52.3489Z" fill="white"/>
<defs>
<linearGradient id="paint0_linear_1138_1832" x1="6.20617" y1="155.42" x2="203.898" y2="155.42" gradientUnits="userSpaceOnUse">
<stop stop-color="#E559BD"/>
<stop offset="1" stop-color="#9765E5"/>
</linearGradient>
<linearGradient id="paint1_linear_1138_1832" x1="24.2527" y1="37.8023" x2="199.857" y2="37.8023" gradientUnits="userSpaceOnUse">
<stop stop-color="#E559BD"/>
<stop offset="1" stop-color="#9765E5"/>
</linearGradient>
</defs>
</svg>
