<svg width="204" height="205" viewBox="0 0 204 205" fill="none" xmlns="http://www.w3.org/2000/svg">
<path d="M204 102.717C204 104.354 203.981 105.953 203.886 107.571C203.277 120.305 200.326 132.45 195.453 143.547C179.825 179.2 144.363 204.25 103.133 204.688H102.01C58.0573 204.688 20.4819 176.744 6.18643 137.646C3.80704 131.174 2.0558 124.36 1.04693 117.317C0.342633 112.558 0 107.647 0 102.698C0 85.642 4.20677 69.5573 11.6115 55.4141C15.1139 48.7137 19.3397 42.4893 24.2127 36.7787C42.9624 14.7169 70.8489 0.707031 101.99 0.707031C148.227 0.707031 187.363 31.6392 199.812 73.8783C202.553 83.0723 204 92.7231 204 102.717Z" fill="#555555"/>
<g opacity="0.2">
<path d="M203.902 107.553C203.293 120.287 200.343 132.432 195.47 143.529C179.842 179.182 144.379 204.232 103.149 204.67H102.026C58.074 204.67 20.4985 176.727 6.20312 137.628C10.3528 138.352 14.6928 139.874 19.2993 142.387C43.3979 155.769 50.5361 161.137 71.9697 140.617C81.7918 131.67 90.7193 126.321 104.101 125.446C116.607 124.57 130.864 134.354 142.476 131.689C153.193 129.919 166.574 117.413 177.272 113.853C185.952 111.169 194.956 108.124 203.902 107.553Z" fill="url(#paint0_linear_1138_1865)"/>
</g>
<g opacity="0.2">
<path d="M199.85 73.8973C192.749 76.0673 185.211 76.7906 178.13 75.896C159.819 72.7552 148.302 54.4433 131.57 50.7886C115.352 47.6478 103.322 62.3049 86.5712 57.5841C77.6817 54.9573 71.4001 52.3304 65.6325 44.4879C60.9498 38.2254 60.4168 30.3829 52.5743 29.3359C45.7788 28.803 36.8894 34.5516 30.0938 35.5985C28.2284 36.0363 26.2677 36.4361 24.25 36.7787C42.9997 14.7169 70.8862 0.707031 102.028 0.707031C148.264 0.745102 187.401 31.6582 199.85 73.8973Z" fill="url(#paint1_linear_1138_1865)"/>
</g>
<path opacity="0.4" d="M90.3654 73.2123L113.093 50.4843C113.093 50.4843 116.881 46.6963 120.669 50.4843C124.457 54.2723 120.669 58.0603 120.669 58.0603L105.517 73.2123C105.517 73.2123 101.729 77.0003 105.517 80.7883C109.305 84.5763 113.093 80.7883 113.093 80.7883L143.378 50.4843C143.378 50.4843 147.166 46.6963 150.954 50.4843C154.742 54.2723 150.954 58.0603 150.954 58.0603L128.226 80.7693C128.226 80.7693 124.438 84.5573 128.226 88.3453C132.014 92.1333 135.802 88.3453 135.802 88.3453L150.954 73.1933C150.954 73.1933 154.742 69.4053 158.53 73.1933C162.318 76.9813 158.53 80.7693 158.53 80.7693L128.226 111.073C128.226 111.073 124.438 114.861 128.226 118.649C132.014 122.437 135.802 118.649 135.802 118.649L181.239 73.2123C181.239 73.2123 185.027 69.4243 188.815 73.2123C188.815 73.2123 192.603 77.0003 188.815 80.7883C185.027 84.5573 109.286 160.298 109.286 160.298L56.2734 107.285L90.3654 73.2123Z" fill="#838383"/>
<path opacity="0.4" d="M65.7344 112.978L96.0193 82.6933C96.0193 82.6933 99.8073 78.9053 103.595 82.6933C107.383 86.4813 103.595 90.2693 103.595 90.2693L72.3205 121.525L65.7344 112.978Z" fill="#A9A9A9"/>
<path opacity="0.4" d="M83.2812 125.73L113.566 95.4453C113.566 95.4453 117.354 91.6573 121.142 95.4453C124.93 99.2333 121.142 103.021 121.142 103.021L89.8674 134.277L83.2812 125.73Z" fill="#A9A9A9"/>
<path opacity="0.4" d="M86.5781 152.722L116.863 122.437C116.863 122.437 120.651 118.649 124.439 122.437C128.227 126.225 124.439 130.013 124.439 130.013L93.1833 161.269L86.5781 152.722Z" fill="#A9A9A9"/>
<path d="M97.8383 168.125C116.793 159.808 125.417 137.699 117.099 118.745C108.782 99.7897 86.6739 91.1662 67.7191 99.4834C48.7643 107.801 40.1408 129.909 48.458 148.864C56.7752 167.818 78.8835 176.442 97.8383 168.125Z" fill="#A9A9A9"/>
<g opacity="0.15">
<path d="M109.308 107.284C123.946 121.922 123.946 145.659 109.308 160.297C100.571 169.034 88.5598 172.556 77.1767 170.842C84.7717 169.681 92.0813 166.16 97.9441 160.297C112.582 145.659 112.582 121.922 97.9441 107.284C92.0813 101.421 84.7337 97.8996 77.0625 96.7384C88.4646 94.9872 100.514 98.4896 109.308 107.284Z" fill="black"/>
</g>
<path opacity="0.4" d="M71.3214 47.0766C68.371 50.0271 21.4112 96.9869 1.06256 117.335C0.358258 112.577 0.015625 107.666 0.015625 102.716C0.015625 85.6609 4.2224 69.5762 11.6271 55.4331C15.1105 57.8505 18.2894 54.6526 18.2894 54.6526L33.4414 39.5006C33.4414 39.5006 37.2104 35.6936 41.0174 39.5006C44.7864 43.2696 41.0174 47.0766 41.0174 47.0766L10.7324 77.3616C10.7324 77.3616 6.96346 81.1306 10.7324 84.9376C14.5395 88.7066 18.3084 84.9376 18.3084 84.9376L63.7454 39.5006C63.7454 39.5006 67.5524 35.6936 71.3214 39.5006C71.3214 39.5006 75.1094 43.2696 71.3214 47.0766Z" fill="#A9A9A9"/>
<path opacity="0.4" d="M195.461 143.546C179.833 179.198 144.371 204.249 103.141 204.687L160.189 148.495L182.917 125.786C182.917 125.786 186.686 121.979 190.474 125.786C194.281 129.555 190.474 133.362 190.474 133.362L175.341 148.495C175.341 148.495 171.534 152.302 175.341 156.071C179.11 159.84 182.917 156.071 182.917 156.071L195.461 143.546Z" fill="#A9A9A9"/>
<path d="M69.2131 39.5043C72.2303 39.5043 74.6762 37.0584 74.6762 34.0412C74.6762 31.024 72.2303 28.5781 69.2131 28.5781C66.1959 28.5781 63.75 31.024 63.75 34.0412C63.75 37.0584 66.1959 39.5043 69.2131 39.5043Z" fill="white"/>
<path d="M74.6479 28.083C76.6454 28.083 78.2646 26.4637 78.2646 24.4663C78.2646 22.4689 76.6454 20.8496 74.6479 20.8496C72.6505 20.8496 71.0312 22.4689 71.0312 24.4663C71.0312 26.4637 72.6505 28.083 74.6479 28.083Z" fill="white"/>
<path d="M186.882 111.173C188.88 111.173 190.499 109.554 190.499 107.556C190.499 105.559 188.88 103.939 186.882 103.939C184.885 103.939 183.266 105.559 183.266 107.556C183.266 109.554 184.885 111.173 186.882 111.173Z" fill="white"/>
<path d="M28.0854 127.731C30.0829 127.731 31.7021 126.112 31.7021 124.115C31.7021 122.117 30.0829 120.498 28.0854 120.498C26.088 120.498 24.4688 122.117 24.4688 124.115C24.4688 126.112 26.088 127.731 28.0854 127.731Z" fill="white"/>
<path d="M20.6557 137.403C22.6532 137.403 24.2724 135.784 24.2724 133.787C24.2724 131.789 22.6532 130.17 20.6557 130.17C18.6583 130.17 17.0391 131.789 17.0391 133.787C17.0391 135.784 18.6583 137.403 20.6557 137.403Z" fill="white"/>
<path d="M59.4688 86.3126C59.4688 86.3126 61.6007 86.3126 61.6007 83.0957C61.6007 83.0957 61.6007 86.3126 63.7326 86.3126C63.7326 86.3126 61.6007 86.3126 61.6007 89.5296C61.6007 89.5296 61.6007 86.3126 59.4688 86.3126Z" fill="white"/>
<path d="M123.984 178.156C123.984 178.156 126.116 178.156 126.116 174.939C126.116 174.939 126.116 178.156 128.248 178.156C128.248 178.156 126.116 178.156 126.116 181.373C126.135 181.354 126.135 178.156 123.984 178.156Z" fill="white"/>
<path d="M118.289 39.5041C118.289 39.5041 120.421 39.5041 120.421 36.2871C120.421 36.2871 120.421 39.5041 122.553 39.5041C122.553 39.5041 120.421 39.5041 120.421 42.721C120.421 42.721 120.421 39.5041 118.289 39.5041Z" fill="white"/>
<path d="M166.633 142.485C166.633 142.485 168.765 142.485 168.765 139.268C168.765 139.268 168.765 142.485 170.897 142.485C170.897 142.485 168.765 142.485 168.765 145.701C168.784 145.701 168.784 142.485 166.633 142.485Z" fill="white"/>
<path d="M29.8359 49.8419C29.8359 49.8419 31.9679 49.8419 31.9679 46.625C31.9679 46.625 31.9679 49.8419 34.0998 49.8419C34.0998 49.8419 31.9679 49.8419 31.9679 53.0589C31.9869 53.0589 31.9869 49.8419 29.8359 49.8419Z" fill="white"/>
<path d="M98.5156 17.804C98.5156 17.804 102.037 17.804 102.037 12.5312C102.037 12.5312 102.037 17.804 105.559 17.804C105.559 17.804 102.037 17.804 102.037 23.0767C102.037 23.0767 102.037 17.804 98.5156 17.804Z" fill="white"/>
<path d="M29.8359 156.132C29.8359 156.132 33.3574 156.132 33.3574 150.859C33.3574 150.859 33.3574 156.132 36.879 156.132C36.879 156.132 33.3574 156.132 33.3574 161.405C33.3574 161.405 33.3574 156.132 29.8359 156.132Z" fill="white"/>
<path d="M172.742 53.0559C172.742 53.0559 176.264 53.0559 176.264 47.7832C176.264 47.7832 176.264 53.0559 179.785 53.0559C179.785 53.0559 176.264 53.0559 176.264 58.3287C176.264 58.3287 176.264 53.0559 172.742 53.0559Z" fill="white"/>
<defs>
<linearGradient id="paint0_linear_1138_1865" x1="6.20617" y1="156.127" x2="203.898" y2="156.127" gradientUnits="userSpaceOnUse">
<stop stop-color="#9F9F9F"/>
<stop offset="1" stop-color="#A5A5A5"/>
</linearGradient>
<linearGradient id="paint1_linear_1138_1865" x1="24.2527" y1="38.5094" x2="199.857" y2="38.5094" gradientUnits="userSpaceOnUse">
<stop stop-color="#9F9F9F"/>
<stop offset="1" stop-color="#A5A5A5"/>
</linearGradient>
</defs>
</svg>
