<svg width="113" height="46" viewBox="0 0 113 46" fill="none" xmlns="http://www.w3.org/2000/svg">
<g filter="url(#filter0_d_5538_8414)">
<path d="M15.269 9.88022C16.0917 8.12276 17.857 7 19.7974 7H97C99.7614 7 102 9.23858 102 12V26C102 28.7614 99.7614 31 97 31H19.7974C17.857 31 16.0917 29.8772 15.269 28.1198L11.9923 21.1198C11.3635 19.7765 11.3635 18.2235 11.9923 16.8802L15.269 9.88022Z" fill="#AEDF55"/>
<path d="M19.7974 6C17.4689 6 15.3506 7.34731 14.3634 9.45626L11.0866 16.4563C10.3321 18.0682 10.3321 19.9318 11.0866 21.5437L14.3634 28.5437C15.3506 30.6527 17.4689 32 19.7974 32H97C100.314 32 103 29.3137 103 26V12C103 8.68629 100.314 6 97 6H19.7974Z" stroke="white" stroke-width="2"/>
</g>
<defs>
<filter id="filter0_d_5538_8414" x="0.519531" y="0" width="112.48" height="46" filterUnits="userSpaceOnUse" color-interpolation-filters="sRGB">
<feFlood flood-opacity="0" result="BackgroundImageFix"/>
<feColorMatrix in="SourceAlpha" type="matrix" values="0 0 0 0 0 0 0 0 0 0 0 0 0 0 0 0 0 0 127 0" result="hardAlpha"/>
<feOffset dy="4"/>
<feGaussianBlur stdDeviation="4.5"/>
<feComposite in2="hardAlpha" operator="out"/>
<feColorMatrix type="matrix" values="0 0 0 0 0 0 0 0 0 0 0 0 0 0 0 0 0 0 0.25 0"/>
<feBlend mode="normal" in2="BackgroundImageFix" result="effect1_dropShadow_5538_8414"/>
<feBlend mode="normal" in="SourceGraphic" in2="effect1_dropShadow_5538_8414" result="shape"/>
</filter>
</defs>
</svg>
