<svg width="119" height="46" viewBox="0 0 119 46" fill="none" xmlns="http://www.w3.org/2000/svg">
<g filter="url(#filter0_d_5538_8025)">
<path d="M15.6067 9.76761C16.4529 8.07167 18.1853 7 20.0807 7H103C105.761 7 108 9.23858 108 12V26C108 28.7614 105.761 31 103 31H20.0807C18.1853 31 16.4529 29.9283 15.6067 28.2324L12.1139 21.2324C11.4125 19.8268 11.4125 18.1732 12.1139 16.7676L15.6067 9.76761Z" fill="#FFD743"/>
<path d="M20.0807 6C17.8063 6 15.7274 7.28601 14.7119 9.32114L11.2191 16.3211C10.3775 18.0079 10.3775 19.9921 11.2191 21.6789L14.7119 28.6789C15.7274 30.714 17.8063 32 20.0807 32H103C106.314 32 109 29.3137 109 26V12C109 8.68629 106.314 6 103 6H20.0807Z" stroke="white" stroke-width="2"/>
</g>
<defs>
<filter id="filter0_d_5538_8025" x="0.585938" y="0" width="118.414" height="46" filterUnits="userSpaceOnUse" color-interpolation-filters="sRGB">
<feFlood flood-opacity="0" result="BackgroundImageFix"/>
<feColorMatrix in="SourceAlpha" type="matrix" values="0 0 0 0 0 0 0 0 0 0 0 0 0 0 0 0 0 0 127 0" result="hardAlpha"/>
<feOffset dy="4"/>
<feGaussianBlur stdDeviation="4.5"/>
<feComposite in2="hardAlpha" operator="out"/>
<feColorMatrix type="matrix" values="0 0 0 0 0 0 0 0 0 0 0 0 0 0 0 0 0 0 0.25 0"/>
<feBlend mode="normal" in2="BackgroundImageFix" result="effect1_dropShadow_5538_8025"/>
<feBlend mode="normal" in="SourceGraphic" in2="effect1_dropShadow_5538_8025" result="shape"/>
</filter>
</defs>
</svg>
