<svg width="157" height="33" viewBox="0 0 157 33" fill="none" xmlns="http://www.w3.org/2000/svg">
<path d="M15.7543 1.02326C15.9348 1.02201 16.0801 0.87468 16.0788 0.694192C16.0776 0.513704 15.9303 0.368401 15.7498 0.36965L15.7543 1.02326ZM9.04069 2.27511L9.18437 2.56865L9.18437 2.56865L9.04069 2.27511ZM22.8334 30.3311C22.9955 30.2516 23.0624 30.0558 22.9829 29.8938C22.9034 29.7317 22.7076 29.6648 22.5456 29.7443L22.8334 30.3311ZM12.0749 1.58735L11.748 1.58735L12.0749 1.58735ZM10.8991 2.76119L10.8991 3.088L10.8991 2.76119ZM9.72334 1.58738L9.39652 1.58738L9.72334 1.58738ZM10.8991 0.413543L10.8991 0.0867321L10.8991 0.413543ZM12.0032 1.18297L11.6965 1.29572L12.0032 1.18297ZM8.89701 1.98158C6.76306 3.02612 4.89228 4.53738 3.42375 6.4031L3.93735 6.80736C5.34511 5.01886 7.13854 3.57005 9.18437 2.56865L8.89701 1.98158ZM3.42375 6.4031C1.95522 8.26882 0.926713 10.441 0.414712 12.7582L1.05294 12.8992C1.54372 10.6781 2.5296 8.59587 3.93735 6.80736L3.42375 6.4031ZM0.414712 12.7582C-0.0972899 15.0754 -0.0796125 17.478 0.46643 19.7874L1.10251 19.637C0.579108 17.4234 0.562164 15.1204 1.05294 12.8992L0.414712 12.7582ZM0.46643 19.7874C1.01247 22.0968 2.07283 24.2537 3.56865 26.0976L4.07625 25.6858C2.64234 23.9182 1.62592 21.8507 1.10251 19.637L0.46643 19.7874ZM3.56865 26.0976C5.06447 27.9415 6.95729 29.4251 9.10638 30.4381L9.38507 29.8469C7.32473 28.8757 5.51017 27.4534 4.07625 25.6858L3.56865 26.0976ZM9.10638 30.4381C11.2555 31.4511 13.6056 31.9676 15.9821 31.949L15.977 31.2954C13.6986 31.3132 11.4454 30.8181 9.38507 29.8469L9.10638 30.4381ZM15.9821 31.949C18.3586 31.9305 20.7004 31.3775 22.8334 30.3311L22.5456 29.7443C20.5006 30.7475 18.2555 31.2777 15.977 31.2954L15.9821 31.949ZM11.748 1.58735C11.748 2.05464 11.3684 2.43437 10.8991 2.43438L10.8991 3.088C11.7284 3.08799 12.4017 2.41664 12.4017 1.58736L11.748 1.58735ZM10.0501 1.58738C10.0502 1.1201 10.4297 0.740359 10.8991 0.740354L10.8991 0.0867321C10.0698 0.0867415 9.39653 0.758096 9.39652 1.58738L10.0501 1.58738ZM15.7498 0.36965C14.4543 0.378613 13.1689 0.546413 11.922 0.866417L12.0845 1.49952C13.2799 1.19273 14.5122 1.03185 15.7543 1.02326L15.7498 0.36965ZM10.8991 0.740354C11.265 0.74035 11.5773 0.971384 11.6965 1.29572L12.31 1.07022C12.0991 0.496462 11.5472 0.0867247 10.8991 0.0867321L10.8991 0.740354ZM11.6965 1.29572C11.7297 1.38621 11.748 1.48428 11.748 1.58735L12.4017 1.58736C12.4017 1.40621 12.3694 1.23186 12.31 1.07022L11.6965 1.29572ZM9.64862 1.63771C9.39546 1.74563 9.14483 1.86028 8.89701 1.98158L9.18437 2.56865C9.42196 2.45235 9.66224 2.34244 9.90495 2.23897L9.64862 1.63771ZM10.8991 2.43438C10.5188 2.43438 10.1965 2.18475 10.0886 1.8406L9.46493 2.03608C9.65597 2.64561 10.2256 3.08801 10.8991 3.088L10.8991 2.43438ZM10.0886 1.8406C10.0637 1.76104 10.0501 1.6761 10.0501 1.58738L9.39652 1.58738C9.39652 1.74317 9.4204 1.89399 9.46493 2.03608L10.0886 1.8406Z" fill="white"/>
<path d="M16.428 21.8189C17.4033 21.8189 18.2648 21.6355 19.0125 21.2686C19.7603 20.9018 20.3942 20.3974 20.9144 19.7554L25.9371 24.2492C24.7993 25.4414 23.4176 26.3738 21.7921 27.0463C20.1992 27.7189 18.4111 28.0552 16.428 28.0552C14.6075 28.0552 12.9332 27.7647 11.4052 27.1839C9.87726 26.6031 8.54436 25.793 7.40651 24.7536C6.30118 23.6837 5.42341 22.4303 4.77321 20.9935C4.15552 19.5261 3.84668 17.9365 3.84668 16.2246C3.84668 14.5127 4.15552 12.9383 4.77321 11.5015C5.42341 10.0342 6.30118 8.78083 7.40651 7.74145C8.54436 6.6715 9.87726 5.84611 11.4052 5.26529C12.9332 4.68446 14.6075 4.39404 16.428 4.39404C18.3786 4.39404 20.1504 4.73031 21.7434 5.40285C23.3364 6.04482 24.7018 6.94663 25.8396 8.10829L20.8656 12.6479C20.378 12.006 19.744 11.5015 18.9638 11.1347C18.216 10.7679 17.3708 10.5844 16.428 10.5844C14.77 10.5844 13.4208 11.1041 12.3805 12.1435C11.3402 13.1829 10.82 14.5433 10.82 16.2246C10.82 17.9059 11.3402 19.2663 12.3805 20.3057C13.4208 21.3145 14.77 21.8189 16.428 21.8189Z" fill="white"/>
<path d="M39.1811 21.8647C40.7714 21.8647 42.0655 21.3451 43.0633 20.3057C44.0923 19.2663 44.6068 17.9059 44.6068 16.2246C44.6068 14.5433 44.0923 13.1982 43.0633 12.1894C42.0655 11.15 40.7714 10.6303 39.1811 10.6303C37.5908 10.6303 36.2967 11.15 35.2989 12.1894C34.3011 13.1982 33.8022 14.5433 33.8022 16.2246C33.8022 17.9059 34.3011 19.2663 35.2989 20.3057C36.2967 21.3451 37.5908 21.8647 39.1811 21.8647ZM39.1811 4.39404C40.9273 4.39404 42.5332 4.68446 43.9988 5.26529C45.4955 5.84611 46.774 6.6715 47.8342 7.74145C48.9256 8.78083 49.7675 10.0342 50.36 11.5015C50.9836 12.9383 51.2954 14.5127 51.2954 16.2246C51.2954 17.9365 50.9836 19.5261 50.36 20.9935C49.7675 22.4303 48.9256 23.6837 47.8342 24.7536C46.774 25.793 45.4955 26.6031 43.9988 27.1839C42.5332 27.7647 40.9273 28.0552 39.1811 28.0552C37.4349 28.0552 35.829 27.7647 34.3634 27.1839C32.8979 26.6031 31.6194 25.793 30.528 24.7536C29.4678 23.6837 28.6259 22.4303 28.0023 20.9935C27.4098 19.5261 27.1136 17.9365 27.1136 16.2246C27.1136 14.5127 27.4098 12.9383 28.0023 11.5015C28.6259 10.0342 29.4678 8.78083 30.528 7.74145C31.6194 6.6715 32.8979 5.84611 34.3634 5.26529C35.829 4.68446 37.4349 4.39404 39.1811 4.39404Z" fill="white"/>
<path d="M63.4455 22.6901C64.591 22.6901 65.4183 22.5526 65.9275 22.2774C66.4366 21.9717 66.6912 21.5896 66.6912 21.1311C66.6912 20.6114 66.3729 20.1681 65.7365 19.8013C65.1001 19.4039 63.9387 19.037 62.2522 18.7008C59.643 18.1811 57.6383 17.2945 56.2382 16.0412C54.8699 14.7878 54.1858 13.1829 54.1858 11.2264C54.1858 10.2788 54.3926 9.39222 54.8063 8.56684C55.2199 7.74145 55.8245 7.02305 56.62 6.41166C57.4155 5.76969 58.402 5.28057 59.5793 4.9443C60.7567 4.57746 62.0931 4.39404 63.5887 4.39404C65.4661 4.39404 67.2321 4.62332 68.8867 5.08187C70.5732 5.54041 72.0688 6.13653 73.3734 6.87021L69.7936 11.7308C68.9663 11.1806 68.0117 10.722 66.9298 10.3552C65.8797 9.98834 64.7978 9.80492 63.6841 9.80492C62.7932 9.80492 62.1249 9.94248 61.6795 10.2176C61.234 10.4622 61.0112 10.7984 61.0112 11.2264C61.0112 11.6544 61.2658 12.0365 61.7749 12.3728C62.284 12.6785 63.2705 12.9995 64.7342 13.3357C66.3889 13.7026 67.773 14.1458 68.8867 14.6655C70.0323 15.1547 70.9392 15.7202 71.6074 16.3622C72.3074 16.9736 72.8006 17.6614 73.087 18.4256C73.3734 19.1899 73.5166 20.0306 73.5166 20.9477C73.5166 23.057 72.6256 24.7689 70.8437 26.0834C69.0936 27.3979 66.6434 28.0552 63.4932 28.0552C62.6022 28.0552 61.6795 27.9787 60.7248 27.8259C59.8021 27.7036 58.8952 27.5202 58.0042 27.2756C57.1451 27.0005 56.3177 26.6948 55.5222 26.3585C54.7585 26.0223 54.0903 25.6401 53.5175 25.2122L57.0973 20.3515C57.8928 21.0241 58.8474 21.5896 59.9612 22.0482C61.0749 22.4761 62.2363 22.6901 63.4455 22.6901Z" fill="white"/>
<path d="M111.631 9.6362C111.289 8.6206 110.822 7.74581 110.231 7.01183C108.858 5.26664 106.86 4.39405 104.238 4.39405C102.647 4.39405 101.226 4.74615 99.9779 5.45035C98.7293 6.12393 97.6993 7.07307 96.8877 8.29776H96.7941C95.4519 5.69529 93.189 4.39405 90.0052 4.39405C88.5694 4.39405 87.2897 4.6696 86.166 5.22071C85.0423 5.77183 84.0747 6.55257 83.2631 7.56294H83.1695L82.9822 4.94516H77.1766V27.5408H83.8718V15.0948C83.8718 13.717 84.1995 12.6148 84.855 11.7881C85.5105 10.9615 86.4469 10.5481 87.6642 10.5481C88.8503 10.5481 89.7711 10.9462 90.4266 11.7422C91.0821 12.5077 91.4098 13.6252 91.4098 15.0948V27.5408H98.1051V15.0948C98.1051 13.717 98.4172 12.6148 99.0414 11.7881C99.6969 10.9615 100.649 10.5481 101.897 10.5481C103.084 10.5481 104.004 10.9462 104.66 11.7422C105.315 12.5077 105.643 13.6252 105.643 15.0948V27.5408H112.338V24.0267C111.941 23.4119 111.587 22.7636 111.274 22.0818C110.502 20.2727 110.116 18.3127 110.116 16.202C110.116 14.0914 110.502 12.1503 111.274 10.3788C111.387 10.1261 111.506 9.87859 111.631 9.6362Z" fill="white"/>
<path d="M125.713 21.8648C127.303 21.8648 128.597 21.3451 129.595 20.3057C130.624 19.2663 131.139 17.9059 131.139 16.2246C131.139 14.5433 130.624 13.1982 129.595 12.1894C128.597 11.15 127.303 10.6303 125.713 10.6303C124.123 10.6303 122.829 11.15 121.831 12.1894C120.833 13.1982 120.334 14.5433 120.334 16.2246C120.334 17.9059 120.833 19.2663 121.831 20.3057C122.829 21.3451 124.123 21.8648 125.713 21.8648ZM125.713 4.39405C127.459 4.39405 129.065 4.68446 130.531 5.26529C132.027 5.84612 133.306 6.67151 134.366 7.74145C135.457 8.78083 136.299 10.0342 136.892 11.5016C137.515 12.9383 137.827 14.5127 137.827 16.2246C137.827 17.9365 137.515 19.5262 136.892 20.9935C136.299 22.4303 135.457 23.6837 134.366 24.7536C133.306 25.793 132.027 26.6031 130.531 27.1839C129.065 27.7647 127.459 28.0552 125.713 28.0552C123.967 28.0552 122.361 27.7647 120.895 27.1839C119.43 26.6031 118.151 25.793 117.06 24.7536C116 23.6837 115.158 22.4303 114.534 20.9935C113.942 19.5262 113.645 17.9365 113.645 16.2246C113.645 14.5127 113.942 12.9383 114.534 11.5016C115.158 10.0342 116 8.78083 117.06 7.74145C118.151 6.67151 119.43 5.84612 120.895 5.26529C122.361 4.68446 123.967 4.39405 125.713 4.39405Z" fill="white"/>
<path d="M137.813 25.7308C138.188 25.9554 138.595 26.1646 139.033 26.3586C139.824 26.6949 140.647 27.0006 141.501 27.2757C142.387 27.5203 143.288 27.7037 144.206 27.8259C145.155 27.9788 146.073 28.0552 146.959 28.0552C150.091 28.0552 152.527 27.398 154.267 26.0835C156.039 24.7691 156.925 23.0573 156.925 20.948C156.925 20.031 156.783 19.1904 156.498 18.4262C156.213 17.6619 155.723 16.9742 155.027 16.3628C154.362 15.7208 153.46 15.1553 152.321 14.6662C151.214 14.1466 149.838 13.7033 148.193 13.3365C146.737 13.0003 145.756 12.6793 145.25 12.3736C144.744 12.0374 144.491 11.6552 144.491 11.2273C144.491 10.7993 144.712 10.4631 145.155 10.2185C145.598 9.94342 146.263 9.80586 147.148 9.80586C148.256 9.80586 149.332 9.98927 150.376 10.3561C151.451 10.7229 152.401 11.1814 153.223 11.7317L156.783 6.8713C155.485 6.13765 153.998 5.54157 152.321 5.08304C150.676 4.62452 148.92 4.39526 147.054 4.39526C145.566 4.39526 144.238 4.57867 143.067 4.94549C141.896 5.28174 140.916 5.77083 140.125 6.41277C139.568 6.84311 139.105 7.32646 138.736 7.86282C139.285 8.63552 139.752 9.47418 140.138 10.3788C140.95 12.1503 141.357 14.0914 141.357 16.2021C141.357 16.5274 141.347 16.8492 141.328 17.1673C142.525 17.8426 143.99 18.3539 145.725 18.7013C147.402 19.0375 148.556 19.4043 149.189 19.8017C149.822 20.1685 150.138 20.6118 150.138 21.1315C150.138 21.59 149.885 21.9721 149.379 22.2778C148.873 22.5529 148.05 22.6904 146.911 22.6904C145.709 22.6904 144.554 22.4765 143.447 22.0485C142.405 21.6173 141.504 21.0914 140.742 20.4708C140.575 21.0205 140.373 21.5575 140.138 22.0818C139.551 23.4289 138.776 24.6453 137.813 25.7308Z" fill="white"/>
<path d="M16.428 21.8189C17.4033 21.8189 18.2648 21.6355 19.0125 21.2686C19.7603 20.9018 20.3942 20.3974 20.9144 19.7554L25.9371 24.2492C24.7993 25.4414 23.4176 26.3738 21.7921 27.0463C20.1992 27.7189 18.4111 28.0552 16.428 28.0552C14.6075 28.0552 12.9332 27.7647 11.4052 27.1839C9.87726 26.6031 8.54436 25.793 7.40651 24.7536C6.30118 23.6837 5.42341 22.4303 4.77321 20.9935C4.15552 19.5261 3.84668 17.9365 3.84668 16.2246C3.84668 14.5127 4.15552 12.9383 4.77321 11.5015C5.42341 10.0342 6.30118 8.78083 7.40651 7.74145C8.54436 6.6715 9.87726 5.84611 11.4052 5.26529C12.9332 4.68446 14.6075 4.39404 16.428 4.39404C18.3786 4.39404 20.1504 4.73031 21.7434 5.40285C23.3364 6.04482 24.7018 6.94663 25.8396 8.10829L20.8656 12.6479C20.378 12.006 19.744 11.5015 18.9638 11.1347C18.216 10.7679 17.3708 10.5844 16.428 10.5844C14.77 10.5844 13.4208 11.1041 12.3805 12.1435C11.3402 13.1829 10.82 14.5433 10.82 16.2246C10.82 17.9059 11.3402 19.2663 12.3805 20.3057C13.4208 21.3145 14.77 21.8189 16.428 21.8189Z" fill="white"/>
<path d="M16.428 21.8189C17.4033 21.8189 18.2648 21.6355 19.0125 21.2686C19.7603 20.9018 20.3942 20.3974 20.9144 19.7554L25.9371 24.2492C24.7993 25.4414 23.4176 26.3738 21.7921 27.0463C20.1992 27.7189 18.4111 28.0552 16.428 28.0552C14.6075 28.0552 12.9332 27.7647 11.4052 27.1839C9.87726 26.6031 8.54436 25.793 7.40651 24.7536C6.30118 23.6837 5.42341 22.4303 4.77321 20.9935C4.15552 19.5261 3.84668 17.9365 3.84668 16.2246C3.84668 14.5127 4.15552 12.9383 4.77321 11.5015C5.42341 10.0342 6.30118 8.78083 7.40651 7.74145C8.54436 6.6715 9.87726 5.84611 11.4052 5.26529C12.9332 4.68446 14.6075 4.39404 16.428 4.39404C18.3786 4.39404 20.1504 4.73031 21.7434 5.40285C23.3364 6.04482 24.7018 6.94663 25.8396 8.10829L20.8656 12.6479C20.378 12.006 19.744 11.5015 18.9638 11.1347C18.216 10.7679 17.3708 10.5844 16.428 10.5844C14.77 10.5844 13.4208 11.1041 12.3805 12.1435C11.3402 13.1829 10.82 14.5433 10.82 16.2246C10.82 17.9059 11.3402 19.2663 12.3805 20.3057C13.4208 21.3145 14.77 21.8189 16.428 21.8189Z" fill="white"/>
</svg>
