<svg id="Camada_1" data-name="Camada 1" xmlns="http://www.w3.org/2000/svg" xmlns:xlink="http://www.w3.org/1999/xlink" viewBox="0 0 124 168.01"><defs><style>.cls-1{fill:url(#Gradiente_sem_nome);}.cls-2{fill:none;stroke:#363f63;stroke-width:8px;}</style><linearGradient id="Gradiente_sem_nome" x1="63.21" y1="87.73" x2="60.18" y2="-8.55" gradientTransform="matrix(1, 0, 0, -1, 0, 178)" gradientUnits="userSpaceOnUse"><stop offset="0" stop-color="#282330"/><stop offset="0" stop-color="#363f63"/><stop offset="1" stop-color="#363f63"/></linearGradient></defs><path class="cls-1" d="M15,93.33a3.67,3.67,0,0,1,5.86-2.94L59.8,119.57a3.69,3.69,0,0,0,4.4,0l38.94-29.18A3.67,3.67,0,0,1,109,93.33v71a3.66,3.66,0,0,1-4.52,3.56l-41.62-10a3.57,3.57,0,0,0-1.72,0l-41.62,10A3.66,3.66,0,0,1,15,164.35Z"/><circle class="cls-2" cx="62" cy="62" r="58"/></svg>