<svg width="204" height="205" viewBox="0 0 204 205" fill="none" xmlns="http://www.w3.org/2000/svg">
<path d="M204 102.717C204 104.354 203.981 105.953 203.886 107.571C203.277 120.305 200.326 132.45 195.453 143.547C179.825 179.2 144.363 204.25 103.133 204.688H102.01C58.0573 204.688 20.4819 176.744 6.18643 137.646C3.80704 131.174 2.0558 124.36 1.04693 117.317C0.342633 112.558 0 107.647 0 102.698C0 85.642 4.20677 69.5573 11.6115 55.4141C15.1139 48.7138 19.3397 42.4893 24.2127 36.7787C42.9624 14.7169 70.8489 0.707031 101.99 0.707031C148.227 0.707031 187.363 31.6392 199.812 73.8783C202.553 83.0723 204 92.7231 204 102.717Z" fill="#555555"/>
<path d="M100.417 0.838071C100.686 8.2962 99.4305 15.8014 96.7169 22.4406C88.8929 39.3937 68.0481 45.7885 60.1341 61.0738C52.8547 75.9946 64.0133 91.4994 55.0552 106.525C50.1828 114.467 45.9885 119.878 36.8439 123.427C29.5215 126.336 21.7383 124.805 18.6782 132.144C16.3913 138.6 19.683 148.73 18.9362 155.599C18.8778 157.524 18.7576 159.531 18.5668 161.579C1.93791 137.619 -4.46604 106.893 3.63296 76.667C15.6948 31.8001 56.0062 1.88866 100.417 0.838071Z" fill="url(#paint0_linear_1138_2173)" fill-opacity="0.25"/>
<path d="M126.557 201.69C124.709 194.492 124.317 186.918 125.514 179.872C129.432 161.685 148.132 150.952 152.492 134.369C156.318 118.277 142.274 105.607 147.694 89.0499C150.691 80.2688 153.575 74.0969 161.62 68.6645C168.048 64.2496 175.865 64.0549 177.247 56.253C178.072 49.4765 172.745 40.3337 172 33.489C171.646 31.6036 171.334 29.6246 171.081 27.5909C192.193 47.304 204.904 75.8116 203.551 106.971C201.503 153.233 169.078 191.057 126.557 201.69Z" fill="url(#paint1_linear_1138_2173)" fill-opacity="0.25"/>
<path d="M61.8042 60.7153C61.8042 57.4051 64.4877 54.7216 67.7979 54.7216H74.7506C78.0609 54.7216 80.7443 57.4051 80.7443 60.7153V77.0182C80.7443 80.3285 78.0609 83.012 74.7506 83.012H67.7979C64.4877 83.012 61.8042 80.3285 61.8042 77.0182V60.7153Z" fill="#D1D1D1"/>
<path d="M65.6427 60.7153C65.6427 57.4051 68.3261 54.7216 71.6364 54.7216H78.5891C81.8993 54.7216 84.5828 57.4051 84.5828 60.7153V77.0182C84.5828 80.3285 81.8993 83.012 78.5891 83.012H71.6364C68.3261 83.012 65.6427 80.3285 65.6427 77.0182V60.7153Z" fill="white"/>
<path d="M56.0564 64.0715C56.0564 60.7613 58.7399 58.0778 62.0501 58.0778H80.271C83.5812 58.0778 86.2647 60.7613 86.2647 64.0715V88.5259C86.2647 91.8361 83.5812 94.5196 80.271 94.5196H62.0501C58.7399 94.5196 56.0564 91.8361 56.0564 88.5259V64.0715Z" fill="#828282"/>
<path d="M62.2881 63.592C62.2881 60.5466 64.7569 58.0778 67.8024 58.0778H84.8245C87.8699 58.0778 90.3387 60.5466 90.3387 63.592V86.6079C90.3387 89.6533 87.8699 92.1221 84.8245 92.1221H67.8024C64.7569 92.1221 62.2881 89.6533 62.2881 86.6079V63.592Z" fill="#9B9B9B"/>
<path d="M38.1302 82.5315C38.1302 72.336 46.3953 64.0709 56.5908 64.0709H136.907C147.102 64.0709 155.367 72.336 155.367 82.5315V125.926C155.367 136.122 147.102 144.387 136.907 144.387H56.5908C46.3953 144.387 38.1302 136.122 38.1302 125.926V82.5315Z" fill="#DADADA"/>
<path d="M44.7862 82.5315C44.7862 72.336 53.0513 64.0709 63.2469 64.0709H143.563C153.758 64.0709 162.023 72.336 162.023 82.5315V125.926C162.023 136.122 153.758 144.387 143.563 144.387H63.2469C53.0513 144.387 44.7862 136.122 44.7862 125.926V82.5315Z" fill="#FAFAFA"/>
<path d="M150.291 102.313C150.291 119.46 136.391 133.36 119.244 133.36C102.097 133.36 88.1963 119.46 88.1963 102.313C88.1963 85.166 102.097 71.2656 119.244 71.2656C136.391 71.2656 150.291 85.166 150.291 102.313Z" fill="#B5B5B5"/>
<path d="M156.987 102.313C156.987 119.46 143.087 133.36 125.94 133.36C108.793 133.36 94.8921 119.46 94.8921 102.313C94.8921 85.166 108.793 71.2656 125.94 71.2656C143.087 71.2656 156.987 85.166 156.987 102.313Z" fill="#D9D9D9"/>
<path d="M148.357 102.312C148.357 114.692 138.321 124.729 125.94 124.729C113.56 124.729 103.524 114.692 103.524 102.312C103.524 89.9318 113.56 79.8955 125.94 79.8955C138.321 79.8955 148.357 89.9318 148.357 102.312Z" fill="#454045"/>
<path d="M143.802 102.193C143.802 112.123 135.751 120.174 125.821 120.174C115.89 120.174 107.84 112.123 107.84 102.193C107.84 92.2618 115.89 84.2114 125.821 84.2114C135.751 84.2114 143.802 92.2618 143.802 102.193Z" fill="#808080"/>
<path fill-rule="evenodd" clip-rule="evenodd" d="M128.099 120.03C136.953 118.909 143.799 111.35 143.799 102.192C143.799 100.765 143.633 99.3766 143.319 98.0455L143.351 97.9986C143.325 97.9501 143.298 97.9007 143.272 97.8505C142.797 95.9347 142.015 94.1401 140.981 92.5221C140.458 91.4666 139.857 90.5332 139.109 89.9371L139.056 90.0228C137.937 88.8058 136.652 87.7435 135.237 86.8718L135.29 86.7859C134.876 86.5881 134.482 86.391 134.1 86.1997C132.335 85.3166 130.821 84.5585 128.681 84.4375C127.749 84.2884 126.793 84.2109 125.818 84.2109C115.888 84.2109 107.837 92.2613 107.837 102.192C107.837 107.537 110.169 112.338 113.872 115.631C114.568 116.268 115.34 116.892 116.197 117.515L116.255 117.422C117.694 118.327 119.27 119.035 120.945 119.505L120.864 119.637C121.227 119.674 121.56 119.707 121.865 119.737C123.137 120.023 124.46 120.173 125.818 120.173C126.499 120.173 127.171 120.135 127.832 120.062C127.912 120.062 127.993 120.062 128.077 120.062L128.099 120.03ZM128.099 120.03L143.319 98.0455C143.304 97.9804 143.288 97.9154 143.272 97.8505C142.885 97.116 142.526 96.2075 142.15 95.259C141.788 94.3439 141.411 93.3915 140.981 92.5221C140.412 91.6326 139.767 90.7964 139.056 90.0228L120.945 119.505C121.249 119.59 121.556 119.668 121.865 119.737C123.663 119.916 124.541 119.996 125.421 120.032C126.089 120.06 126.758 120.062 127.832 120.062C127.922 120.052 128.01 120.041 128.099 120.03ZM116.255 117.422L135.237 86.8718C133.27 85.6605 131.053 84.817 128.681 84.4375C128.485 84.4265 128.284 84.4207 128.077 84.4207C127.633 84.4207 127.201 84.4148 126.778 84.4091C124.49 84.3779 122.477 84.3505 120.412 85.2788L108.135 105.211C109.174 109.713 110.779 112.802 113.872 115.631C114.614 116.291 115.411 116.891 116.255 117.422Z" fill="white"/>
<path d="M114.077 33.1973C114.077 33.1973 123.077 33.1973 123.077 19.7216C123.077 19.7216 123.077 33.1973 132.077 33.1973C132.077 33.1973 123.077 33.1973 123.077 46.6729C123.028 46.6729 123.028 33.1973 114.077 33.1973Z" fill="white"/>
<path d="M59.0771 176.957C59.0771 176.957 64.5771 176.957 64.5771 168.722C64.5771 168.722 64.5772 176.957 70.0771 176.957C70.0771 176.957 64.5771 176.957 64.5771 185.192C64.5474 185.192 64.5474 176.957 59.0771 176.957Z" fill="white"/>
<path d="M70.0771 165.957C70.0771 165.957 74.2414 165.957 74.2414 159.722C74.2414 159.722 74.2414 165.957 78.4057 165.957C78.4057 165.957 74.2414 165.957 74.2414 172.192C74.2189 172.192 74.2189 165.957 70.0771 165.957Z" fill="white"/>
<path d="M154.694 46.955C156.691 46.955 158.311 45.3357 158.311 43.3383C158.311 41.3409 156.691 39.7216 154.694 39.7216C152.696 39.7216 151.077 41.3409 151.077 43.3383C151.077 45.3357 152.696 46.955 154.694 46.955Z" fill="white"/>
<path d="M46.0771 34.7216C47.734 34.7216 49.0771 33.3785 49.0771 31.7216C49.0771 30.0648 47.734 28.7216 46.0771 28.7216C44.4203 28.7216 43.0771 30.0648 43.0771 31.7216C43.0771 33.3785 44.4203 34.7216 46.0771 34.7216Z" fill="white"/>
<path d="M184.577 148.722C185.958 148.722 187.077 147.602 187.077 146.222C187.077 144.841 185.958 143.722 184.577 143.722C183.196 143.722 182.077 144.841 182.077 146.222C182.077 147.602 183.196 148.722 184.577 148.722Z" fill="white"/>
<path d="M116.577 184.722C117.958 184.722 119.077 183.602 119.077 182.222C119.077 180.841 117.958 179.722 116.577 179.722C115.196 179.722 114.077 180.841 114.077 182.222C114.077 183.602 115.196 184.722 116.577 184.722Z" fill="white"/>
<defs>
<linearGradient id="paint0_linear_1138_2173" x1="0.00309593" y1="102.753" x2="204.008" y2="102.753" gradientUnits="userSpaceOnUse">
<stop stop-color="#9F9F9F"/>
<stop offset="1" stop-color="#A5A5A5"/>
</linearGradient>
<linearGradient id="paint1_linear_1138_2173" x1="0.00309593" y1="102.753" x2="204.008" y2="102.753" gradientUnits="userSpaceOnUse">
<stop stop-color="#9F9F9F"/>
<stop offset="1" stop-color="#A5A5A5"/>
</linearGradient>
</defs>
</svg>
