<svg width="204" height="204" viewBox="0 0 204 204" fill="none" xmlns="http://www.w3.org/2000/svg">
<path d="M204 102.01C204 103.647 203.981 105.245 203.886 106.863C203.277 119.598 200.326 131.742 195.453 142.84C179.825 178.493 144.363 203.543 103.133 203.981H102.01C58.0573 203.981 20.4819 176.037 6.18643 136.939C3.80704 130.467 2.0558 123.653 1.04693 116.61C0.342633 111.851 0 106.94 0 101.99C0 84.935 4.20677 68.8502 11.6115 54.7071C15.1139 48.0067 19.3397 41.7822 24.2127 36.0717C42.9624 14.0099 70.8489 0 101.99 0C148.227 0 187.363 30.9322 199.812 73.1712C202.553 82.3652 204 92.0161 204 102.01Z" fill="#552A80"/>
<path d="M100.417 0.131039C100.686 7.58917 99.4305 15.0944 96.7169 21.7336C88.8929 38.6866 68.0481 45.0814 60.1341 60.3668C52.8547 75.2876 64.0133 90.7923 55.0552 105.818C50.1828 113.76 45.9885 119.17 36.8439 122.72C29.5215 125.629 21.7383 124.098 18.6782 131.437C16.3913 137.893 19.683 148.023 18.9362 154.892C18.8778 156.817 18.7576 158.824 18.5668 160.872C1.93791 136.912 -4.46604 106.186 3.63296 75.96C15.6948 31.093 56.0062 1.18163 100.417 0.131039Z" fill="url(#paint0_linear_1138_2172)" fill-opacity="0.25"/>
<path d="M126.557 200.983C124.709 193.785 124.317 186.211 125.514 179.165C129.432 160.978 148.132 150.245 152.492 133.662C156.318 117.57 142.274 104.9 147.694 88.3429C150.691 79.5617 153.575 73.3899 161.62 67.9575C168.048 63.5425 175.865 63.3478 177.247 55.546C178.072 48.7695 172.745 39.6267 172 32.782C171.646 30.8966 171.334 28.9176 171.081 26.8839C192.193 46.597 204.904 75.1046 203.551 106.264C201.503 152.526 169.078 190.35 126.557 200.983Z" fill="url(#paint1_linear_1138_2172)" fill-opacity="0.25"/>
<path d="M61.8042 60.0083C61.8042 56.6981 64.4877 54.0146 67.7979 54.0146H74.7506C78.0609 54.0146 80.7443 56.6981 80.7443 60.0083V76.3112C80.7443 79.6215 78.0609 82.3049 74.7506 82.3049H67.7979C64.4877 82.3049 61.8042 79.6215 61.8042 76.3112V60.0083Z" fill="#D1D1D1"/>
<path d="M65.6427 60.0083C65.6427 56.6981 68.3261 54.0146 71.6364 54.0146H78.5891C81.8993 54.0146 84.5828 56.6981 84.5828 60.0083V76.3112C84.5828 79.6215 81.8993 82.3049 78.5891 82.3049H71.6364C68.3261 82.3049 65.6427 79.6215 65.6427 76.3112V60.0083Z" fill="white"/>
<path d="M56.0564 63.3645C56.0564 60.0543 58.7399 57.3708 62.0501 57.3708H80.271C83.5812 57.3708 86.2647 60.0543 86.2647 63.3645V87.8189C86.2647 91.1291 83.5812 93.8126 80.271 93.8126H62.0501C58.7399 93.8126 56.0564 91.1291 56.0564 87.8189V63.3645Z" fill="#D7462C"/>
<path d="M62.2881 62.885C62.2881 59.8396 64.7569 57.3708 67.8024 57.3708H84.8245C87.8699 57.3708 90.3387 59.8396 90.3387 62.885V85.9009C90.3387 88.9463 87.8699 91.4151 84.8245 91.4151H67.8024C64.7569 91.4151 62.2881 88.9463 62.2881 85.9009V62.885Z" fill="#DF6B57"/>
<path d="M38.1302 81.8245C38.1302 71.629 46.3953 63.3639 56.5908 63.3639H136.907C147.102 63.3639 155.367 71.629 155.367 81.8245V125.219C155.367 135.415 147.102 143.68 136.907 143.68H56.5908C46.3953 143.68 38.1302 135.415 38.1302 125.219V81.8245Z" fill="#DADADA"/>
<path d="M44.7862 81.8245C44.7862 71.629 53.0513 63.3639 63.2469 63.3639H143.563C153.758 63.3639 162.023 71.629 162.023 81.8245V125.219C162.023 135.415 153.758 143.68 143.563 143.68H63.2469C53.0513 143.68 44.7862 135.415 44.7862 125.219V81.8245Z" fill="#FAFAFA"/>
<path d="M150.291 101.606C150.291 118.753 136.391 132.653 119.244 132.653C102.097 132.653 88.1963 118.753 88.1963 101.606C88.1963 84.459 102.097 70.5585 119.244 70.5585C136.391 70.5585 150.291 84.459 150.291 101.606Z" fill="#B5B5B5"/>
<path d="M156.987 101.606C156.987 118.753 143.087 132.653 125.94 132.653C108.793 132.653 94.8921 118.753 94.8921 101.606C94.8921 84.459 108.793 70.5585 125.94 70.5585C143.087 70.5585 156.987 84.459 156.987 101.606Z" fill="#D9D9D9"/>
<path d="M148.357 101.605C148.357 113.985 138.321 124.022 125.94 124.022C113.56 124.022 103.524 113.985 103.524 101.605C103.524 89.2247 113.56 79.1885 125.94 79.1885C138.321 79.1885 148.357 89.2247 148.357 101.605Z" fill="#454045"/>
<path d="M143.802 101.485C143.802 111.416 135.751 119.467 125.821 119.467C115.89 119.467 107.84 111.416 107.84 101.485C107.84 91.5548 115.89 83.5043 125.821 83.5043C135.751 83.5043 143.802 91.5548 143.802 101.485Z" fill="#2EB4D1"/>
<path fill-rule="evenodd" clip-rule="evenodd" d="M128.099 119.323C136.953 118.202 143.799 110.643 143.799 101.485C143.799 100.058 143.633 98.6696 143.319 97.3385L143.351 97.2916C143.325 97.2431 143.298 97.1937 143.272 97.1435C142.797 95.2277 142.015 93.4331 140.981 91.815C140.458 90.7595 139.857 89.8262 139.109 89.2301L139.056 89.3158C137.937 88.0988 136.652 87.0365 135.237 86.1648L135.29 86.0788C134.876 85.8811 134.482 85.684 134.1 85.4927C132.335 84.6096 130.821 83.8514 128.681 83.7305C127.749 83.5813 126.793 83.5038 125.818 83.5038C115.888 83.5038 107.837 91.5543 107.837 101.485C107.837 106.83 110.169 111.631 113.872 114.924C114.568 115.561 115.34 116.185 116.197 116.808L116.255 116.715C117.694 117.62 119.27 118.327 120.945 118.798L120.864 118.93C121.227 118.967 121.56 119 121.865 119.03C123.137 119.316 124.46 119.466 125.818 119.466C126.499 119.466 127.171 119.428 127.832 119.355C127.912 119.355 127.993 119.355 128.077 119.355L128.099 119.323ZM128.099 119.323L143.319 97.3385C143.304 97.2734 143.288 97.2084 143.272 97.1435C142.885 96.409 142.526 95.5005 142.15 94.552C141.788 93.6369 141.411 92.6845 140.981 91.815C140.412 90.9255 139.767 90.0894 139.056 89.3158L120.945 118.798C121.249 118.883 121.556 118.961 121.865 119.03C123.663 119.209 124.541 119.289 125.421 119.325C126.089 119.353 126.758 119.354 127.832 119.355C127.922 119.345 128.01 119.334 128.099 119.323ZM116.255 116.715L135.237 86.1648C133.27 84.9534 131.053 84.11 128.681 83.7305C128.485 83.7194 128.284 83.7137 128.077 83.7137C127.633 83.7137 127.201 83.7078 126.778 83.702C124.49 83.6709 122.477 83.6435 120.412 84.5718L108.135 104.504C109.174 109.006 110.779 112.095 113.872 114.924C114.614 115.584 115.411 116.184 116.255 116.715Z" fill="white"/>
<path d="M114.077 32.4902C114.077 32.4902 123.077 32.4902 123.077 19.0146C123.077 19.0146 123.077 32.4902 132.077 32.4902C132.077 32.4902 123.077 32.4902 123.077 45.9659C123.028 45.9659 123.028 32.4902 114.077 32.4902Z" fill="white"/>
<path d="M59.0771 176.25C59.0771 176.25 64.5771 176.25 64.5771 168.015C64.5771 168.015 64.5772 176.25 70.0771 176.25C70.0771 176.25 64.5771 176.25 64.5771 184.485C64.5474 184.485 64.5474 176.25 59.0771 176.25Z" fill="white"/>
<path d="M70.0771 165.25C70.0771 165.25 74.2414 165.25 74.2414 159.015C74.2414 159.015 74.2414 165.25 78.4057 165.25C78.4057 165.25 74.2414 165.25 74.2414 171.485C74.2189 171.485 74.2189 165.25 70.0771 165.25Z" fill="white"/>
<path d="M154.694 46.248C156.691 46.248 158.311 44.6287 158.311 42.6313C158.311 40.6338 156.691 39.0146 154.694 39.0146C152.696 39.0146 151.077 40.6338 151.077 42.6313C151.077 44.6287 152.696 46.248 154.694 46.248Z" fill="white"/>
<path d="M46.0771 34.0146C47.734 34.0146 49.0771 32.6714 49.0771 31.0146C49.0771 29.3577 47.734 28.0146 46.0771 28.0146C44.4203 28.0146 43.0771 29.3577 43.0771 31.0146C43.0771 32.6714 44.4203 34.0146 46.0771 34.0146Z" fill="white"/>
<path d="M184.577 148.015C185.958 148.015 187.077 146.895 187.077 145.515C187.077 144.134 185.958 143.015 184.577 143.015C183.196 143.015 182.077 144.134 182.077 145.515C182.077 146.895 183.196 148.015 184.577 148.015Z" fill="white"/>
<path d="M116.577 184.015C117.958 184.015 119.077 182.895 119.077 181.515C119.077 180.134 117.958 179.015 116.577 179.015C115.196 179.015 114.077 180.134 114.077 181.515C114.077 182.895 115.196 184.015 116.577 184.015Z" fill="white"/>
<defs>
<linearGradient id="paint0_linear_1138_2172" x1="0.00309593" y1="102.046" x2="204.008" y2="102.046" gradientUnits="userSpaceOnUse">
<stop stop-color="#E559BD"/>
<stop offset="1" stop-color="#9765E5"/>
</linearGradient>
<linearGradient id="paint1_linear_1138_2172" x1="0.00309593" y1="102.046" x2="204.008" y2="102.046" gradientUnits="userSpaceOnUse">
<stop stop-color="#E559BD"/>
<stop offset="1" stop-color="#9765E5"/>
</linearGradient>
</defs>
</svg>
