<svg width="204" height="204" viewBox="0 0 204 204" fill="none" xmlns="http://www.w3.org/2000/svg">
<path d="M204 102.01C204 103.647 203.981 105.245 203.886 106.863C203.277 119.598 200.326 131.742 195.453 142.84C179.825 178.493 144.363 203.543 103.133 203.981H102.01C58.0573 203.981 20.4819 176.037 6.18643 136.939C3.80704 130.467 2.0558 123.653 1.04693 116.61C0.342633 111.851 0 106.94 0 101.99C0 84.935 4.20677 68.8502 11.6115 54.7071C15.1139 48.0067 19.3397 41.7822 24.2127 36.0717C42.9624 14.0099 70.8489 0 101.99 0C148.227 0 187.363 30.9322 199.812 73.1712C202.553 82.3652 204 92.0161 204 102.01Z" fill="#552A80"/>
<g opacity="0.2">
<path fill-rule="evenodd" clip-rule="evenodd" d="M203.886 106.862C203.981 105.244 204 103.645 204 102.008C204 94.8143 203.25 87.7986 201.808 81.0029C197.589 83.5106 193.804 86.8661 190.721 90.689C188 93.8955 186.42 97.527 184.832 101.178C183.661 103.869 182.486 106.571 180.846 109.121C178.039 113.504 176.597 113.316 173.363 112.893C172.163 112.736 170.717 112.547 168.863 112.547C161.168 112.547 155.598 115.112 151.293 121.946C150.106 123.806 149.319 126.2 148.539 128.576C147.343 132.215 146.162 135.81 143.579 137.373C141.284 138.746 137.759 139.258 134.26 139.766C131.224 140.207 128.206 140.646 126.027 141.642C117.874 144.225 115.309 148.934 112.726 157.05C112.32 158.682 112.084 160.12 111.874 161.404C111.202 165.512 110.786 168.049 105.873 170.352C103.513 171.252 101 171.692 98.4987 172.131C95.098 172.726 91.7166 173.319 88.7609 175.06C83.6125 178.065 80.791 181.968 78.8672 186.548H158.992C174.919 175.778 187.655 160.628 195.453 142.838C200.326 131.741 203.277 119.596 203.886 106.862Z" fill="url(#paint0_linear_1138_1898)"/>
</g>
<g opacity="0.2">
<path fill-rule="evenodd" clip-rule="evenodd" d="M150.783 23.8892C155.015 23.651 158.441 21.9471 161.3 19.4553C160.89 19.0301 160.477 18.6087 160.059 18.1913C143.571 6.72728 123.553 0 101.99 0C70.8489 0 42.9624 14.0099 24.2127 36.0717C19.3397 41.7822 15.1139 48.0067 11.6115 54.7071C4.20677 68.8502 0 84.935 0 101.99C0 106.94 0.342633 111.851 1.04693 116.61C2.0558 123.653 3.80704 130.467 6.18643 136.939C6.98539 139.124 7.85706 141.275 8.7985 143.387C12.8272 137.444 15.9793 130.893 18.0609 125.025C21.597 126.326 24.8949 126.912 27.9546 126.912C47.7969 126.912 57.5624 102.123 54.7775 83.1597C58.1304 84.4239 61.2451 84.9919 64.1032 84.9919C83.4326 84.9919 92.6301 59.3965 96.0013 42.5773C99.6615 42.2969 102.709 43.2491 105.733 44.1939C109.627 45.4103 113.482 46.6147 118.555 45.1606C126.947 43.2185 132.095 38.0701 136.602 30.9796C139.684 25.744 140.41 24.0395 141.594 23.6169C142.888 23.1552 144.728 24.224 150.783 23.8892Z" fill="url(#paint1_linear_1138_1898)"/>
</g>
<path d="M105.359 155.436L82.8413 173.062L59.0781 160.291L70.6757 140.742L105.359 155.436Z" fill="#300068"/>
<path fill-rule="evenodd" clip-rule="evenodd" d="M164.598 182.476C147.581 195.742 126.264 203.735 103.132 203.981H102.009C74.4163 203.981 49.3371 192.968 30.9531 175.096L50.5703 155.727L59.0715 160.289L82.8347 173.06L105.352 155.434L123.417 141.271L164.598 182.476Z" fill="#461976"/>
<path d="M146.602 103.86C118.075 90.6315 95.2096 126.322 66.6828 113.094C64.5941 94.9737 62.4871 76.8536 60.3984 58.7335C88.9253 71.9617 111.791 36.2711 140.318 49.4993C142.425 67.6195 144.513 85.7396 146.602 103.86Z" fill="#59C1BD"/>
<path opacity="0.1" d="M90.7783 85.5317C98.7321 81.1586 102.773 73.2359 99.804 67.8359C96.835 62.4358 87.9804 61.6033 80.0266 65.9764C72.0728 70.3494 68.0319 78.2721 71.0009 83.6722C73.9699 89.0723 82.8246 89.9048 90.7783 85.5317Z" fill="white"/>
<path opacity="0.1" d="M77.9931 74.4309C81.673 72.4077 83.5416 68.7404 82.1668 66.2399C80.7919 63.7394 76.6943 63.3525 73.0145 65.3757C69.3347 67.3989 67.4661 71.0661 68.8409 73.5667C70.2157 76.0672 74.3133 76.4541 77.9931 74.4309Z" fill="white"/>
<g opacity="0.15">
<path d="M146.603 103.862C118.077 90.615 95.1928 126.306 66.666 113.096C66.5378 112.015 66.4095 110.952 66.2812 109.871C94.5516 120.772 117.838 88.6546 145.98 98.5666C146.2 100.344 146.402 102.084 146.603 103.862Z" fill="black"/>
</g>
<path d="M71.9451 151.57C71.3039 151.57 70.7542 151.094 70.6626 150.434L59.12 54.8132C59.0284 54.0987 59.5414 53.4574 60.2376 53.3841C60.9521 53.3109 61.5934 53.8055 61.6667 54.5018L73.2093 150.123C73.3009 150.837 72.7879 151.478 72.0917 151.552C72.0367 151.57 71.9818 151.57 71.9451 151.57Z" fill="white"/>
<path opacity="0.4" fill-rule="evenodd" clip-rule="evenodd" d="M153.833 189.817C138.936 198.643 121.613 203.785 103.132 203.981H102.008C96.4645 203.981 91.022 203.536 85.7148 202.681L125.017 167.82L116.699 197.135L139.674 180.187L153.833 189.817Z" fill="#300068"/>
<path opacity="0.4" fill-rule="evenodd" clip-rule="evenodd" d="M36.7068 180.283C34.7239 178.627 32.8045 176.897 30.9531 175.097L50.5696 155.729L51.2068 190.409C50.7432 190.142 50.2819 189.871 49.8229 189.597L37.0299 180.06L36.7068 180.283Z" fill="#300068"/>
<path d="M47.0078 90.2741C47.0078 90.2741 49.0598 90.2741 49.0598 87.1777C49.0598 87.1777 49.0598 90.2741 51.1119 90.2741C51.1119 90.2741 49.0598 90.2741 49.0598 93.3705C49.0782 93.3705 49.0782 90.2741 47.0078 90.2741Z" fill="white"/>
<path d="M108.609 116.6C108.609 116.6 110.661 116.6 110.661 113.504C110.661 113.504 110.661 116.6 112.713 116.6C112.713 116.6 110.661 116.6 110.661 119.697C110.68 119.697 110.68 116.6 108.609 116.6Z" fill="white"/>
<path d="M157.219 147.436C157.219 147.436 159.271 147.436 159.271 144.34C159.271 144.34 159.271 147.436 161.323 147.436C161.323 147.436 159.271 147.436 159.271 150.533C159.289 150.514 159.289 147.436 157.219 147.436Z" fill="white"/>
<path d="M25.5469 58.2467C25.5469 58.2467 27.5989 58.2468 27.5989 55.1504C27.5989 55.1504 27.5989 58.2467 29.6509 58.2467C29.6509 58.2467 27.5989 58.2467 27.5989 61.3431C27.5989 61.3431 27.5989 58.2467 25.5469 58.2467Z" fill="white"/>
<path d="M91.6484 27.411C91.6484 27.411 95.038 27.411 95.038 22.3359C95.038 22.3359 95.0379 27.411 98.4275 27.411C98.4275 27.411 95.038 27.411 95.038 32.4861C95.0196 32.4861 95.0196 27.411 91.6484 27.411Z" fill="white"/>
<path d="M22.1562 143.954C22.1562 143.954 25.5458 143.954 25.5458 138.879C25.5458 138.879 25.5458 143.954 28.9353 143.954C28.9353 143.954 25.5458 143.954 25.5458 149.029C25.5458 149.029 25.5458 143.954 22.1562 143.954Z" fill="white"/>
<path d="M163.102 61.3427C163.102 61.3427 166.491 61.3427 166.491 56.2676C166.491 56.2676 166.491 61.3427 169.881 61.3427C169.881 61.3427 166.491 61.3427 166.491 66.4178C166.473 66.4178 166.473 61.3427 163.102 61.3427Z" fill="white"/>
<defs>
<linearGradient id="paint0_linear_1138_1898" x1="78.8608" y1="132.732" x2="205.955" y2="132.732" gradientUnits="userSpaceOnUse">
<stop stop-color="#E559BD"/>
<stop offset="1" stop-color="#9765E5"/>
</linearGradient>
<linearGradient id="paint1_linear_1138_1898" x1="-0.168079" y1="72.4192" x2="161.303" y2="72.4192" gradientUnits="userSpaceOnUse">
<stop stop-color="#E559BD"/>
<stop offset="1" stop-color="#9765E5"/>
</linearGradient>
</defs>
</svg>
