<svg width="205" height="205" viewBox="0 0 205 205" fill="none" xmlns="http://www.w3.org/2000/svg">
<path d="M204.011 102.62C204.011 104.257 203.992 105.856 203.897 107.474C203.288 120.209 200.338 132.353 195.465 143.451C179.837 179.104 144.374 204.154 103.144 204.592H102.021C58.0688 204.592 20.4933 176.648 6.1979 137.55C3.8185 131.078 2.06727 124.263 1.0584 117.22C0.354099 112.462 0.0114663 107.55 0.0114663 102.601C0.0114663 85.5458 4.21824 69.4611 11.6229 55.318C15.1254 48.6176 19.3512 42.3931 24.2242 36.6825C42.9739 14.6207 70.8604 0.610848 102.002 0.610848C148.238 0.610848 187.375 31.543 199.824 73.7821C202.565 82.9761 204.011 92.6269 204.011 102.62Z" fill="#552A80"/>
<path d="M151.932 12.3826C148.446 18.9375 143.628 24.7791 137.988 29.1536C122.819 39.8811 101.727 35.076 87.3114 44.3229C73.6227 53.5699 75.4802 72.4407 60.2974 80.9473C52.1541 85.3756 45.8549 87.9599 36.2311 86.4928C28.4916 85.3756 22.5693 80.207 16.2835 85.0122C11.1014 89.4405 8.88055 99.7912 4.81566 105.337C3.80617 106.965 2.70246 108.634 1.51798 110.303C-0.824038 81.4453 8.98823 51.8201 31.0086 29.7997C63.7297 -2.86751 113.262 -8.68218 151.932 12.3826Z" fill="url(#paint0_linear_1138_2132)" fill-opacity="0.25"/>
<path d="M78.0614 201.877C79.7322 194.643 82.8747 187.754 87.1901 182.069C99.066 167.781 120.683 166.963 132.214 154.3C143.043 141.825 136.364 124.078 148.828 111.932C155.548 105.547 160.964 101.42 170.639 100.347C178.404 99.4226 185.462 102.882 190.29 96.6139C194.15 90.9953 193.616 80.4225 196.107 74.0139C196.661 72.1795 197.295 70.2817 198.007 68.3629C207.738 95.6315 205.928 126.787 190.357 153.756C167.206 193.779 120.866 212.216 78.0614 201.877Z" fill="url(#paint1_linear_1138_2132)" fill-opacity="0.25"/>
<path fill-rule="evenodd" clip-rule="evenodd" d="M181.049 71.1679C183.506 73.0544 183.967 76.5749 182.081 79.0312L127.928 149.541C126.042 151.997 122.521 152.459 120.065 150.572C117.609 148.686 117.147 145.165 119.033 142.709L173.186 72.1996C175.072 69.7434 178.593 69.2814 181.049 71.1679Z" fill="white" fill-opacity="0.2"/>
<path fill-rule="evenodd" clip-rule="evenodd" d="M123.373 13.3319C125.74 15.3292 126.04 18.8672 124.043 21.2342L96.1066 54.3407C94.1093 56.7078 90.5713 57.0075 88.2043 55.0101C85.8372 53.0128 85.5375 49.4747 87.5349 47.1077L115.471 14.0012C117.468 11.6342 121.006 11.3345 123.373 13.3319Z" fill="white" fill-opacity="0.6"/>
<path fill-rule="evenodd" clip-rule="evenodd" d="M55.5282 112.331C57.8952 114.329 58.1949 117.867 56.1975 120.234L28.2617 153.34C26.2643 155.707 22.7263 156.007 20.3593 154.009C17.9922 152.012 17.6926 148.474 19.6899 146.107L47.6258 113.001C49.6231 110.634 53.1611 110.334 55.5282 112.331Z" fill="white" fill-opacity="0.15"/>
<path fill-rule="evenodd" clip-rule="evenodd" d="M0.62478 113.98C0.205316 110.248 -1.52719e-07 106.439 0 102.608C6.85157e-08 100.78 0.0483228 98.9634 0.143726 97.159L14.6221 80.0008C16.6195 77.6338 20.1575 77.3341 22.5245 79.3314C24.8915 81.3288 25.1912 84.8668 23.1939 87.2338L0.62478 113.98Z" fill="white" fill-opacity="0.6"/>
<path fill-rule="evenodd" clip-rule="evenodd" d="M83.0816 62.3414C85.4765 64.3053 85.826 67.8387 83.8622 70.2336L81.5413 73.064C79.5775 75.459 76.0441 75.8085 73.6491 73.8447C71.2542 71.8808 70.9047 68.3474 72.8685 65.9525L75.1895 63.122C77.1533 60.7271 80.6867 60.3776 83.0816 62.3414Z" fill="white" fill-opacity="0.8"/>
<path fill-rule="evenodd" clip-rule="evenodd" d="M186.316 111.278C188.711 113.241 189.061 116.775 187.097 119.17L177.04 131.435C175.076 133.83 171.543 134.179 169.148 132.216C166.753 130.252 166.403 126.718 168.367 124.323L178.424 112.058C180.388 109.663 183.922 109.314 186.316 111.278Z" fill="white" fill-opacity="0.6"/>
<path fill-rule="evenodd" clip-rule="evenodd" d="M165.512 137.609C167.907 139.573 168.257 143.106 166.293 145.501L163.972 148.332C162.008 150.727 158.475 151.076 156.08 149.112C153.685 147.149 153.335 143.615 155.299 141.22L157.62 138.39C159.584 135.995 163.117 135.645 165.512 137.609Z" fill="white" fill-opacity="0.4"/>
<path fill-rule="evenodd" clip-rule="evenodd" d="M153.137 152.705C155.532 154.669 155.882 158.202 153.918 160.597L151.597 163.428C149.633 165.822 146.1 166.172 143.705 164.208C141.31 162.244 140.96 158.711 142.924 156.316L145.245 153.486C147.209 151.091 150.742 150.741 153.137 152.705Z" fill="white" fill-opacity="0.15"/>
<path fill-rule="evenodd" clip-rule="evenodd" d="M114.66 156.885C117.055 158.848 117.405 162.382 115.441 164.777L113.12 167.607C111.156 170.002 107.623 170.352 105.228 168.388C102.833 166.424 102.483 162.891 104.447 160.496L106.768 157.665C108.732 155.27 112.265 154.921 114.66 156.885Z" fill="white" fill-opacity="0.6"/>
<path fill-rule="evenodd" clip-rule="evenodd" d="M103.137 171.894C105.532 173.858 105.881 177.392 103.917 179.787L101.597 182.617C99.6328 185.012 96.0993 185.361 93.7044 183.398C91.3095 181.434 90.96 177.9 92.9238 175.505L95.2447 172.675C97.2085 170.28 100.742 169.931 103.137 171.894Z" fill="white" fill-opacity="0.4"/>
<path fill-rule="evenodd" clip-rule="evenodd" d="M65.0767 154.76C67.4717 156.724 67.8212 160.257 65.8573 162.652L63.5364 165.483C61.5726 167.877 58.0392 168.227 55.6442 166.263C53.2493 164.299 52.8998 160.766 54.8637 158.371L57.1846 155.541C59.1484 153.146 62.6818 152.796 65.0767 154.76Z" fill="white"/>
<path fill-rule="evenodd" clip-rule="evenodd" d="M47.1088 51.375C49.5037 53.3388 49.8532 56.8722 47.8894 59.2672L45.5685 62.0976C43.6046 64.4925 40.0712 64.842 37.6763 62.8782C35.2814 60.9144 34.9319 57.3809 36.8957 54.986L39.2166 52.1556C41.1804 49.7607 44.7139 49.4112 47.1088 51.375Z" fill="white" fill-opacity="0.8"/>
<path fill-rule="evenodd" clip-rule="evenodd" d="M59.4916 36.2812C61.8865 38.245 62.236 41.7785 60.2722 44.1734L57.9513 47.0038C55.9875 49.3988 52.454 49.7482 50.0591 47.7844C47.6642 45.8206 47.3147 42.2872 49.2785 39.8923L51.5994 37.0618C53.5632 34.6669 57.0967 34.3174 59.4916 36.2812Z" fill="white" fill-opacity="0.4"/>
<path fill-rule="evenodd" clip-rule="evenodd" d="M44.1356 85.2787C46.5305 87.2425 46.88 90.776 44.9162 93.1709L42.5953 96.0013C40.6315 98.3963 37.098 98.7457 34.7031 96.7819C32.3082 94.8181 31.9587 91.2847 33.9225 88.8897L36.2434 86.0593C38.2072 83.6644 41.7407 83.3149 44.1356 85.2787Z" fill="white" fill-opacity="0.7"/>
<path d="M125.655 73.0182C127.433 72.519 129.18 73.9019 129.103 75.7472L126.048 148.399C125.955 150.615 123.388 151.791 121.649 150.415L54.6929 97.4143C52.9536 96.0375 53.5089 93.2692 55.6446 92.6698L125.655 73.0182Z" fill="#F8515C"/>
<path d="M134.108 103.407C132.035 106.025 130.013 108.43 128.064 110.608L98.0483 146.602L80.7908 133.23L63.8418 119.525L91.9391 82.0279C93.6195 79.6218 95.4951 77.1013 97.5679 74.4827C101.452 69.5764 105.411 65.4621 109.321 62.0709C113.09 58.7628 116.813 56.1357 120.367 53.9872C120.889 53.6679 121.396 53.367 121.922 53.0806C122.429 52.7797 122.947 52.5025 123.458 52.2345C123.962 51.9757 124.457 51.7096 124.96 51.4508C125.466 51.2085 125.955 50.968 126.446 50.7441C126.682 50.6166 126.928 50.5128 127.173 50.3926C127.37 50.2946 127.562 50.2222 127.768 50.1315C128.3 49.8945 128.824 49.6667 129.331 49.4408C130.279 49.0552 131.214 48.7045 132.109 48.3668C132.767 48.1402 133.399 47.9082 134.011 47.7202C134.252 47.6421 134.493 47.564 134.742 47.4767L134.76 47.4912C135.186 47.3499 135.606 47.2343 136.025 47.1022C137.267 46.7407 138.452 46.4528 139.567 46.2146C139.94 46.1212 140.307 46.0534 140.665 45.9784L140.684 45.9929C140.766 45.9833 140.846 45.9573 140.936 45.9385C141.669 45.7865 142.366 45.6804 143.03 45.5782C143.15 45.5391 143.291 45.5311 143.439 45.5139C143.503 45.4897 143.578 45.4893 143.651 45.4725L143.67 45.487C143.98 45.4342 144.277 45.3997 144.582 45.3725C145.166 45.2963 145.692 45.235 146.197 45.2013C146.933 45.1408 147.571 45.1082 148.12 45.0944C149.679 45.0132 150.556 45.0946 150.556 45.0946C150.556 45.0946 150.716 45.6099 150.939 46.5933C150.958 46.6829 150.984 46.7633 151.014 46.8766C151.029 47.0083 151.05 47.1143 151.072 47.2368C151.147 47.5951 151.224 47.9699 151.298 48.3868C151.358 48.6884 151.413 49.0157 151.478 49.3668C151.666 50.6212 151.826 52.1375 151.91 53.8628C151.943 54.3678 151.97 54.8819 151.982 55.4144C152.097 59.6303 151.749 64.9594 150.328 71.0975C150.229 71.5427 150.122 71.9806 150.014 72.4186C149.916 72.8638 149.792 73.3036 149.661 73.7527C149.575 74.088 149.481 74.4326 149.379 74.7698C149.221 75.3471 149.044 75.9099 148.853 76.491C147.6 80.4907 145.856 84.7143 143.513 89.1662C141.058 93.7394 137.985 98.5098 134.108 103.407Z" fill="white"/>
<path opacity="0.15" d="M125.942 93.6195C122.225 98.3163 115.395 99.1109 110.711 95.4033C110.516 95.2489 110.338 95.0865 110.163 94.906C109.078 93.9515 108.235 92.7974 107.658 91.5475C107.236 90.7165 106.956 89.8278 106.792 88.9255C106.227 86.0026 106.877 82.8558 108.826 80.3139C108.854 80.2516 108.89 80.2061 108.931 80.154C111.676 76.6867 116.128 75.3538 120.16 76.4084C121.578 76.7691 122.949 77.4306 124.165 78.3935C125.421 79.3874 126.395 80.6029 127.072 81.9535C127.503 82.7714 127.818 83.6444 128.01 84.5375C128.323 85.9067 128.359 87.3319 128.132 88.7285C127.82 90.4716 127.106 92.1494 125.942 93.6195Z" fill="black"/>
<path d="M148.871 76.4125C146.267 77.266 138.333 78.9064 129.384 71.8226C120.444 64.7461 120.212 56.6566 120.418 53.9049C137.091 43.9237 150.599 45.0215 150.599 45.0215C150.599 45.0215 154.76 57.9094 148.871 76.4125Z" fill="#DB343F"/>
<path opacity="0.1" d="M151.404 48.7818C148.12 48.7384 134.482 50.7505 120.774 58.685C120.315 56.603 120.342 54.9063 120.418 53.9049C137.075 43.9256 150.608 45.0288 150.608 45.0288C150.608 45.0288 151.031 46.3644 151.404 48.7818Z" fill="white"/>
<path d="M124.262 92.2984C121.275 96.0714 115.791 96.7035 112.031 93.7272C111.875 93.6036 111.736 93.4722 111.595 93.3291C110.726 92.5561 110.046 91.6371 109.586 90.6275C109.248 89.958 109.024 89.2517 108.892 88.5229C108.435 86.1722 108.963 83.648 110.526 81.6057C110.544 81.5563 110.575 81.5173 110.606 81.4783C112.81 78.694 116.389 77.6221 119.623 78.4684C120.761 78.7554 121.863 79.2887 122.838 80.0611C123.847 80.8593 124.633 81.8309 125.167 82.9204C125.515 83.5769 125.768 84.2739 125.916 84.9949C126.168 86.0937 126.195 87.2364 126.013 88.362C125.769 89.7665 125.199 91.1144 124.262 92.2984Z" fill="#552A80"/>
<path opacity="0.2" d="M125.169 82.9328L108.887 88.5302C108.43 86.1795 108.958 83.6553 110.521 81.6129L119.618 78.4757C120.756 78.7626 121.857 79.296 122.833 80.0684C123.848 80.8717 124.634 81.8433 125.169 82.9328Z" fill="white"/>
<path opacity="0.2" d="M126.02 88.3665L111.589 93.3233C110.72 92.5504 110.04 91.6313 109.58 90.6217L125.923 84.9878C126.182 86.1034 126.209 87.2461 126.02 88.3665Z" fill="white"/>
<rect x="64.8672" y="123.523" width="37.1187" height="7.24266" rx="2.716" transform="rotate(38.3641 64.8672 123.523)" fill="#B8B8B8"/>
<rect x="64.8672" y="123.523" width="17.2013" height="7.24266" rx="2.716" transform="rotate(38.3641 64.8672 123.523)" fill="#898989"/>
<rect x="64.4844" y="117.447" width="45.7193" height="7.24266" rx="2.716" transform="rotate(38.3641 64.4844 117.447)" fill="#DB343F"/>
<rect x="64.4844" y="117.447" width="37.1187" height="6.33733" rx="2.50087" transform="rotate(38.3641 64.4844 117.447)" fill="#F8515C"/>
<path d="M53.4737 168.192C48.6711 164.391 55.5405 147.712 58.7084 143.71C61.8763 139.708 68.3377 139.546 73.1402 143.347C77.9427 147.149 79.2678 153.475 76.0999 157.477C72.9319 161.479 58.2762 171.994 53.4737 168.192Z" fill="#F79548"/>
<path d="M58.5326 161.803C55.6903 159.554 61.0736 148.018 63.3365 145.159C65.5993 142.301 69.7378 141.807 72.5801 144.057C75.4224 146.307 75.8922 150.448 73.6294 153.307C71.3665 156.166 61.3749 164.053 58.5326 161.803Z" fill="#FCBB76"/>
<defs>
<linearGradient id="paint0_linear_1138_2132" x1="0.00309611" y1="102.409" x2="204.02" y2="102.409" gradientUnits="userSpaceOnUse">
<stop stop-color="#E559BD"/>
<stop offset="1" stop-color="#9765E5"/>
</linearGradient>
<linearGradient id="paint1_linear_1138_2132" x1="0.00309611" y1="102.409" x2="204.02" y2="102.409" gradientUnits="userSpaceOnUse">
<stop stop-color="#E559BD"/>
<stop offset="1" stop-color="#9765E5"/>
</linearGradient>
</defs>
</svg>
