<svg width="204" height="205" viewBox="0 0 204 205" fill="none" xmlns="http://www.w3.org/2000/svg">
<circle cx="102" cy="102" r="102" fill="#552A80"/>
<g opacity="0.2">
<path d="M151.099 124.622L145.131 134.343L102.034 204.371L101.998 204.407L101.723 203.986L60.4206 136.797L53.4453 125.482C56.1182 122.059 58.5898 118.58 60.805 114.955C67.3958 103.843 73.3092 93.4438 81.2914 82.9901C86.857 75.7036 91.7452 63.1994 99.3612 58.3295C109.467 51.3726 145.698 117.061 151.099 124.622Z" fill="url(#paint0_linear_1138_2022)"/>
</g>
<g opacity="0.2">
<path d="M145.114 134.343L102.035 204.37L101.724 203.986L60.4219 136.796C64.4313 129.034 70.1982 117.5 71.3699 114.955C76.2947 103.842 80.7069 93.4432 86.6203 82.9895C90.7579 75.703 94.4377 63.1988 100.095 58.3289C106.374 52.5253 133.854 110.616 145.114 134.343Z" fill="url(#paint1_linear_1138_2022)"/>
</g>
<path d="M163.171 79.6547C163.171 86.4835 151.6 94.3925 135.563 99.4454C132.139 100.526 128.496 101.478 124.725 102.283C117.475 103.784 109.749 104.681 102.023 104.681C100.101 104.681 98.1783 104.627 96.2743 104.517C84.7038 103.876 73.4262 101.404 64.0892 97.9625C50.395 92.9279 40.875 85.8794 40.875 79.673C40.875 68.5602 63.1189 65.7774 63.1189 65.7774H140.945C140.927 65.7591 163.171 68.5419 163.171 79.6547Z" fill="white"/>
<path opacity="0.2" d="M135.56 99.4461C132.137 100.526 128.494 101.478 124.722 102.284L114.195 65.7598H117.967L135.56 99.4461Z" fill="white"/>
<path opacity="0.2" d="M99.1009 65.7598L96.2632 104.499C84.6927 103.858 73.4151 101.387 64.0781 97.9448L85.2968 68.5425L87.1276 65.7598H99.1009Z" fill="white"/>
<path opacity="0.2" d="M163.171 79.6555C163.171 90.7683 132.597 104.664 102.023 104.664C71.449 104.664 40.875 90.7683 40.875 79.6555C40.875 79.1246 40.9299 78.6486 41.0215 78.1543C43.2367 89.0291 72.6573 101.863 102.023 101.863C131.389 101.863 160.809 89.0291 163.024 78.1543C163.116 78.6486 163.171 79.1246 163.171 79.6555Z" fill="black"/>
<path d="M63.1016 71.3064C63.1016 46.2979 88.11 32.4023 102.006 32.4023C115.901 32.4023 140.91 46.2979 140.91 71.3064C140.91 79.6364 115.901 85.2019 102.006 85.2019C88.11 85.2019 63.1016 79.6364 63.1016 71.3064Z" fill="#689AE5"/>
<g opacity="0.15">
<path d="M140.924 71.3081C140.924 79.6382 115.916 85.2037 102.02 85.2037C88.7107 85.2037 65.2219 80.1142 63.2812 72.37C71.5014 76.892 86.7152 79.6199 96.4366 79.6199C110.332 79.6199 135.341 74.0543 135.341 65.7243C135.341 56.4422 131.899 48.6614 126.828 42.6016C134.755 49.2107 140.924 58.8955 140.924 71.3081Z" fill="black"/>
</g>
<path d="M63.0916 89.5583C65.4981 89.5583 67.4489 87.6074 67.4489 85.201C67.4489 82.7946 65.4981 80.8438 63.0916 80.8438C60.6852 80.8438 58.7344 82.7946 58.7344 85.201C58.7344 87.6074 60.6852 89.5583 63.0916 89.5583Z" fill="#689AE5"/>
<path opacity="0.1" d="M64.1693 86.3778C65.3674 85.2907 65.6392 83.6384 64.7763 82.6874C63.9133 81.7364 62.2425 81.8467 61.0444 82.9339C59.8463 84.021 59.5745 85.6733 60.4375 86.6243C61.3004 87.5753 62.9712 87.465 64.1693 86.3778Z" fill="white"/>
<path opacity="0.1" d="M62.6568 84.6888C63.5255 83.9006 63.7229 82.7032 63.0978 82.0142C62.4727 81.3253 61.2618 81.4058 60.3931 82.194C59.5245 82.9821 59.3271 84.1796 59.9522 84.8685C60.5773 85.5574 61.7882 85.477 62.6568 84.6888Z" fill="white"/>
<path opacity="0.1" d="M99.3291 67.1701C108.064 60.4987 111.418 50.2116 106.821 44.1932C102.224 38.1747 91.4165 38.7041 82.6821 45.3754C73.9478 52.0468 70.5937 62.334 75.1907 68.3524C79.7876 74.3708 90.5948 73.8415 99.3291 67.1701Z" fill="white"/>
<path opacity="0.1" d="M90.9541 57.1024C96.8922 52.5668 99.1685 45.568 96.0384 41.47C92.9083 37.372 85.5571 37.7267 79.619 42.2622C73.681 46.7978 71.4046 53.7967 74.5347 57.8947C77.6648 61.9927 85.016 61.638 90.9541 57.1024Z" fill="white"/>
<path d="M102.185 97.7418C104.592 97.7418 106.543 95.791 106.543 93.3846C106.543 90.9782 104.592 89.0273 102.185 89.0273C99.7789 89.0273 97.8281 90.9782 97.8281 93.3846C97.8281 95.791 99.7789 97.7418 102.185 97.7418Z" fill="#689AE5"/>
<path opacity="0.1" d="M103.279 94.5712C104.477 93.484 104.749 91.8318 103.886 90.8808C103.023 89.9297 101.352 90.0401 100.154 91.1272C98.9557 92.2144 98.6839 93.8667 99.5468 94.8177C100.41 95.7687 102.081 95.6583 103.279 94.5712Z" fill="white"/>
<path opacity="0.1" d="M101.751 92.8939C102.619 92.1057 102.817 90.9082 102.192 90.2193C101.566 89.5304 100.356 89.6109 99.4869 90.399C98.6182 91.1872 98.4208 92.3847 99.0459 93.0736C99.671 93.7625 100.882 93.682 101.751 92.8939Z" fill="white"/>
<path d="M140.928 89.6872C143.334 89.6872 145.285 87.7363 145.285 85.3299C145.285 82.9235 143.334 80.9727 140.928 80.9727C138.521 80.9727 136.57 82.9235 136.57 85.3299C136.57 87.7363 138.521 89.6872 140.928 89.6872Z" fill="#689AE5"/>
<path opacity="0.1" d="M142.021 86.5165C143.219 85.4293 143.491 83.7771 142.628 82.8261C141.765 81.8751 140.094 81.9854 138.896 83.0726C137.698 84.1597 137.426 85.812 138.289 86.763C139.152 87.714 140.823 87.6036 142.021 86.5165Z" fill="white"/>
<path opacity="0.1" d="M140.493 84.8392C141.361 84.051 141.559 82.8536 140.934 82.1646C140.309 81.4757 139.098 81.5562 138.229 82.3444C137.36 83.1325 137.163 84.33 137.788 85.0189C138.413 85.7078 139.624 85.6274 140.493 84.8392Z" fill="white"/>
<g opacity="0.2">
<path fill-rule="evenodd" clip-rule="evenodd" d="M10.8242 56.2265C17.0631 43.8234 25.7584 32.8683 36.2714 24H84.5359C84.2064 24.4943 83.8403 24.9703 83.4741 25.4463C79.8309 30.1697 74.0456 34.5087 68.6265 37.4013C66.4615 38.3915 63.8465 38.7778 61.3333 39.1491C58.3634 39.5879 55.5356 40.0056 53.7606 41.3741C51.5451 42.9974 49.7794 46.4142 48.0221 49.8147C46.6283 52.5119 45.2398 55.1988 43.6364 56.9723C39.2792 62.0252 33.1277 67.8105 26.5919 69.6413C24.5383 70.1174 22.4243 69.8195 20.3285 69.5242C19.8458 69.4562 19.3641 69.3883 18.8843 69.33L10.8242 56.2265Z" fill="url(#paint2_linear_1138_2022)"/>
</g>
<g opacity="0.2">
<path fill-rule="evenodd" clip-rule="evenodd" d="M167.73 24C178.243 32.8682 186.938 43.823 193.177 56.2259L184.88 69.7145C180.98 68.5245 177.703 66.5656 174.737 63.1054C173.279 61.5009 172.111 58.8854 170.978 56.3487C169.565 53.1834 168.206 50.1408 166.407 49.338C164.762 48.6781 162.956 48.9214 161.067 49.1759C158.816 49.4793 156.445 49.7987 154.086 48.6239C149.747 46.0975 148.667 41.7219 147.935 37.0351C137.316 37.3647 126.716 33.758 125.562 24H167.73Z" fill="url(#paint3_linear_1138_2022)"/>
</g>
<path d="M44.3516 35.7187C44.3516 35.7187 46.5668 35.7187 46.5668 32.3867C46.5668 32.3867 46.5668 35.7187 48.782 35.7187C48.782 35.7187 46.5668 35.7187 46.5668 39.0507C46.5851 39.0507 46.5851 35.7187 44.3516 35.7187Z" fill="white"/>
<path d="M150.719 102.285C150.719 102.285 152.934 102.285 152.934 98.9531C152.934 98.9531 152.934 102.285 155.149 102.285C155.149 102.285 152.934 102.285 152.934 105.617C152.952 105.617 152.952 102.285 150.719 102.285Z" fill="white"/>
<path d="M148.859 35.7187C148.859 35.7187 151.075 35.7187 151.075 32.3867C151.075 32.3867 151.075 35.7187 153.29 35.7187C153.29 35.7187 151.075 35.7187 151.075 39.0507C151.093 39.0507 151.093 35.7187 148.859 35.7187Z" fill="white"/>
<path d="M30.4766 61.5679C30.4766 61.5679 34.1198 61.5679 34.1198 56.0939C34.1198 56.0939 34.1198 61.5679 37.7631 61.5679C37.7631 61.5679 34.1198 61.5679 34.1198 67.0419C34.1198 67.0419 34.1198 61.5679 30.4766 61.5679Z" fill="white"/>
<path d="M171.32 51.4096C171.32 51.4096 174.964 51.4096 174.964 45.9355C174.964 45.9355 174.964 51.4096 178.607 51.4096C178.607 51.4096 174.964 51.4096 174.964 56.8836C174.964 56.8836 174.964 51.4096 171.32 51.4096Z" fill="white"/>
<path d="M124.14 152.41L120.365 146.377C120.103 145.956 119.667 145.676 119.174 145.618C118.224 145.505 116.622 145.115 115.968 143.78C115.009 141.824 117.313 137.485 113.713 134.861C110.116 132.239 105.9 132.33 102.455 131.632C99.0103 130.934 95.748 124.654 95.748 124.654C95.748 124.654 97.0341 125.321 98.5452 125.22C99.4223 125.162 100.212 124.745 100.719 124.403C101.005 124.211 100.971 123.78 100.659 123.637C99.8959 123.287 98.6295 122.781 97.8085 122.837C96.5713 122.923 95.5175 123.116 95.5175 123.116C95.5175 123.116 95.0271 121.867 95.3284 121.048C95.6297 120.23 95.9573 119.282 95.9573 119.282C95.9573 119.282 94.4075 119.917 94.3801 120.721C92.9666 118.676 91.2462 119.141 91.2462 119.141C91.2462 119.141 92.3628 119.975 92.4004 120.459C92.4385 120.939 91.8645 122.108 90.7585 121.547C89.6566 120.983 86.135 118.984 85.3012 119.086C84.4674 119.188 83.5395 120.818 84.0815 121.469C84.6269 122.122 87.9253 124.966 88.7095 127.561C88.9466 128.345 89.2084 131.529 87.758 135.36C86.6177 138.364 83.2054 142.291 81.7935 143.84C81.4626 144.204 81.5139 144.773 81.9092 145.069C82.2019 145.288 82.604 145.293 82.9018 145.075C83.9704 144.295 86.4551 142.442 87.3548 141.363C88.0931 140.481 88.8479 139.379 89.3025 138.696C89.5439 138.328 90.0238 138.207 90.4147 138.404C90.6728 138.536 90.8512 138.788 90.8825 139.079C90.9824 140.01 91.1507 142.111 90.7631 143.27C90.3795 144.408 88.965 146.964 88.4703 148.223C88.3136 148.618 88.4728 149.068 88.843 149.282C89.2104 149.492 89.6722 149.408 89.9368 149.079C90.6873 148.154 92.1152 146.32 92.5165 145.317C93.067 143.938 93.7088 142.108 93.7088 142.108L101.8 143.887C101.8 143.887 101.896 144.355 102.17 144.959L100.766 146.159C100.501 146.383 100.469 146.783 100.697 147.048C100.921 147.312 101.321 147.345 101.586 147.117L102.826 146.058C103.189 146.531 103.671 146.98 104.302 147.299L103.826 148.944C103.731 149.275 103.924 149.627 104.255 149.725C104.586 149.82 104.938 149.628 105.037 149.297L105.501 147.691C106.021 147.8 106.502 147.86 106.935 147.885L107.232 149.3C107.303 149.638 107.64 149.859 107.978 149.788C108.315 149.718 108.536 149.38 108.466 149.043L108.216 147.856C109.085 147.768 109.586 147.563 109.586 147.563C109.586 147.563 111.049 149.688 111.112 150.715C111.153 151.436 110.735 154.117 110.477 155.664C110.379 156.252 110.826 156.791 111.424 156.804C111.867 156.814 112.263 156.526 112.387 156.099L113.908 150.945L112.405 146.373C112.263 145.945 112.829 145.653 113.105 146.007C113.792 146.901 113.933 147.371 114.596 147.839C116.077 148.882 118.133 148.819 118.133 148.819L122.343 153.735C122.761 154.223 123.505 154.258 123.97 153.814C124.35 153.446 124.421 152.859 124.14 152.41Z" fill="#300068"/>
<path d="M114.305 137.624C114.258 137.615 114.21 137.595 114.167 137.568C113.983 137.448 113.928 137.204 114.049 137.02C115.393 134.933 119.471 137.135 120.686 137.857C121.663 138.438 122.812 137.864 123.452 137.003C124.198 135.994 124.492 134.288 122.857 132.803C122.696 132.656 122.685 132.404 122.832 132.242C122.979 132.081 123.229 132.066 123.393 132.217C125.288 133.942 125.111 136.103 124.092 137.481C123.101 138.819 121.498 139.269 120.279 138.546C118.024 137.207 115.432 136.348 114.718 137.454C114.628 137.589 114.462 137.656 114.305 137.624Z" fill="#300068"/>
<path d="M122.045 129.475C122.045 129.475 120.648 133.869 123.724 133.985C125.848 134.064 125.421 131.973 123.767 131.697C122.876 131.547 122.045 129.475 122.045 129.475Z" fill="#300068"/>
<defs>
<linearGradient id="paint0_linear_1138_2022" x1="102.273" y1="66.1253" x2="102.273" y2="199.923" gradientUnits="userSpaceOnUse">
<stop stop-color="#E559BD"/>
<stop offset="1" stop-color="#9765E5"/>
</linearGradient>
<linearGradient id="paint1_linear_1138_2022" x1="102.775" y1="66.225" x2="102.775" y2="199.899" gradientUnits="userSpaceOnUse">
<stop stop-color="#E559BD"/>
<stop offset="1" stop-color="#9765E5"/>
</linearGradient>
<linearGradient id="paint2_linear_1138_2022" x1="-8.99609" y1="46.944" x2="84.5328" y2="46.944" gradientUnits="userSpaceOnUse">
<stop stop-color="#E559BD"/>
<stop offset="1" stop-color="#9765E5"/>
</linearGradient>
<linearGradient id="paint3_linear_1138_2022" x1="125.554" y1="46.8611" x2="212.996" y2="46.8611" gradientUnits="userSpaceOnUse">
<stop stop-color="#E559BD"/>
<stop offset="1" stop-color="#9765E5"/>
</linearGradient>
</defs>
</svg>
