<svg width="204" height="206" viewBox="0 0 204 206" fill="none" xmlns="http://www.w3.org/2000/svg">
<circle cx="102" cy="102.707" r="102" fill="#555555"/>
<g opacity="0.2">
<path d="M151.099 125.329L145.131 135.05L102.034 205.078L101.998 205.114L101.723 204.693L60.4206 137.504L53.4453 126.189C56.1182 122.766 58.5898 119.287 60.805 115.662C67.3958 104.55 73.3092 94.1508 81.2914 83.6971C86.857 76.4106 91.7452 63.9064 99.3612 59.0365C109.467 52.0796 145.698 117.768 151.099 125.329Z" fill="url(#paint0_linear_1138_2074)"/>
</g>
<g opacity="0.2">
<path d="M145.114 135.05L102.035 205.077L101.724 204.693L60.4219 137.503C64.4313 129.741 70.1982 118.207 71.3699 115.662C76.2947 104.549 80.7069 94.1502 86.6203 83.6965C90.7579 76.41 94.4377 63.9058 100.095 59.0359C106.374 53.2324 133.854 111.323 145.114 135.05Z" fill="url(#paint1_linear_1138_2074)"/>
</g>
<path d="M163.171 80.3618C163.171 87.1905 151.6 95.0995 135.563 100.152C132.139 101.233 128.496 102.185 124.725 102.99C117.475 104.491 109.749 105.388 102.023 105.388C100.101 105.388 98.1783 105.334 96.2743 105.224C84.7038 104.583 73.4262 102.111 64.0892 98.6695C50.395 93.6349 40.875 86.5864 40.875 80.3801C40.875 69.2672 63.1189 66.4845 63.1189 66.4845H140.945C140.927 66.4662 163.171 69.2489 163.171 80.3618Z" fill="white"/>
<path opacity="0.2" d="M135.56 100.153C132.137 101.233 128.494 102.185 124.722 102.991L114.195 66.4668H117.967L135.56 100.153Z" fill="white"/>
<path opacity="0.2" d="M99.1009 66.4668L96.2632 105.206C84.6927 104.565 73.4151 102.094 64.0781 98.6519L85.2968 69.2496L87.1276 66.4668H99.1009Z" fill="white"/>
<path opacity="0.2" d="M163.171 80.3626C163.171 91.4754 132.597 105.371 102.023 105.371C71.449 105.371 40.875 91.4754 40.875 80.3626C40.875 79.8316 40.9299 79.3556 41.0215 78.8613C43.2367 89.7361 72.6573 102.57 102.023 102.57C131.389 102.57 160.809 89.7361 163.024 78.8613C163.116 79.3556 163.171 79.8316 163.171 80.3626Z" fill="black"/>
<path d="M63.1016 72.0134C63.1016 47.005 88.11 33.1094 102.006 33.1094C115.901 33.1094 140.91 47.005 140.91 72.0134C140.91 80.3434 115.901 85.909 102.006 85.909C88.11 85.909 63.1016 80.3434 63.1016 72.0134Z" fill="#A7A7A7"/>
<g opacity="0.15">
<path d="M140.924 72.0152C140.924 80.3452 115.916 85.9108 102.02 85.9108C88.7107 85.9108 65.2219 80.8212 63.2812 73.077C71.5014 77.599 86.7152 80.3269 96.4366 80.3269C110.332 80.3269 135.341 74.7613 135.341 66.4313C135.341 57.1493 131.899 49.3685 126.828 43.3086C134.755 49.9177 140.924 59.6025 140.924 72.0152Z" fill="black"/>
</g>
<path d="M63.0916 90.2653C65.4981 90.2653 67.4489 88.3145 67.4489 85.908C67.4489 83.5016 65.4981 81.5508 63.0916 81.5508C60.6852 81.5508 58.7344 83.5016 58.7344 85.908C58.7344 88.3145 60.6852 90.2653 63.0916 90.2653Z" fill="#A7A7A7"/>
<path opacity="0.1" d="M64.1693 87.0848C65.3674 85.9977 65.6392 84.3454 64.7763 83.3944C63.9133 82.4434 62.2425 82.5538 61.0444 83.6409C59.8463 84.7281 59.5745 86.3803 60.4375 87.3313C61.3004 88.2823 62.9712 88.172 64.1693 87.0848Z" fill="white"/>
<path opacity="0.1" d="M62.6568 85.3958C63.5255 84.6076 63.7229 83.4102 63.0978 82.7213C62.4727 82.0324 61.2618 82.1128 60.3931 82.901C59.5245 83.6892 59.3271 84.8866 59.9522 85.5755C60.5773 86.2645 61.7882 86.184 62.6568 85.3958Z" fill="white"/>
<path opacity="0.1" d="M99.3291 67.8772C108.064 61.2058 111.418 50.9186 106.821 44.9002C102.224 38.8818 91.4165 39.4111 82.6821 46.0825C73.9478 52.7539 70.5937 63.041 75.1907 69.0594C79.7876 75.0779 90.5948 74.5486 99.3291 67.8772Z" fill="white"/>
<path opacity="0.1" d="M90.9541 57.8094C96.8922 53.2739 99.1685 46.275 96.0384 42.177C92.9083 38.079 85.5571 38.4337 79.619 42.9693C73.681 47.5048 71.4046 54.5037 74.5347 58.6017C77.6648 62.6997 85.016 62.345 90.9541 57.8094Z" fill="white"/>
<path d="M102.185 98.4489C104.592 98.4489 106.543 96.4981 106.543 94.0916C106.543 91.6852 104.592 89.7344 102.185 89.7344C99.7789 89.7344 97.8281 91.6852 97.8281 94.0916C97.8281 96.4981 99.7789 98.4489 102.185 98.4489Z" fill="#A7A7A7"/>
<path opacity="0.1" d="M103.279 95.2782C104.477 94.1911 104.749 92.5388 103.886 91.5878C103.023 90.6368 101.352 90.7471 100.154 91.8343C98.9557 92.9214 98.6839 94.5737 99.5468 95.5247C100.41 96.4757 102.081 96.3653 103.279 95.2782Z" fill="white"/>
<path opacity="0.1" d="M101.751 93.6009C102.619 92.8127 102.817 91.6153 102.192 90.9264C101.566 90.2374 100.356 90.3179 99.4869 91.1061C98.6182 91.8943 98.4208 93.0917 99.0459 93.7806C99.671 94.4695 100.882 94.3891 101.751 93.6009Z" fill="white"/>
<path d="M140.928 90.3942C143.334 90.3942 145.285 88.4434 145.285 86.0369C145.285 83.6305 143.334 81.6797 140.928 81.6797C138.521 81.6797 136.57 83.6305 136.57 86.0369C136.57 88.4434 138.521 90.3942 140.928 90.3942Z" fill="#A7A7A7"/>
<path opacity="0.1" d="M142.021 87.2235C143.219 86.1364 143.491 84.4841 142.628 83.5331C141.765 82.5821 140.094 82.6925 138.896 83.7796C137.698 84.8667 137.426 86.519 138.289 87.47C139.152 88.421 140.823 88.3107 142.021 87.2235Z" fill="white"/>
<path opacity="0.1" d="M140.493 85.5462C141.361 84.758 141.559 83.5606 140.934 82.8717C140.309 82.1827 139.098 82.2632 138.229 83.0514C137.36 83.8396 137.163 85.037 137.788 85.7259C138.413 86.4148 139.624 86.3344 140.493 85.5462Z" fill="white"/>
<g opacity="0.2">
<path fill-rule="evenodd" clip-rule="evenodd" d="M10.8242 56.9335C17.0631 44.5304 25.7584 33.5753 36.2714 24.707H84.5359C84.2064 25.2013 83.8403 25.6773 83.4741 26.1533C79.8309 30.8767 74.0456 35.2157 68.6265 38.1083C66.4615 39.0985 63.8465 39.4848 61.3333 39.8561C58.3634 40.2949 55.5356 40.7127 53.7606 42.0811C51.5451 43.7044 49.7794 47.1213 48.0221 50.5218C46.6283 53.2189 45.2398 55.9058 43.6364 57.6793C39.2792 62.7323 33.1277 68.5175 26.5919 70.3483C24.5383 70.8245 22.4243 70.5266 20.3285 70.2312C19.8458 70.1632 19.3641 70.0953 18.8843 70.0371L10.8242 56.9335Z" fill="url(#paint2_linear_1138_2074)"/>
</g>
<g opacity="0.2">
<path fill-rule="evenodd" clip-rule="evenodd" d="M167.73 24.707C178.243 33.5752 186.938 44.53 193.177 56.9329L184.88 70.4215C180.98 69.2315 177.703 67.2726 174.737 63.8124C173.279 62.2079 172.111 59.5924 170.978 57.0557C169.565 53.8905 168.206 50.8479 166.407 50.045C164.762 49.3851 162.956 49.6284 161.067 49.8829C158.816 50.1863 156.445 50.5057 154.086 49.331C149.747 46.8045 148.667 42.429 147.935 37.7422C137.316 38.0717 126.716 34.4651 125.562 24.707H167.73Z" fill="url(#paint3_linear_1138_2074)"/>
</g>
<path d="M44.3516 36.4258C44.3516 36.4258 46.5668 36.4258 46.5668 33.0938C46.5668 33.0938 46.5668 36.4258 48.782 36.4258C48.782 36.4258 46.5668 36.4258 46.5668 39.7578C46.5851 39.7578 46.5851 36.4258 44.3516 36.4258Z" fill="white"/>
<path d="M150.719 102.992C150.719 102.992 152.934 102.992 152.934 99.6602C152.934 99.6602 152.934 102.992 155.149 102.992C155.149 102.992 152.934 102.992 152.934 106.324C152.952 106.324 152.952 102.992 150.719 102.992Z" fill="white"/>
<path d="M148.859 36.4258C148.859 36.4258 151.075 36.4258 151.075 33.0938C151.075 33.0938 151.075 36.4258 153.29 36.4258C153.29 36.4258 151.075 36.4258 151.075 39.7578C151.093 39.7578 151.093 36.4258 148.859 36.4258Z" fill="white"/>
<path d="M30.4766 62.2749C30.4766 62.2749 34.1198 62.2749 34.1198 56.8009C34.1198 56.8009 34.1198 62.2749 37.7631 62.2749C37.7631 62.2749 34.1198 62.2749 34.1198 67.7489C34.1198 67.7489 34.1198 62.2749 30.4766 62.2749Z" fill="white"/>
<path d="M171.32 52.1166C171.32 52.1166 174.964 52.1166 174.964 46.6426C174.964 46.6426 174.964 52.1166 178.607 52.1166C178.607 52.1166 174.964 52.1166 174.964 57.5906C174.964 57.5906 174.964 52.1166 171.32 52.1166Z" fill="white"/>
<path d="M124.14 153.117L120.365 147.084C120.103 146.663 119.667 146.383 119.174 146.325C118.224 146.212 116.622 145.822 115.968 144.487C115.009 142.531 117.313 138.192 113.713 135.568C110.116 132.946 105.9 133.037 102.455 132.339C99.0103 131.641 95.748 125.361 95.748 125.361C95.748 125.361 97.0341 126.028 98.5452 125.927C99.4223 125.869 100.212 125.452 100.719 125.11C101.005 124.918 100.971 124.487 100.659 124.344C99.8959 123.995 98.6295 123.488 97.8085 123.544C96.5713 123.63 95.5175 123.823 95.5175 123.823C95.5175 123.823 95.0271 122.574 95.3284 121.755C95.6297 120.937 95.9573 119.989 95.9573 119.989C95.9573 119.989 94.4075 120.624 94.3801 121.428C92.9666 119.383 91.2462 119.848 91.2462 119.848C91.2462 119.848 92.3628 120.682 92.4004 121.166C92.4385 121.646 91.8645 122.815 90.7585 122.254C89.6566 121.69 86.135 119.691 85.3012 119.793C84.4674 119.895 83.5395 121.525 84.0815 122.177C84.6269 122.829 87.9253 125.673 88.7095 128.268C88.9466 129.052 89.2084 132.236 87.758 136.067C86.6177 139.071 83.2054 142.998 81.7935 144.547C81.4626 144.911 81.5139 145.48 81.9092 145.776C82.2019 145.995 82.604 146 82.9018 145.782C83.9704 145.002 86.4551 143.149 87.3548 142.07C88.0931 141.188 88.8479 140.086 89.3025 139.403C89.5439 139.035 90.0238 138.914 90.4147 139.111C90.6728 139.243 90.8512 139.495 90.8825 139.786C90.9824 140.717 91.1507 142.818 90.7631 143.977C90.3795 145.115 88.965 147.671 88.4703 148.93C88.3136 149.325 88.4728 149.775 88.843 149.989C89.2104 150.199 89.6722 150.115 89.9368 149.786C90.6873 148.861 92.1152 147.027 92.5165 146.025C93.067 144.645 93.7088 142.816 93.7088 142.816L101.8 144.594C101.8 144.594 101.896 145.062 102.17 145.666L100.766 146.866C100.501 147.09 100.469 147.49 100.697 147.755C100.921 148.019 101.321 148.052 101.586 147.824L102.826 146.765C103.189 147.238 103.671 147.687 104.302 148.006L103.826 149.651C103.731 149.982 103.924 150.334 104.255 150.432C104.586 150.527 104.938 150.335 105.037 150.004L105.501 148.398C106.021 148.507 106.502 148.567 106.935 148.592L107.232 150.007C107.303 150.345 107.64 150.566 107.978 150.495C108.315 150.425 108.536 150.087 108.466 149.75L108.216 148.563C109.085 148.475 109.586 148.27 109.586 148.27C109.586 148.27 111.049 150.395 111.112 151.422C111.153 152.143 110.735 154.824 110.477 156.371C110.379 156.959 110.826 157.498 111.424 157.511C111.867 157.521 112.263 157.233 112.387 156.806L113.908 151.652L112.405 147.08C112.263 146.652 112.829 146.36 113.105 146.714C113.792 147.608 113.933 148.078 114.596 148.546C116.077 149.589 118.133 149.526 118.133 149.526L122.343 154.442C122.761 154.93 123.505 154.965 123.97 154.521C124.35 154.153 124.421 153.567 124.14 153.117Z" fill="#343434"/>
<path d="M114.305 138.331C114.258 138.322 114.21 138.302 114.167 138.275C113.983 138.155 113.928 137.911 114.049 137.727C115.393 135.64 119.471 137.842 120.686 138.564C121.663 139.145 122.812 138.571 123.452 137.71C124.198 136.701 124.492 134.995 122.857 133.51C122.696 133.363 122.685 133.111 122.832 132.949C122.979 132.788 123.229 132.773 123.393 132.924C125.288 134.649 125.111 136.81 124.092 138.188C123.101 139.526 121.498 139.976 120.279 139.253C118.024 137.914 115.432 137.055 114.718 138.161C114.628 138.296 114.462 138.363 114.305 138.331Z" fill="#343434"/>
<path d="M122.045 130.182C122.045 130.182 120.648 134.576 123.724 134.692C125.848 134.771 125.421 132.68 123.767 132.404C122.876 132.254 122.045 130.182 122.045 130.182Z" fill="#343434"/>
<defs>
<linearGradient id="paint0_linear_1138_2074" x1="102.273" y1="66.8324" x2="102.273" y2="200.63" gradientUnits="userSpaceOnUse">
<stop stop-color="#9F9F9F"/>
<stop offset="1" stop-color="#A5A5A5"/>
</linearGradient>
<linearGradient id="paint1_linear_1138_2074" x1="102.775" y1="66.9321" x2="102.775" y2="200.606" gradientUnits="userSpaceOnUse">
<stop stop-color="#9F9F9F"/>
<stop offset="1" stop-color="#A5A5A5"/>
</linearGradient>
<linearGradient id="paint2_linear_1138_2074" x1="-8.99609" y1="47.6511" x2="84.5328" y2="47.6511" gradientUnits="userSpaceOnUse">
<stop stop-color="#9F9F9F"/>
<stop offset="1" stop-color="#A5A5A5"/>
</linearGradient>
<linearGradient id="paint3_linear_1138_2074" x1="125.554" y1="47.5681" x2="212.996" y2="47.5681" gradientUnits="userSpaceOnUse">
<stop stop-color="#9F9F9F"/>
<stop offset="1" stop-color="#A5A5A5"/>
</linearGradient>
</defs>
</svg>
