<svg width="204" height="204" viewBox="0 0 204 204" fill="none" xmlns="http://www.w3.org/2000/svg">
<path d="M204 102.01C204 103.647 203.981 105.245 203.886 106.863C203.277 119.598 200.326 131.742 195.453 142.84C179.825 178.493 144.363 203.543 103.133 203.981H102.01C58.0573 203.981 20.4819 176.037 6.18643 136.939C3.80704 130.467 2.0558 123.653 1.04693 116.61C0.342633 111.851 0 106.94 0 101.99C0 84.935 4.20677 68.8502 11.6115 54.7071C15.1139 48.0067 19.3397 41.7822 24.2127 36.0717C42.9624 14.0099 70.8489 0 101.99 0C148.227 0 187.363 30.9322 199.812 73.1712C202.553 82.3652 204 92.0161 204 102.01Z" fill="#552A80"/>
<path d="M184 121.743C184 121.743 186.5 121.743 186.5 118C186.5 118 186.5 121.743 189 121.743C189 121.743 186.5 121.743 186.5 125.486C186.486 125.486 186.486 121.743 184 121.743Z" fill="white"/>
<path d="M13 91.9892C13 91.9892 17 91.9892 17 86C17 86 17 91.9892 21 91.9892C21 91.9892 17 91.9892 17 97.9784C16.9784 97.9784 16.9784 91.9892 13 91.9892Z" fill="white"/>
<path d="M44 75.0751C44 75.0751 47.3895 75.0751 47.3895 70C47.3895 70 47.3895 75.0751 50.779 75.0751C50.779 75.0751 47.3895 75.0751 47.3895 80.1502C47.3712 80.1502 47.3712 75.0751 44 75.0751Z" fill="white"/>
<path d="M200.6 73.1903C193.499 75.3603 185.961 76.0836 178.88 75.189C160.569 72.0482 149.052 53.7363 132.32 50.0816C116.102 46.9407 104.072 61.5978 87.3212 56.8771C78.4317 54.2503 72.1501 51.6234 66.3825 43.7809C61.6998 37.5183 61.1668 29.6758 53.3243 28.6289C46.5288 28.0959 37.6394 33.8446 30.8438 34.8915C28.9784 35.3293 27.0177 35.729 25 36.0717C43.7497 14.0099 71.6362 0 102.778 0C149.014 0.0380704 188.151 30.9512 200.6 73.1903Z" fill="url(#paint0_linear_1138_1972)" fill-opacity="0.25"/>
<path d="M141.289 39.4325C141.289 39.4325 144.679 39.4325 144.679 34.3574C144.679 34.3574 144.679 39.4325 148.068 39.4325C148.068 39.4325 144.679 39.4325 144.679 44.5076C144.66 44.5076 144.66 39.4325 141.289 39.4325Z" fill="white"/>
<path d="M57 25.7432C57 25.7432 59.5 25.7432 59.5 22C59.5 22 59.5 25.7432 62 25.7432C62 25.7432 59.5 25.7432 59.5 29.4865C59.4865 29.4865 59.4865 25.7432 57 25.7432Z" fill="white"/>
<path fill-rule="evenodd" clip-rule="evenodd" d="M172.765 175.388C161.093 186.647 146.751 195.155 130.797 199.855L148.62 131C148.635 131.022 148.648 131.042 148.66 131.061C148.707 131.134 148.746 131.194 148.828 131.276C158.668 145.196 166.534 160.069 172.765 175.388Z" fill="#689AE5"/>
<path fill-rule="evenodd" clip-rule="evenodd" d="M73.0955 199.809C57.1559 195.091 42.829 186.574 31.1719 175.309C37.3973 160.018 45.2536 145.172 55.0767 131.276C55.1587 131.194 55.1975 131.134 55.2443 131.061C55.2566 131.042 55.2696 131.022 55.284 131L73.0955 199.809Z" fill="#689AE5"/>
<path fill-rule="evenodd" clip-rule="evenodd" d="M51.3754 190.505C50.9879 184.039 50.7812 177.109 50.7812 169.739C50.7812 155.915 51.9979 143.36 54.1206 132.125C56.1139 121.227 58.9614 111.571 62.1714 102.977C62.6373 101.708 63.1033 100.492 63.621 99.2752C64.087 98.0585 64.6047 96.8677 65.1225 95.7028C65.3813 95.1333 65.6337 94.5638 65.8861 93.9943C66.1385 93.4248 66.3909 92.8553 66.6498 92.2858C66.7897 91.9993 66.9279 91.7145 67.0652 91.4315C67.4616 90.6147 67.851 89.8122 68.2547 89.024C68.4003 88.6844 68.5661 88.3548 68.7331 88.0228C68.8334 87.8233 68.9342 87.623 69.0313 87.4191C69.1672 87.1304 69.3142 86.864 69.465 86.5907C69.5441 86.4473 69.6242 86.302 69.7044 86.1506C70.0194 85.548 70.3344 84.9526 70.6456 84.3644C70.9226 83.841 71.1965 83.3232 71.4647 82.8112C72.5038 80.9746 73.5655 79.2057 74.5866 77.5044C74.6593 77.3833 74.7318 77.2625 74.8041 77.1421C75.0354 76.7806 75.2627 76.4211 75.4877 76.0654C76.0682 75.1473 76.6331 74.254 77.2115 73.4144C77.5222 72.9484 77.8328 72.4825 78.1434 71.9906H78.1952C78.5134 71.5057 78.8405 71.0386 79.1661 70.5736C79.3967 70.2442 79.6266 69.9159 79.852 69.5832C81.5087 67.2534 83.1654 65.1307 84.7704 63.1892C85.1478 62.6985 85.539 62.2354 85.9239 61.7798C86.067 61.6103 86.2092 61.4419 86.3495 61.2736H86.4013C86.484 61.1908 86.5562 61.0974 86.6314 61.0003C86.6737 60.9455 86.717 60.8895 86.7637 60.8335C87.7934 59.6028 88.8231 58.494 89.8056 57.4361L89.896 57.3388C90.0198 57.153 90.193 56.9838 90.3762 56.8047C90.4228 56.7591 90.47 56.713 90.5173 56.6657C90.564 56.5878 90.6295 56.5193 90.6968 56.4489C90.7413 56.4023 90.7867 56.3549 90.8279 56.3033H90.8797C91.3456 55.7856 91.8116 55.3196 92.3034 54.8537C93.2095 53.9217 94.0378 53.0934 94.8662 52.3427C96.057 51.2295 97.1183 50.2976 98.0503 49.521C100.639 47.243 102.27 46.1816 102.27 46.1816C102.27 46.1816 103.253 46.8547 104.988 48.2526C105.088 48.3362 105.188 48.4089 105.303 48.4918C105.365 48.5373 105.432 48.5858 105.506 48.6409C105.692 48.827 105.857 48.9714 106.039 49.1303C106.059 49.1481 106.08 49.1662 106.101 49.1845C106.722 49.7022 107.369 50.2458 108.068 50.8671C108.375 51.1281 108.692 51.4073 109.022 51.6993C109.249 51.8997 109.483 52.1061 109.725 52.3168C111.77 54.2324 114.126 56.6398 116.637 59.5133C117.388 60.3416 118.138 61.1959 118.889 62.1019C124.869 69.2466 131.573 78.9541 137.527 91.535C137.967 92.4411 138.382 93.3471 138.796 94.2531C139.236 95.1592 139.624 96.0911 140.013 97.0489C140.323 97.7478 140.634 98.4727 140.919 99.1975C141.436 100.414 141.902 101.631 142.368 102.899C145.682 111.545 148.452 121.253 150.497 132.177C152.516 143.464 153.732 155.941 153.732 169.739C153.732 177.009 153.531 183.851 153.154 190.217C138.411 198.798 121.334 203.788 103.133 203.981H102.01C83.5984 203.981 66.3063 199.078 51.3754 190.505Z" fill="white"/>
<path opacity="0.15" d="M136.053 163.974C136.053 182.664 120.883 197.834 102.245 197.834C101.468 197.834 100.718 197.782 99.9411 197.678C95.4368 197.445 91.1396 196.255 87.3084 194.313C84.668 193.096 82.2605 191.466 80.1119 189.576C73.0707 183.518 68.5665 174.562 68.4111 164.569C68.3594 164.362 68.3594 164.181 68.3594 163.974C68.3594 150.176 76.669 138.294 88.5768 133.065C92.7446 131.201 97.3783 130.166 102.219 130.166C107.215 130.166 111.952 131.253 116.224 133.247C118.864 134.411 121.323 135.939 123.524 137.751C126.941 140.495 129.788 143.912 131.937 147.769C134.552 152.636 136.053 158.124 136.053 163.974Z" fill="black"/>
<path d="M142.293 102.744C138.954 107.791 127.46 121.511 102.247 121.511C77.0591 121.511 65.5655 107.817 62.1484 102.769C77.3439 62.6192 102.247 46 102.247 46C102.247 46 127.124 62.6192 142.293 102.744Z" fill="#689AE5"/>
<path opacity="0.1" d="M108.796 51.4103C103.049 55.8369 82.1847 78.0218 69.319 110.561C65.669 107.584 63.391 104.607 62.1484 102.769C77.318 62.6451 102.273 46 102.273 46C102.273 46 104.836 47.7344 108.796 51.4103Z" fill="white"/>
<path d="M129.393 163.999C129.393 179.014 117.201 191.18 102.238 191.18C101.617 191.18 101.021 191.129 100.4 191.051C96.776 190.844 93.3331 189.912 90.2526 188.333C88.1299 187.349 86.2143 186.055 84.4799 184.527C78.8107 179.661 75.2125 172.464 75.083 164.439C75.0313 164.284 75.0312 164.129 75.0312 163.973C75.0312 152.894 81.71 143.342 91.2622 139.148C94.6016 137.647 98.3292 136.818 102.212 136.818C106.225 136.818 110.03 137.673 113.447 139.303C115.57 140.235 117.537 141.452 119.297 142.928C122.041 145.128 124.319 147.872 126.054 150.978C128.177 154.887 129.393 159.288 129.393 163.999Z" fill="#552A80"/>
<path opacity="0.2" d="M113.484 139.329L84.4906 184.553C78.8214 179.686 75.2232 172.49 75.0938 164.465L91.2729 139.174C94.6123 137.672 98.34 136.844 102.223 136.844C106.261 136.844 110.067 137.698 113.484 139.329Z" fill="white"/>
<path opacity="0.2" d="M126.072 150.977L100.366 191.05C96.7422 190.842 93.2993 189.911 90.2188 188.331L119.289 142.9C122.085 145.127 124.363 147.871 126.072 150.977Z" fill="white"/>
<defs>
<linearGradient id="paint0_linear_1138_1972" x1="0.00309593" y1="102.046" x2="204.008" y2="102.046" gradientUnits="userSpaceOnUse">
<stop stop-color="#E559BD"/>
<stop offset="1" stop-color="#9765E5"/>
</linearGradient>
</defs>
</svg>
