<svg width="204" height="205" viewBox="0 0 204 205" fill="none" xmlns="http://www.w3.org/2000/svg">
<path d="M204 102.717C204 104.354 203.981 105.953 203.886 107.571C203.277 120.305 200.326 132.45 195.453 143.547C179.825 179.2 144.363 204.25 103.133 204.688H102.01C58.0573 204.688 20.4819 176.744 6.18643 137.646C3.80704 131.174 2.0558 124.36 1.04693 117.317C0.342633 112.558 0 107.647 0 102.698C0 85.642 4.20677 69.5573 11.6115 55.4141C15.1139 48.7137 19.3397 42.4893 24.2127 36.7787C42.9624 14.7169 70.8489 0.707031 101.99 0.707031C148.227 0.707031 187.363 31.6392 199.812 73.8783C202.553 83.0723 204 92.7231 204 102.717Z" fill="#555555"/>
<path d="M184 122.45C184 122.45 186.5 122.45 186.5 118.707C186.5 118.707 186.5 122.45 189 122.45C189 122.45 186.5 122.45 186.5 126.194C186.486 126.194 186.486 122.45 184 122.45Z" fill="white"/>
<path d="M13 92.6962C13 92.6962 17 92.6962 17 86.707C17 86.707 17 92.6962 21 92.6962C21 92.6962 17 92.6962 17 98.6854C16.9784 98.6854 16.9784 92.6962 13 92.6962Z" fill="white"/>
<path d="M44 75.7821C44 75.7821 47.3895 75.7821 47.3895 70.707C47.3895 70.707 47.3895 75.7821 50.779 75.7821C50.779 75.7821 47.3895 75.7821 47.3895 80.8572C47.3712 80.8572 47.3712 75.7821 44 75.7821Z" fill="white"/>
<path d="M200.6 73.8973C193.499 76.0673 185.961 76.7906 178.88 75.896C160.569 72.7552 149.052 54.4433 132.32 50.7886C116.102 47.6478 104.072 62.3049 87.3212 57.5841C78.4317 54.9573 72.1501 52.3304 66.3825 44.4879C61.6998 38.2254 61.1668 30.3829 53.3243 29.3359C46.5288 28.803 37.6394 34.5516 30.8438 35.5985C28.9784 36.0363 27.0177 36.4361 25 36.7787C43.7497 14.7169 71.6362 0.707031 102.778 0.707031C149.014 0.745102 188.151 31.6582 200.6 73.8973Z" fill="url(#paint0_linear_1138_1995)" fill-opacity="0.25"/>
<path d="M141.289 40.1396C141.289 40.1396 144.679 40.1396 144.679 35.0645C144.679 35.0645 144.679 40.1396 148.068 40.1396C148.068 40.1396 144.679 40.1396 144.679 45.2147C144.66 45.2147 144.66 40.1396 141.289 40.1396Z" fill="white"/>
<path d="M57 26.4503C57 26.4503 59.5 26.4503 59.5 22.707C59.5 22.707 59.5 26.4503 62 26.4503C62 26.4503 59.5 26.4503 59.5 30.1935C59.4865 30.1935 59.4865 26.4503 57 26.4503Z" fill="white"/>
<path fill-rule="evenodd" clip-rule="evenodd" d="M172.765 176.095C161.093 187.355 146.751 195.862 130.797 200.562L148.62 131.707C148.635 131.729 148.648 131.749 148.66 131.768C148.707 131.841 148.746 131.901 148.828 131.983C158.668 145.903 166.534 160.776 172.765 176.095Z" fill="#A7A7A7"/>
<path fill-rule="evenodd" clip-rule="evenodd" d="M73.0955 200.516C57.1559 195.798 42.829 187.281 31.1719 176.016C37.3973 160.725 45.2536 145.88 55.0767 131.983C55.1587 131.901 55.1975 131.841 55.2443 131.768C55.2566 131.749 55.2696 131.729 55.284 131.707L73.0955 200.516Z" fill="#A7A7A7"/>
<path fill-rule="evenodd" clip-rule="evenodd" d="M51.3754 191.212C50.9879 184.747 50.7812 177.816 50.7812 170.446C50.7812 156.622 51.9979 144.067 54.1206 132.832C56.1139 121.934 58.9614 112.278 62.1714 103.684C62.6373 102.416 63.1033 101.199 63.621 99.9822C64.087 98.7655 64.6047 97.5747 65.1225 96.4098C65.3813 95.8403 65.6337 95.2708 65.8861 94.7013C66.1385 94.1318 66.3909 93.5623 66.6498 92.9928C66.7897 92.7063 66.9279 92.4216 67.0652 92.1385C67.4616 91.3218 67.851 90.5193 68.2547 89.7311C68.4003 89.3914 68.5661 89.0619 68.7331 88.7298C68.8334 88.5304 68.9342 88.3301 69.0313 88.1261C69.1672 87.8374 69.3142 87.5711 69.465 87.2977C69.5441 87.1544 69.6242 87.0091 69.7044 86.8577C70.0194 86.255 70.3344 85.6596 70.6456 85.0715C70.9226 84.548 71.1965 84.0303 71.4647 83.5183C72.5038 81.6817 73.5655 79.9127 74.5866 78.2114C74.6593 78.0903 74.7318 77.9695 74.8041 77.8491C75.0354 77.4876 75.2627 77.1282 75.4877 76.7724C76.0682 75.8544 76.6331 74.961 77.2115 74.1214C77.5222 73.6555 77.8328 73.1895 78.1434 72.6977H78.1952C78.5134 72.2128 78.8405 71.7456 79.1661 71.2806C79.3967 70.9512 79.6266 70.6229 79.852 70.2902C81.5087 67.9604 83.1654 65.8377 84.7704 63.8962C85.1478 63.4056 85.539 62.9424 85.9239 62.4868C86.067 62.3174 86.2092 62.149 86.3495 61.9806H86.4013C86.484 61.8978 86.5562 61.8045 86.6314 61.7073C86.6737 61.6525 86.717 61.5965 86.7637 61.5405C87.7934 60.3099 88.8231 59.2011 89.8056 58.1432L89.896 58.0458C90.0198 57.8601 90.193 57.6908 90.3762 57.5117C90.4228 57.4662 90.47 57.42 90.5173 57.3728C90.564 57.2949 90.6295 57.2264 90.6968 57.1559C90.7413 57.1093 90.7867 57.0619 90.8279 57.0104H90.8797C91.3456 56.4926 91.8116 56.0267 92.3034 55.5607C93.2095 54.6288 94.0378 53.8004 94.8662 53.0497C96.057 51.9366 97.1183 51.0046 98.0503 50.228C100.639 47.95 102.27 46.8887 102.27 46.8887C102.27 46.8887 103.253 47.5617 104.988 48.9596C105.088 49.0432 105.188 49.116 105.303 49.1989C105.365 49.2443 105.432 49.2929 105.506 49.3479C105.692 49.5341 105.857 49.6784 106.039 49.8373C106.059 49.8552 106.08 49.8732 106.101 49.8915C106.722 50.4093 107.369 50.9529 108.068 51.5742C108.375 51.8352 108.692 52.1144 109.022 52.4064C109.249 52.6067 109.483 52.8131 109.725 53.0238C111.77 54.9394 114.126 57.3469 116.637 60.2203C117.388 61.0487 118.138 61.9029 118.889 62.809C124.869 69.9537 131.573 79.6612 137.527 92.2421C137.967 93.1481 138.382 94.0541 138.796 94.9602C139.236 95.8662 139.624 96.7981 140.013 97.7559C140.323 98.4549 140.634 99.1797 140.919 99.9045C141.436 101.121 141.902 102.338 142.368 103.606C145.682 112.252 148.452 121.96 150.497 132.884C152.516 144.171 153.732 156.648 153.732 170.446C153.732 177.716 153.531 184.558 153.154 190.924C138.411 199.505 121.334 204.495 103.133 204.688H102.01C83.5984 204.688 66.3063 199.785 51.3754 191.212Z" fill="white"/>
<path opacity="0.15" d="M136.053 164.681C136.053 183.371 120.883 198.541 102.245 198.541C101.468 198.541 100.718 198.489 99.9411 198.385C95.4368 198.152 91.1396 196.962 87.3084 195.02C84.668 193.803 82.2605 192.173 80.1119 190.283C73.0707 184.225 68.5665 175.269 68.4111 165.276C68.3594 165.069 68.3594 164.888 68.3594 164.681C68.3594 150.883 76.669 139.001 88.5768 133.772C92.7446 131.909 97.3783 130.873 102.219 130.873C107.215 130.873 111.952 131.96 116.224 133.954C118.864 135.118 121.323 136.646 123.524 138.458C126.941 141.202 129.788 144.619 131.937 148.476C134.552 153.343 136.053 158.831 136.053 164.681Z" fill="black"/>
<path d="M142.293 103.451C138.954 108.498 127.46 122.218 102.247 122.218C77.0591 122.218 65.5655 108.524 62.1484 103.476C77.3439 63.3263 102.247 46.707 102.247 46.707C102.247 46.707 127.124 63.3263 142.293 103.451Z" fill="#A7A7A7"/>
<path opacity="0.1" d="M108.796 52.1173C103.049 56.544 82.1847 78.7288 69.319 111.268C65.669 108.291 63.391 105.314 62.1484 103.476C77.318 63.3521 102.273 46.707 102.273 46.707C102.273 46.707 104.836 48.4414 108.796 52.1173Z" fill="white"/>
<path d="M129.393 164.706C129.393 179.721 117.201 191.887 102.238 191.887C101.617 191.887 101.021 191.836 100.4 191.758C96.776 191.551 93.3331 190.619 90.2526 189.04C88.1299 188.056 86.2143 186.762 84.4799 185.234C78.8107 180.368 75.2125 173.171 75.083 165.146C75.0313 164.991 75.0312 164.836 75.0312 164.68C75.0312 153.601 81.71 144.049 91.2622 139.855C94.6016 138.354 98.3292 137.525 102.212 137.525C106.225 137.525 110.03 138.38 113.447 140.011C115.57 140.942 117.537 142.159 119.297 143.635C122.041 145.835 124.319 148.579 126.054 151.685C128.177 155.594 129.393 159.995 129.393 164.706Z" fill="#555555"/>
<path opacity="0.2" d="M113.484 140.036L84.4906 185.26C78.8214 180.393 75.2232 173.197 75.0938 165.172L91.2729 139.881C94.6123 138.379 98.34 137.551 102.223 137.551C106.261 137.551 110.067 138.405 113.484 140.036Z" fill="white"/>
<path opacity="0.2" d="M126.072 151.684L100.366 191.757C96.7422 191.549 93.2993 190.618 90.2188 189.038L119.289 143.607C122.085 145.834 124.363 148.578 126.072 151.684Z" fill="white"/>
<defs>
<linearGradient id="paint0_linear_1138_1995" x1="0.00309593" y1="102.753" x2="204.008" y2="102.753" gradientUnits="userSpaceOnUse">
<stop stop-color="#9F9F9F"/>
<stop offset="1" stop-color="#A5A5A5"/>
</linearGradient>
</defs>
</svg>
