<svg width="81" height="81" viewBox="0 0 81 81" fill="none" xmlns="http://www.w3.org/2000/svg">
<path d="M40.0508 80.0225C62.1422 80.0225 80.0508 62.1139 80.0508 40.0225C80.0508 17.9311 62.1422 0.0224609 40.0508 0.0224609C17.9594 0.0224609 0.0507812 17.9311 0.0507812 40.0225C0.0507812 62.1139 17.9594 80.0225 40.0508 80.0225Z" fill="#28304B"/>
<path d="M39.248 3.1354C39.2345 4.05978 36.9636 4.6511 34.2895 4.90259C31.6155 5.15407 29.3848 4.97735 29.1497 4.08696C28.9145 3.19657 30.957 1.87118 33.873 1.58571C36.7889 1.30024 39.2547 2.21103 39.248 3.1354ZM77.565 37.7247C77.5583 37.4528 77.5717 37.1809 77.6187 36.9023C78.4384 31.9881 78.8281 27.3867 73.3725 24.5727C72.7745 24.2601 72.1161 24.0086 71.6592 23.5056C70.8194 22.5881 70.8933 21.1879 70.6783 19.9577C70.0266 16.1922 65.8139 13.4938 62.1723 14.5134C60.9764 14.8464 59.7267 15.5125 58.5778 15.0571C57.6506 14.6901 57.1266 13.7181 56.6025 12.8617C55.1177 10.4284 52.84 8.26704 50.0383 7.87282C47.2366 7.47181 44.0519 9.4361 43.8772 12.2908C43.8033 13.5346 44.0116 15.0027 44.9522 15.8116C48.9028 19.2168 51.3484 16.7088 53.1827 18.4692C55.3125 20.515 50.8916 21.0656 51.6239 26.2652C51.9934 28.8616 54.5398 31.2949 57.1266 31.0774C58.2755 30.9754 60.0223 30.9142 60.6606 31.8862C61.1645 32.6474 61.0369 33.3747 61.0369 34.6253C61.0369 37.7111 61.3728 40.1376 64.3425 40.8377C64.7255 40.926 65.142 40.9736 65.4981 40.8173C66.2842 40.4706 66.2775 39.4035 66.2237 38.5335C65.9886 34.7137 63.328 33.9388 62.8442 31.8386C62.2328 29.1606 65.8475 25.5379 68.8037 26.5506C71.1553 27.3595 69.2405 30.119 70.9605 33.3067C72.0959 35.4206 74.3266 36.3925 75.153 38.1189C75.9794 39.8453 75.2134 41.0416 75.6166 42.1359C76.2414 43.8487 77.2358 43.8759 77.7934 43.2709C78.4048 42.6116 78.2033 41.2591 78.0555 40.4706C77.8942 39.5531 77.5919 38.6559 77.565 37.7247ZM13.6495 66.659C13.7234 66.5502 14.3147 66.3939 15 67.0464C15.6853 67.6921 17.7077 69.6224 18.5139 70.3633C19.3202 71.1041 18.5341 71.7295 17.8622 71.6071C14.6372 71.0362 12.8769 67.7941 13.6495 66.659ZM25.6089 75.0735C25.6425 74.9444 26.1397 74.591 27.0064 74.9444C27.8731 75.2978 30.4464 76.3785 31.4609 76.7795C32.4755 77.1806 31.9581 78.0438 31.293 78.1797C28.068 78.805 25.2864 76.4125 25.6089 75.0735ZM29.8148 72.6402C30.218 72.9597 30.6278 73.4627 30.4397 73.9385C30.265 74.3735 29.7141 74.489 29.2505 74.5026C27.7186 74.5502 26.1867 74.156 24.8497 73.4151C23.9091 72.8917 21.4433 71.2809 21.7927 69.9283C22.2898 68.0116 28.7802 71.8314 29.8148 72.6402ZM63.0122 69.3506C62.8644 69.2622 62.6091 68.5213 63.4019 67.6038C64.1947 66.6862 66.5462 63.981 67.4398 62.9003C68.3334 61.8196 69.227 62.778 69.133 63.6412C68.6627 67.7941 64.5709 70.2545 63.0122 69.3506ZM70.6044 61.3235C70.47 61.2963 70.087 60.7933 70.4633 59.8825C70.8395 58.9717 71.9616 56.287 72.3781 55.2335C72.7947 54.1731 73.7219 54.6761 73.863 55.3694C74.5483 58.6727 72.0287 61.6157 70.6044 61.3235ZM55.4872 6.35712C55.4603 6.49306 54.9564 6.89407 54.0628 6.54064C53.1692 6.1872 50.5355 5.11329 49.4941 4.71907C48.4527 4.32485 48.9633 3.37329 49.6419 3.21017C52.9206 2.42853 55.7962 4.90259 55.4872 6.35712ZM35.3041 7.81845C28.9212 6.64259 26.6369 10.51 24.6817 11.3528C23.123 12.0189 22.048 10.8567 19.6427 12.3452C16.3236 14.391 17.58 15.8727 17.2777 17.6059C16.9686 19.3392 15.1344 20.08 13.7906 20.2092C12.1983 20.3655 12.0706 19.3867 12.8366 18.2109C13.2598 17.5652 13.71 17.1642 13.925 16.4029C14.1736 15.5193 14.0392 14.5677 14.523 13.7521C15.2822 12.4743 17.0559 12.2976 18.1511 11.3052C18.9439 10.5848 19.3269 9.47689 20.1734 8.81759C21.02 8.15829 22.1219 7.9204 23.1767 7.73009C25.3267 7.34267 27.1408 5.62985 26.1666 5.57548C25.1856 5.5211 23.553 5.20165 22.1823 6.22118C20.6572 7.34946 18.608 7.7029 16.9887 8.63407C15.1747 9.68759 14.2206 11.9781 13.6697 12.5967C13.1187 13.2152 11.345 13.2763 10.1222 14.5541C7.56906 17.1981 3.30937 26.8021 3.30937 30.3977C3.30937 33.7485 4.78078 37.0246 8.06625 37.9354C8.56343 38.0713 9.09422 38.2277 9.41672 38.6355C10.1558 39.5667 8.30812 42.367 8.02593 43.4952C7.30703 46.4179 8.09312 48.6677 9.36968 50.2785C12.1311 53.7517 14.8858 53.2827 17.6539 51.5631C18.3258 51.1417 18.9036 50.5504 19.6494 50.2717C21.2216 49.6804 21.2619 50.6999 21.4164 51.8894C22.142 57.3677 24.3928 58.7814 25.9717 59.3999C29.2572 60.6845 33.2952 59.4611 35.4317 56.6268C37.5683 53.7925 37.8034 49.5581 35.8752 46.5742C32.9323 42.0203 27.1206 41.7688 25.9448 39.22C24.6212 36.3517 28.283 35.9507 29.882 33.4631C31.3064 31.2541 31.602 28.2159 30.2448 25.9321C29.573 24.8038 28.4577 23.6756 28.7398 22.3909C29.0556 20.9568 33.0936 18.707 36.0969 16.097C38.2334 14.2483 43.2389 9.27978 35.3041 7.81845ZM14.8387 30.5132C14.6103 30.955 14.2677 31.3968 13.7772 31.4716C13.3136 31.5395 12.8702 31.2405 12.5812 30.8667C12.1244 30.2617 11.99 29.4121 12.2789 28.712C12.6216 27.8692 13.7906 27.1963 14.6977 27.5906C15.1881 27.8013 15.3359 28.3042 15.3091 28.8548C15.2755 29.4597 15.0403 30.119 14.8387 30.5132ZM25.2528 32.5115C25.1587 33.0484 24.9908 33.565 24.8698 33.9184C24.5406 34.904 24.0636 35.9371 23.1431 36.3925C22.74 36.5964 22.2898 36.6644 21.8464 36.7392C20.9259 36.8819 19.777 36.9295 19.3 36.1206C19.1253 35.8284 19.085 35.4749 19.0514 35.1351C18.8969 33.667 18.823 31.9609 19.8912 30.9618C20.6572 30.2413 21.5172 30.3297 22.4712 30.3229C23.0087 30.3229 24.3055 30.1462 24.7623 30.4452C25.3737 30.8463 25.3939 31.7027 25.2528 32.5115Z" fill="#1B2136"/>
</svg>